<?xml version="1.0" encoding="UTF-8" standalone="no"?>
<!-- Created with Inkscape (http://www.inkscape.org/) -->

<svg
   xmlns:dc="http://purl.org/dc/elements/1.1/"
   xmlns:cc="http://creativecommons.org/ns#"
   xmlns:rdf="http://www.w3.org/1999/02/22-rdf-syntax-ns#"
   xmlns:svg="http://www.w3.org/2000/svg"
   xmlns="http://www.w3.org/2000/svg"
   xmlns:xlink="http://www.w3.org/1999/xlink"
   xmlns:sodipodi="http://sodipodi.sourceforge.net/DTD/sodipodi-0.dtd"
   xmlns:inkscape="http://www.inkscape.org/namespaces/inkscape"
   version="1.1"
   width="180.7207"
   height="209.35547"
   id="svg2985"
   xml:space="preserve"
   inkscape:version="0.91 r13725"
   sodipodi:docname="SQLite_Complete.svg"><sodipodi:namedview
     pagecolor="#ffffff"
     bordercolor="#666666"
     borderopacity="1"
     objecttolerance="10"
     gridtolerance="10"
     guidetolerance="10"
     inkscape:pageopacity="0"
     inkscape:pageshadow="2"
     inkscape:window-width="1366"
     inkscape:window-height="704"
     id="namedview16"
     showgrid="false"
     fit-margin-top="0"
     fit-margin-left="0"
     fit-margin-right="0"
     fit-margin-bottom="0"
     inkscape:zoom="1.592242"
     inkscape:cx="139.39046"
     inkscape:cy="92.947115"
     inkscape:window-x="0"
     inkscape:window-y="27"
     inkscape:window-maximized="1"
     inkscape:current-layer="svg2985" /><title
     id="title2998">SQLite</title><metadata
     id="metadata2991"><rdf:RDF><cc:Work
         rdf:about=""><dc:format>image/svg+xml</dc:format><dc:type
           rdf:resource="http://purl.org/dc/dcmitype/StillImage" /><dc:title>SQLite</dc:title></cc:Work></rdf:RDF></metadata><defs
     id="defs2989"><linearGradient
       x1="0"
       y1="0"
       x2="1"
       y2="0"
       id="linearGradient3027"
       gradientUnits="userSpaceOnUse"
       gradientTransform="matrix(-4.02e-6,-91.8907,-91.8907,4.02e-6,85.8809,161.434)"
       spreadMethod="pad"><stop
         id="stop3029"
         style="stop-color:#97d9f6;stop-opacity:1"
         offset="0" /><stop
         id="stop3031"
         style="stop-color:#0f80cc;stop-opacity:1"
         offset="0.92024499" /><stop
         id="stop3033"
         style="stop-color:#0f80cc;stop-opacity:1"
         offset="1" /></linearGradient><linearGradient
       x1="-15.614694"
       y1="-9.1082983"
       x2="-6.7410073"
       y2="-9.1082983"
       id="linearGradient5421"
       xlink:href="#linearGradient3027"
       gradientUnits="userSpaceOnUse"
       gradientTransform="matrix(-4.02e-7,-9.18907,-9.18907,4.02e-7,8.58809,16.1434)"
       spreadMethod="pad" /><linearGradient
       x1="-15.614694"
       y1="-9.1082983"
       x2="-6.7410073"
       y2="-9.1082983"
       id="linearGradient2995"
       xlink:href="#linearGradient3027"
       gradientUnits="userSpaceOnUse"
       gradientTransform="matrix(-3.4792321e-7,7.9529617,-7.9529617,-3.4792321e-7,49.55216,178.86586)"
       spreadMethod="pad" /><linearGradient
       inkscape:collect="always"
       xlink:href="#linearGradient3027"
       id="linearGradient4189"
       x1="-219.18779"
       y1="27.046425"
       x2="-219.18779"
       y2="99.271629"
       gradientUnits="userSpaceOnUse"
       gradientTransform="matrix(6.162854,0,0,2.9059828,1242.7366,-89.890304)" /><clipPath
       clipPathUnits="userSpaceOnUse"
       id="clipPath4199"><path
         style="color:#000000;display:inline;overflow:visible;visibility:visible;fill:none;fill-opacity:1;fill-rule:nonzero;stroke:#0093d9;stroke-width:0.99999994;stroke-linecap:round;stroke-linejoin:miter;stroke-miterlimit:4;stroke-dasharray:1.99999991, 3.99999982;stroke-dashoffset:7.51718092;stroke-opacity:1;marker:none;enable-background:accumulate"
         d="m -116.56836,-7.4316406 c -28.93593,16.7550138 -57.87241,33.5090826 -86.80859,50.2636716 -0.008,34.885417 -0.0198,69.770839 -0.0312,104.656249 30.10956,17.45866 60.21743,34.92024 90.32812,52.37695 30.120243,-17.43932 60.239434,-34.88046 90.359377,-52.32031 0.0086,-34.88476 0.02132,-69.76953 0.0332,-104.654295 -30.109368,-17.460299 -60.219041,-34.9200706 -90.328117,-52.3808594 -1.18425,0.6861979 -2.36849,1.3723959 -3.55274,2.0585938 z"
         id="path4201"
         inkscape:connector-curvature="0" /></clipPath></defs><rect
     style="fill:url(#linearGradient4189);fill-opacity:1"
     id="rect4181"
     width="224.49194"
     height="213.53535"
     x="-216.46123"
     y="-12.206399"
     clip-path="url(#clipPath4199)"
     transform="translate(203.40815,9.4902344)" /><g
     id="g4155"
     transform="matrix(0.50715456,0,0,0.50715456,-32.86456,75.229156)"><path
       inkscape:connector-curvature="0"
       style="fill:#003b57;fill-opacity:1;fill-rule:nonzero;stroke:none"
       id="SQLite"
       d="m 147.53125,89.218755 c -4.8225,0 -8.74375,1.4275 -11.75,4.28125 -3.00625,2.85625 -4.53125,6.600135 -4.53125,11.187505 0,2.37738 0.37875,4.545 1.125,6.53125 0.74625,1.99025 1.9075,3.834 3.46875,5.5 1.56125,1.6675 4.68625,3.93263 9.34375,6.8125 5.715,3.48887 9.455,6.32037 11.25,8.53124 1.79625,2.209 2.6875,4.524 2.6875,6.9375 0,3.2315 -1.06375,5.811 -3.25,7.75 -2.19,1.93988 -5.11875,2.90625 -8.75,2.90625 -3.83,0 -7.16625,-1.35012 -10.03125,-4.03125 -2.865,-2.685 -4.31125,-6.23637 -4.34375,-10.6875 l -1.78125,0 0,16.15625 1.78125,0 c 0.54375,-1.52988 1.29625,-2.3125 2.28125,-2.3125 0.47375,0 1.58375,0.32675 3.3125,0.9375 4.20625,1.49662 7.66,2.21875 10.375,2.21875 4.67875,0 8.6725,-1.63862 12,-4.96875 3.3225,-3.32862 5,-7.34375 5,-12.03125 0,-3.63475 -1.1075,-6.86863 -3.28125,-9.68749 -2.17375,-2.82225 -6.40125,-6.10501 -12.71875,-9.875 -5.43625,-3.26614 -8.965,-5.92625 -10.59375,-8 -1.63125,-2.07076 -2.46875,-4.36137 -2.46875,-6.875 0,-2.718755 0.99875,-4.902505 2.96875,-6.531255 1.97,-1.63 4.55125,-2.4375 7.78125,-2.4375 3.635,0 6.665,1.07875 9.0625,3.25 2.395,2.175 3.78,5.189 4.1875,9.062505 l 1.78125,0 0,-14.000005 -1.65625,0 c -0.2025,0.71375 -0.39,1.17 -0.5625,1.375 -0.1675,0.20375 -0.49,0.3125 -0.96875,0.3125 -0.57625,0 -1.60375,-0.2425 -3.0625,-0.71875 -3.125,-1.0525 -6.00625,-1.59375 -8.65625,-1.59375 z m 58.21875,0 c -5.87625,0 -11.21125,1.385 -16.03125,4.15625 -4.8275,2.76625 -8.64875,6.6075 -11.46875,11.500005 -2.81875,4.89212 -4.21875,10.08786 -4.21875,15.625 0,7.43899 2.435,14.06636 7.34375,19.87499 4.91125,5.80513 10.79625,9.42238 17.625,10.8125 1.56125,0.8135 3.795,2.9135 6.71875,6.3125 3.295,3.83587 6.0825,6.6025 8.375,8.25 2.29,1.64837 4.7625,2.8565 7.375,3.65625 2.615,0.79638 5.4425,1.1875 8.5,1.1875 3.7025,0 7.0175,-0.6435 9.9375,-1.96875 L 239.25,167 c -1.695,0.61138 -3.5025,0.90625 -5.40625,0.90625 -2.58375,0 -5.195,-0.852 -7.8125,-2.5625 -2.61375,-1.71475 -5.8825,-4.98637 -9.78125,-9.8125 -1.8325,-2.3125 -3.0975,-3.7715 -3.8125,-4.34375 7.47125,-1.459 13.615,-5.08 18.40625,-10.875 4.79,-5.7925 7.1875,-12.40336 7.1875,-19.81249 0,-8.79739 -3.13,-16.19088 -9.34375,-22.218755 -6.21875,-6.0285 -13.86625,-9.0625 -22.9375,-9.0625 z m 36.34375,0 0.0937,1.90625 c 3.9125,0 6.10375,1.1525 6.59375,3.46875 0.1825,0.82875 0.26625,2.359 0.28125,4.5625 l -0.0312,42.156245 c -0.0325,3.1485 -0.48125,5.15875 -1.34375,6.03125 -0.86375,0.86625 -2.32375,1.40875 -4.4375,1.625 l -0.0937,1.90625 39,0 1,-9.5625 -1.78125,0 c -0.50875,2.605 -1.675,4.47113 -3.53125,5.53125 -1.86125,1.06787 -5.1525,1.59375 -9.90625,1.59375 l -3.6875,0 c -4.2775,0 -6.7525,-1.54638 -7.40625,-4.65625 -0.135,-0.61525 -0.18125,-1.27488 -0.1875,-2 l 0.15625,-42.624995 c -10e-4,-3.1435 0.39625,-5.25 1.21875,-6.28125 0.83125,-1.0275 2.33,-1.6025 4.5,-1.75 l -0.0937,-1.90625 -20.34375,0 z m -35.71875,2.3125 c 6.6275,0 12.03875,2.61025 16.21875,7.875 4.17875,5.266635 6.25,12.484875 6.25,21.625005 0,8.66111 -2.10125,15.59612 -6.3125,20.81249 -4.21125,5.21475 -9.81625,7.8125 -16.78125,7.8125 -6.69125,0 -12.1175,-2.67875 -16.28125,-8.0625 -4.16,-5.38375 -6.21875,-12.3735 -6.21875,-20.96874 0,-8.8325 2.08375,-15.90288 6.28125,-21.187505 4.195,-5.279 9.8125,-7.90625 16.84375,-7.90625 z m 89.6875,9.062505 c -0.95125,0 -1.67625,0.32125 -2.21875,0.96875 -0.555,0.64499 -0.725,1.42624 -0.53125,2.375 0.1875,0.92037 0.70625,1.727 1.53125,2.40625 0.82,0.67861 1.705,1.03125 2.65625,1.03125 0.92,0 1.62125,-0.35262 2.125,-1.03125 0.50375,-0.67925 0.6575,-1.48588 0.46875,-2.40625 -0.19375,-0.94876 -0.695,-1.73001 -1.46875,-2.375 -0.7825,-0.6475 -1.6425,-0.96875 -2.5625,-0.96875 z m 25.71875,6.46875 c -1.61625,6.21774 -5.12,9.58249 -10.5,10.125 l 0.0625,1.78125 6.28125,0 -0.125,21.06249 c 0.01,3.601 0.12,5.9985 0.375,7.21875 0.61875,2.92138 2.52625,4.40625 5.71875,4.40625 4.61875,0 9.46375,-2.8135 14.53125,-8.4375 l -1.53125,-1.3125 c -3.65875,3.70363 -6.89375,5.5625 -9.71875,5.5625 -1.73625,0 -2.8125,-0.9985 -3.21875,-2.96875 C 323.545,144.0215 323.5,143.46238 323.5,142.8125 l 0.0625,-23.84374 9.59375,0 -0.0937,-2.84375 -9.46875,0 0,-9.0625 -1.8125,0 z m 37.09375,7.9375 c -5.36625,0 -9.73125,2.605 -13.125,7.78125 -3.37625,5.185 -4.42125,10.92961 -3.09375,17.24999 0.78125,3.70212 2.3375,6.57138 4.71875,8.59375 2.3775,2.0215 5.39375,3.03125 9,3.03125 3.3575,0 8.0325,-0.85012 10,-2.5625 1.9725,-1.71138 3.79,-4.48388 5.46875,-8.28125 L 370.5,139.40625 c -2.6775,4.92625 -8.08125,7.40625 -12.15625,7.40625 -5.6025,0 -9.03375,-3.07375 -10.3125,-9.1875 -0.16625,-0.78038 -0.29,-1.61875 -0.375,-2.5 6.665,-1.05525 11.71625,-2.92388 15.125,-5.625 3.40625,-2.70261 6.82625,-5.56737 6.1875,-8.59374 -0.38,-1.79838 -1.31375,-3.21238 -2.75,-4.28125 -1.455,-1.06837 -5.2325,-1.625 -7.34375,-1.625 z m -58.65625,0.21875 -11.5625,2.65625 0,2.0625 4,-0.5 c 1.9375,0 3.0775,0.87738 3.4375,2.625 0.12125,0.58488 0.1975,1.40625 0.21875,2.4375 l -0.125,18.90624 c -0.0325,2.61625 -0.3225,4.13712 -0.90625,4.59375 -0.58875,0.4575 -2.14125,0.6875 -4.65625,0.6875 l -0.0625,1.78125 18.34375,0 -0.0312,-1.78125 c -2.54875,0 -4.20125,-0.20112 -4.9375,-0.59375 -0.72375,-0.39012 -1.2225,-1.10012 -1.4375,-2.1875 -0.16625,-0.78363 -0.23875,-2.13387 -0.25,-4 l 0.0625,-26.68749 -2.09375,0 z m 55.71875,3.5 c 1.11625,0 2.195,0.43112 3.28125,1.28125 1.07125,0.84713 1.72375,1.78912 1.9375,2.8125 1.04625,5.02638 -3.41,8.50136 -13.4375,10.43749 -0.28625,-3.66512 0.34875,-6.99224 1.96875,-9.99999 1.6075,-3.00488 3.70125,-4.53125 6.25,-4.53125 z" /></g><path
     inkscape:connector-curvature="0"
     d="m 93.86299,28.783981 c -4.7186,-4.207967 -10.43164,-2.517683 -16.07024,2.486526 -0.83692,0.743447 -1.67211,1.56825 -2.50297,2.44931 -9.64579,10.232577 -18.59918,29.186603 -21.38084,43.661766 1.08358,2.197456 1.93002,5.001613 2.48739,7.143676 0.14281,0.54958 0.27176,1.06541 0.37476,1.50421 0.24493,1.03849 0.37648,1.71192 0.37648,1.71192 0,0 -0.0865,-0.32724 -0.44139,-1.35621 -0.0675,-0.19733 -0.14281,-0.41283 -0.23195,-0.66642 -0.0381,-0.10472 -0.0909,-0.23195 -0.14887,-0.36783 -0.6292,-1.46266 -2.36968,-4.549832 -3.13563,-5.893923 -0.65517,1.932618 -1.23418,3.740603 -1.71885,5.376363 2.21131,4.04595 3.55886,10.97966 3.55886,10.97966 0,0 -0.11684,-0.44935 -0.67248,-2.01769 -0.49332,-1.38711 -2.95042,-5.69218 -3.53246,-6.69865 -0.99565,3.67553 -1.39126,6.15703 -1.03451,6.76122 0.69265,1.17074 1.35232,3.19077 1.93158,5.42475 1.30861,5.032681 2.21823,11.159331 2.21823,11.159331 0,0 0.0294,0.40599 0.0788,1.03078 -0.18175,4.22632 -0.0727,8.60816 0.25445,12.56877 0.43361,5.24291 1.24975,9.74679 2.29006,12.15723 l 0.70623,-0.38505 c -1.52757,-4.74898 -2.14812,-10.97265 -1.87636,-18.15008 0.4111,-10.97091 2.93571,-24.201341 7.60065,-37.991129 7.88107,-20.81654 18.81555,-37.518586 28.8231,-45.494855 -9.1213,8.237645 -21.46651,34.902237 -25.16211,44.776506 -4.13787,11.057377 -7.07012,21.433718 -8.83743,31.375218 3.04909,-9.32008 12.90778,-13.326311 12.90778,-13.326311 0,0 4.83544,-5.96342 10.48616,-14.48313 -3.38489,0.77201 -8.94301,2.0936 -10.80466,2.87599 -2.74617,1.15196 -3.48615,1.54489 -3.48615,1.54489 0,0 8.89541,-5.417045 16.52722,-7.869817 10.49568,-16.53068 21.93041,-40.014632 10.41519,-50.287021"
     id="feather"
     style="fill:#003b57;fill-opacity:1;fill-rule:nonzero;stroke:none" /><path
     inkscape:transform-center-y="-1.5566024"
     inkscape:transform-center-x="0.34789098"
     d="m 211.60827,74.824 -0.0332,103.56153 -89.70351,51.75202 -89.670315,-51.80951 0.03319,-103.561527 89.703505,-51.752019 z"
     inkscape:randomized="0"
     inkscape:rounded="0"
     inkscape:flatsided="true"
     sodipodi:arg2="0.0003204856"
     sodipodi:arg1="-0.52327829"
     sodipodi:r2="103.56153"
     sodipodi:r1="103.56153"
     sodipodi:cy="126.57602"
     sodipodi:cx="121.90476"
     sodipodi:sides="6"
     id="path7936"
     style="color:#000000;display:inline;overflow:visible;visibility:visible;fill:none;fill-opacity:1;fill-rule:nonzero;stroke:#0093d9;stroke-width:1.16022968;stroke-linecap:round;stroke-linejoin:miter;stroke-miterlimit:4;stroke-dasharray:2.32045933, 4.64091866;stroke-dashoffset:7.51718092;stroke-opacity:1;marker:none;enable-background:accumulate"
     sodipodi:type="star"
     transform="matrix(0.86033583,0,0,0.86346357,-14.51903,-4.6142136)" /></svg>