<?xml version="1.0" encoding="UTF-8" standalone="no"?>
<!-- Generator: Adobe Illustrator 19.1.0, SVG Export Plug-In . SVG Version: 6.00 Build 0)  -->

<svg
   xmlns:dc="http://purl.org/dc/elements/1.1/"
   xmlns:cc="http://creativecommons.org/ns#"
   xmlns:rdf="http://www.w3.org/1999/02/22-rdf-syntax-ns#"
   xmlns:svg="http://www.w3.org/2000/svg"
   xmlns="http://www.w3.org/2000/svg"
   xmlns:sodipodi="http://sodipodi.sourceforge.net/DTD/sodipodi-0.dtd"
   xmlns:inkscape="http://www.inkscape.org/namespaces/inkscape"
   version="1.1"
   id="Layer_1"
   x="0px"
   y="0px"
   viewBox="0 0 180.72081 209.35547"
   xml:space="preserve"
   inkscape:version="0.91 r13725"
   sodipodi:docname="angular_complete.svg"
   width="180.72081"
   height="209.35547"><metadata
     id="metadata13354"><rdf:RDF><cc:Work
         rdf:about=""><dc:format>image/svg+xml</dc:format><dc:type
           rdf:resource="http://purl.org/dc/dcmitype/StillImage" /><dc:title></dc:title></cc:Work></rdf:RDF></metadata><defs
     id="defs13352"><clipPath
       clipPathUnits="userSpaceOnUse"
       id="clipPath13923"><path
         style="color:#000000;display:inline;overflow:visible;visibility:visible;fill:none;fill-opacity:1;fill-rule:nonzero;stroke:#0093d9;stroke-width:0.54324949;stroke-linecap:round;stroke-linejoin:miter;stroke-miterlimit:4;stroke-dasharray:1.08649901, 2.17299802;stroke-dashoffset:7.51718092;stroke-opacity:1;marker:none;enable-background:accumulate"
         d="m 123.08589,74.252199 c -15.71809,9.10269 -31.437864,18.202915 -47.156606,27.304651 -0.0047,18.95149 -0.01158,37.90298 -0.01804,56.85446 16.357006,9.48441 32.713096,18.97041 49.070716,28.45376 16.36313,-9.47395 32.72578,-18.94875 49.08875,-28.42299 0.004,-18.95113 0.0108,-37.90226 0.017,-56.85339 -16.3569,-9.485304 -32.71397,-18.970317 -49.07071,-28.455882 -0.6437,0.37313 -1.28739,0.74626 -1.93109,1.119391 z"
         id="path13925"
         inkscape:connector-curvature="0" /></clipPath><clipPath
       clipPathUnits="userSpaceOnUse"
       id="clipPath13927"><path
         style="color:#000000;display:inline;overflow:visible;visibility:visible;fill:none;fill-opacity:1;fill-rule:nonzero;stroke:#0093d9;stroke-width:0.66009897;stroke-linecap:round;stroke-linejoin:miter;stroke-miterlimit:4;stroke-dasharray:1.32019799, 2.64039598;stroke-dashoffset:7.51718092;stroke-opacity:1;marker:none;enable-background:accumulate"
         d="m 154.31896,62.261204 c -19.09895,11.060621 -38.19994,22.118245 -57.299687,33.177712 -0.0057,23.027834 -0.01407,46.055664 -0.02191,69.083494 19.875287,11.52444 39.749467,23.05081 59.625507,34.57397 19.88274,-11.51174 39.76488,-23.0245 59.64742,-34.53658 0.005,-23.02741 0.0131,-46.0548 0.0207,-69.082206 -19.87517,-11.525526 -39.75054,-23.050705 -59.62551,-34.576555 -0.78215,0.453389 -1.5643,0.906777 -2.34645,1.360165 z"
         id="path13929"
         inkscape:connector-curvature="0" /></clipPath></defs><sodipodi:namedview
     pagecolor="#ffffff"
     bordercolor="#666666"
     borderopacity="1"
     objecttolerance="10"
     gridtolerance="10"
     guidetolerance="10"
     inkscape:pageopacity="0"
     inkscape:pageshadow="2"
     inkscape:window-width="1366"
     inkscape:window-height="704"
     id="namedview13350"
     showgrid="false"
     fit-margin-top="0"
     fit-margin-left="0"
     fit-margin-right="0"
     fit-margin-bottom="0"
     inkscape:zoom="1.888"
     inkscape:cx="143.20847"
     inkscape:cy="93.121562"
     inkscape:window-x="0"
     inkscape:window-y="27"
     inkscape:window-maximized="1"
     inkscape:current-layer="Layer_1" /><style
     type="text/css"
     id="style13340">
	.st0{fill:#DD0031;}
	.st1{fill:#C3002F;}
	.st2{fill:#FFFFFF;}
</style><polygon
     style="fill:#dd0031"
     id="polygon13344"
     points="125,230 125,230 203.9,186.3 218.1,63.2 125,30 125,30 125,30 31.9,63.2 46.1,186.3 125,230 "
     class="st0"
     transform="matrix(1.5149242,0,0,1.5149242,-146.94365,-92.260458)"
     clip-path="url(#clipPath13927)" /><polygon
     style="fill:#c3002f"
     id="polygon13346"
     points="125,230 203.9,186.3 218.1,63.2 125,30 125,30 125,52.2 125,52.1 125,153.4 125,153.4 125,230 "
     class="st1"
     transform="matrix(1.8407747,0,0,1.8407747,-139.73551,-134.62102)"
     clip-path="url(#clipPath13923)" /><path
     style="fill:#ffffff"
     inkscape:connector-curvature="0"
     id="path13348"
     d="m 90.361317,26.779688 -58.2,130.500002 0,0 21.7,0 0,0 11.7,-29.2 49.400003,0 11.7,29.2 0,0 21.7,0 0,0 -58.000003,-130.500002 0,0 0,0 0,0 0,0 z m 17.000003,83.300002 -34.000003,0 17,-40.900002 17.000003,40.900002 z"
     class="st2" /><path
     transform="matrix(0.86033589,0,0,0.86346349,-14.517725,-4.6140828)"
     sodipodi:type="star"
     style="color:#000000;display:inline;overflow:visible;visibility:visible;fill:none;fill-opacity:1;fill-rule:nonzero;stroke:#0093d9;stroke-width:1.16022968;stroke-linecap:round;stroke-linejoin:miter;stroke-miterlimit:4;stroke-dasharray:2.32045933, 4.64091866;stroke-dashoffset:7.51718092;stroke-opacity:1;marker:none;enable-background:accumulate"
     id="path11964"
     sodipodi:sides="6"
     sodipodi:cx="121.90476"
     sodipodi:cy="126.57602"
     sodipodi:r1="103.56153"
     sodipodi:r2="103.56153"
     sodipodi:arg1="-0.52327829"
     sodipodi:arg2="0.0003204856"
     inkscape:flatsided="true"
     inkscape:rounded="0"
     inkscape:randomized="0"
     d="m 211.60827,74.824 -0.0332,103.56153 -89.70351,51.75202 -89.670315,-51.80951 0.03319,-103.561527 89.703505,-51.752019 z"
     inkscape:transform-center-x="0.34789098"
     inkscape:transform-center-y="-1.5566024" /></svg>