<?xml version="1.0" encoding="UTF-8" standalone="no"?>
<svg
   xmlns:dc="http://purl.org/dc/elements/1.1/"
   xmlns:cc="http://creativecommons.org/ns#"
   xmlns:rdf="http://www.w3.org/1999/02/22-rdf-syntax-ns#"
   xmlns:svg="http://www.w3.org/2000/svg"
   xmlns="http://www.w3.org/2000/svg"
   xmlns:xlink="http://www.w3.org/1999/xlink"
   xmlns:sodipodi="http://sodipodi.sourceforge.net/DTD/sodipodi-0.dtd"
   xmlns:inkscape="http://www.inkscape.org/namespaces/inkscape"
   width="180.72066"
   height="209.35547"
   viewBox="0 0 180.72066 209.35547"
   version="1.1"
   preserveAspectRatio="xMidYMid"
   id="svg2"
   inkscape:version="0.91 r13725"
   sodipodi:docname="scala_complete.svg">
  <metadata
     id="metadata30">
    <rdf:RDF>
      <cc:Work
         rdf:about="">
        <dc:format>image/svg+xml</dc:format>
        <dc:type
           rdf:resource="http://purl.org/dc/dcmitype/StillImage" />
        <dc:title></dc:title>
      </cc:Work>
    </rdf:RDF>
  </metadata>
  <sodipodi:namedview
     pagecolor="#ffffff"
     bordercolor="#666666"
     borderopacity="1"
     objecttolerance="10"
     gridtolerance="10"
     guidetolerance="10"
     inkscape:pageopacity="0"
     inkscape:pageshadow="2"
     inkscape:window-width="1366"
     inkscape:window-height="704"
     id="namedview28"
     showgrid="false"
     fit-margin-top="0"
     fit-margin-left="0"
     fit-margin-right="0"
     fit-margin-bottom="0"
     inkscape:zoom="1.6045885"
     inkscape:cx="-35.378814"
     inkscape:cy="120.12108"
     inkscape:window-x="0"
     inkscape:window-y="27"
     inkscape:window-maximized="1"
     inkscape:current-layer="svg2" />
  <defs
     id="defs4">
    <linearGradient
       x1="0"
       y1="0.5"
       x2="1"
       y2="0.5"
       id="linearGradient-1">
      <stop
         stop-color="#4F4F4F"
         offset="0%"
         id="stop7" />
      <stop
         stop-color="#000000"
         offset="100%"
         id="stop9" />
    </linearGradient>
    <linearGradient
       x1="0"
       y1="0.5"
       x2="1"
       y2="0.5"
       id="linearGradient-2">
      <stop
         stop-color="#C40000"
         offset="0%"
         id="stop12" />
      <stop
         stop-color="#FF0000"
         offset="100%"
         id="stop14" />
    </linearGradient>
    <linearGradient
       inkscape:collect="always"
       xlink:href="#linearGradient-1"
       id="linearGradient4164"
       x1="0"
       y1="444.17413"
       x2="156.76733"
       y2="444.17413"
       gradientTransform="scale(1.6329932,0.61237244)"
       gradientUnits="userSpaceOnUse" />
    <linearGradient
       inkscape:collect="always"
       xlink:href="#linearGradient-1"
       id="linearGradient4166"
       x1="0"
       y1="235.15102"
       x2="156.76733"
       y2="235.15102"
       gradientTransform="scale(1.6329932,0.61237244)"
       gradientUnits="userSpaceOnUse" />
    <linearGradient
       inkscape:collect="always"
       xlink:href="#linearGradient-2"
       id="linearGradient4168"
       x1="0"
       y1="263.1015"
       x2="202.38577"
       y2="263.1015"
       gradientTransform="scale(1.2649111,0.79056942)"
       gradientUnits="userSpaceOnUse" />
    <linearGradient
       inkscape:collect="always"
       xlink:href="#linearGradient-2"
       id="linearGradient4170"
       x1="0"
       y1="101.19289"
       x2="202.38577"
       y2="101.19289"
       gradientTransform="scale(1.2649111,0.79056942)"
       gradientUnits="userSpaceOnUse" />
    <linearGradient
       inkscape:collect="always"
       xlink:href="#linearGradient-2"
       id="linearGradient4172"
       x1="0"
       y1="425.01013"
       x2="202.38577"
       y2="425.01013"
       gradientTransform="scale(1.2649111,0.79056942)"
       gradientUnits="userSpaceOnUse" />
    <clipPath
       clipPathUnits="userSpaceOnUse"
       id="clipPath4182">
      <path
         style="color:#000000;display:inline;overflow:visible;visibility:visible;fill:none;fill-opacity:1;fill-rule:nonzero;stroke:#0093d9;stroke-width:0.99999994;stroke-linecap:round;stroke-linejoin:miter;stroke-miterlimit:4;stroke-dasharray:1.99999991, 3.99999982;stroke-dashoffset:7.51718092;stroke-opacity:1;marker:none;enable-background:accumulate"
         d="m 315.52734,184.70312 c -28.93347,16.75601 -57.87002,33.50747 -86.80468,50.26172 -0.009,34.88542 -0.0213,69.77084 -0.0332,104.65625 30.10957,17.45866 60.21744,34.92024 90.32813,52.37696 30.12084,-17.43942 60.24078,-34.88039 90.36133,-52.32032 0.008,-34.88476 0.0198,-69.76953 0.0312,-104.65429 -30.10937,-17.4603 -60.21905,-34.92007 -90.32813,-52.38086 -1.18489,0.68685 -2.36979,1.3737 -3.55469,2.06054 z"
         id="path4184"
         inkscape:connector-curvature="0" />
    </clipPath>
  </defs>
  <rect
     style="fill:#002b36;fill-opacity:1"
     id="rect4174"
     width="273.59039"
     height="287.30109"
     x="172.00671"
     y="149.88815"
     clip-path="url(#clipPath4182)"
     transform="translate(-228.68946,-182.64258)" />
  <g
     id="g16"
     transform="matrix(0.30773305,0,0,0.30773305,50.97155,40.67098)">
    <path
       d="m 0,288 0,-32 c 0,-5.39378 116.37689,-14.42844 192.19911,-32 l 0,0 C 228.82844,232.49067 256,242.96889 256,256 l 0,0 0,32 c 0,13.024 -27.17156,23.50933 -63.80089,32 l 0,0 C 116.37689,302.42489 0,293.39022 0,288"
       transform="matrix(1,0,0,-1,0,544)"
       id="path18"
       style="fill:url(#linearGradient4164)"
       inkscape:connector-curvature="0" />
    <path
       d="m 0,160 0,-32 c 0,-5.39378 116.37689,-14.42844 192.19911,-32 l 0,0 C 228.82844,104.49067 256,114.96889 256,128 l 0,0 0,32 c 0,13.024 -27.17156,23.50933 -63.80089,32 l 0,0 C 116.37689,174.42489 0,165.39022 0,160"
       transform="matrix(1,0,0,-1,0,288)"
       id="path20"
       style="fill:url(#linearGradient4166)"
       inkscape:connector-curvature="0" />
    <path
       d="m 0,224 0,-96 c 0,8 256,24 256,64 l 0,0 0,96 C 256,248 0,232 0,224"
       transform="matrix(1,0,0,-1,0,416)"
       id="path22"
       style="fill:url(#linearGradient4168)"
       inkscape:connector-curvature="0" />
    <path
       d="M 0,96 0,0 c 0,8 256,24 256,64 l 0,0 0,96 C 256,120 0,104 0,96"
       transform="matrix(1,0,0,-1,0,160)"
       id="path24"
       style="fill:url(#linearGradient4170)"
       inkscape:connector-curvature="0" />
    <path
       d="m 0,352 0,-96 c 0,8 256,24 256,64 l 0,0 0,96 C 256,376 0,360 0,352"
       transform="matrix(1,0,0,-1,0,672)"
       id="path26"
       style="fill:url(#linearGradient4172)"
       inkscape:connector-curvature="0" />
  </g>
  <path
     inkscape:transform-center-y="-1.5566024"
     inkscape:transform-center-x="0.34789098"
     d="m 211.60827,74.824 -0.0332,103.56153 -89.70351,51.75202 -89.670315,-51.80951 0.03319,-103.561527 89.703505,-51.752019 z"
     inkscape:randomized="0"
     inkscape:rounded="0"
     inkscape:flatsided="true"
     sodipodi:arg2="0.0003204856"
     sodipodi:arg1="-0.52327829"
     sodipodi:r2="103.56153"
     sodipodi:r1="103.56153"
     sodipodi:cy="126.57602"
     sodipodi:cx="121.90476"
     sodipodi:sides="6"
     id="path7936"
     style="color:#000000;display:inline;overflow:visible;visibility:visible;fill:none;fill-opacity:1;fill-rule:nonzero;stroke:#0093d9;stroke-width:1.16022968;stroke-linecap:round;stroke-linejoin:miter;stroke-miterlimit:4;stroke-dasharray:2.32045933, 4.64091866;stroke-dashoffset:7.51718092;stroke-opacity:1;marker:none;enable-background:accumulate"
     sodipodi:type="star"
     transform="matrix(0.86033583,0,0,0.86346357,-14.51765,-4.61433)" />
</svg>
