<?xml version="1.0" encoding="UTF-8" standalone="no"?>
<svg
   xmlns:dc="http://purl.org/dc/elements/1.1/"
   xmlns:cc="http://creativecommons.org/ns#"
   xmlns:rdf="http://www.w3.org/1999/02/22-rdf-syntax-ns#"
   xmlns:svg="http://www.w3.org/2000/svg"
   xmlns="http://www.w3.org/2000/svg"
   xmlns:sodipodi="http://sodipodi.sourceforge.net/DTD/sodipodi-0.dtd"
   xmlns:inkscape="http://www.inkscape.org/namespaces/inkscape"
   x="0px"
   y="0px"
   width="180.72066"
   height="209.35547"
   viewbox="0 0 144 144"
   id="svg2"
   version="1.1"
   inkscape:version="0.91 r13725"
   sodipodi:docname="rust-logo-blk.svg">
  <metadata
     id="metadata10">
    <rdf:RDF>
      <cc:Work
         rdf:about="">
        <dc:format>image/svg+xml</dc:format>
        <dc:type
           rdf:resource="http://purl.org/dc/dcmitype/StillImage" />
        <dc:title></dc:title>
      </cc:Work>
    </rdf:RDF>
  </metadata>
  <defs
     id="defs8">
    <clipPath
       clipPathUnits="userSpaceOnUse"
       id="clipPath4152">
      <path
         style="color:#000000;display:inline;overflow:visible;visibility:visible;fill:none;fill-opacity:1;fill-rule:nonzero;stroke:#0093d9;stroke-width:0.99999994;stroke-linecap:round;stroke-linejoin:miter;stroke-miterlimit:4;stroke-dasharray:1.99999991, 3.99999982;stroke-dashoffset:7.51718092;stroke-opacity:1;marker:none;enable-background:accumulate"
         d="m 73.970703,-44.654297 c -28.935933,16.755014 -57.872414,33.509083 -86.808594,50.263672 -0.0082,34.885417 -0.01982,69.770834 -0.03125,104.656245 30.109563,17.45867 60.217435,34.92024 90.328125,52.37696 30.120846,-17.43941 60.240786,-34.88039 90.361326,-52.32031 0.008,-34.885421 0.0198,-69.770838 0.0312,-104.6562544 -30.10928,-17.4597926 -60.21912,-34.9186236 -90.328122,-52.3789066 -1.184245,0.686198 -2.36849,1.372396 -3.552735,2.058594 z"
         id="path4154"
         inkscape:connector-curvature="0" />
    </clipPath>
  </defs>
  <sodipodi:namedview
     pagecolor="#ffffff"
     bordercolor="#666666"
     borderopacity="1"
     objecttolerance="10"
     gridtolerance="10"
     guidetolerance="10"
     inkscape:pageopacity="0"
     inkscape:pageshadow="2"
     inkscape:window-width="1366"
     inkscape:window-height="704"
     id="namedview6"
     showgrid="false"
     fit-margin-top="0"
     fit-margin-left="0"
     fit-margin-right="0"
     fit-margin-bottom="0"
     inkscape:zoom="1.6388889"
     inkscape:cx="84.869141"
     inkscape:cy="90.64258"
     inkscape:window-x="0"
     inkscape:window-y="27"
     inkscape:window-maximized="1"
     inkscape:current-layer="svg2" />
  <rect
     style="fill:#ffffff;fill-opacity:1"
     id="rect4144"
     width="279.45764"
     height="267.25424"
     x="-61.627117"
     y="-87.864403"
     clip-path="url(#clipPath4152)"
     transform="translate(12.869141,46.712891)" />
  <path
     d="m 86.230462,54.221289 a 3.9241073,3.9241073 0 0 1 7.848214,0 3.9241073,3.9241073 0 0 1 -7.848214,0 M 39.417679,89.75037 a 3.9241075,3.9241075 0 1 1 7.848215,0 3.9241075,3.9241075 0 0 1 -7.848215,0 m 93.624301,0.183074 a 3.9241073,3.9241073 0 0 1 7.84821,0 3.9241073,3.9241073 0 0 1 -7.84821,0 m -82.264844,5.376078 c 1.805494,-0.80174 2.621122,-2.917829 1.819382,-4.72711 l -1.741101,-3.936733 6.846986,0 0,30.862571 -13.813918,0 a 48.312731,48.312731 0 0 1 -1.56434,-18.442544 z m 28.641691,0.758812 0,-9.096909 16.304995,0 c 0.842142,0 5.946768,0.973451 5.946768,4.790239 0,3.169083 -3.915273,4.305407 -7.134859,4.305407 z M 57.15823,145.04771 a 3.9241075,3.9241075 0 1 1 7.848215,0 3.9241075,3.9241075 0 0 1 -7.848215,0 m 58.1432,0.18307 a 3.9241073,3.9241073 0 0 1 7.84821,0 3.9241073,3.9241073 0 0 1 -7.84821,0 m 1.21334,-8.89868 c -1.93301,-0.41413 -3.83446,0.81563 -4.24859,2.75243 l -1.96963,9.1916 a 48.312731,48.312731 0 0 1 -40.290277,-0.19317 l -1.968367,-9.19161 c -0.414127,-1.93427 -2.315577,-3.16655 -4.247329,-2.75116 l -8.114619,1.74236 a 48.312731,48.312731 0 0 1 -4.195563,-4.94554 l 39.483489,0 c 0.446955,0 0.744924,-0.0808 0.744924,-0.48735 l 0,-13.96669 c 0,-0.40656 -0.297969,-0.48736 -0.744924,-0.48736 l -11.547582,0 0,-8.85323 12.489469,0 c 1.140113,0 6.09575,0.32574 7.680291,6.66012 0.496198,1.94817 1.585808,8.28507 2.330728,10.31404 0.7424,2.27518 3.76502,6.82047 6.98587,6.82047 l 20.38566,0 a 48.312731,48.312731 0 0 1 -4.47459,5.17912 z m 21.92475,-36.876256 a 48.312731,48.312731 0 0 1 0.10227,8.387336 l -4.9569,0 c -0.49619,0 -0.69568,0.32575 -0.69568,0.81184 l 0,2.27644 c 0,5.3584 -3.02136,6.52376 -5.669,6.82047 -2.52138,0.28408 -5.31674,-1.05552 -5.66142,-2.59839 -1.48732,-8.36588 -3.96577,-10.15243 -7.87978,-13.23945 4.85716,-3.084487 9.91127,-7.634836 9.91127,-13.725535 0,-6.576794 -4.50868,-10.719328 -7.58181,-12.750824 -4.31172,-2.842074 -9.08554,-3.411499 -10.37338,-3.411499 l -51.264643,0 A 48.312731,48.312731 0 0 1 81.39982,56.771707 l 6.042721,6.339428 c 1.366115,1.430506 3.628663,1.483535 5.057907,0.116158 l 6.761131,-6.466949 A 48.312731,48.312731 0 0 1 132.3362,80.316351 l -4.62863,10.454186 c -0.79922,1.809281 0.0164,3.925369 1.82064,4.72711 z m 11.5438,0.169186 -0.15783,-1.616106 4.76752,-4.446817 c 0.96966,-0.904009 0.6073,-2.723391 -0.63256,-3.185496 l -6.09449,-2.278962 -0.47725,-1.573178 3.80163,-5.280122 c 0.77523,-1.073195 0.0631,-2.78652 -1.24238,-3.001159 l -6.42654,-1.045419 -0.7727,-1.443132 2.70066,-5.927826 c 0.55301,-1.207029 -0.47473,-2.751168 -1.80297,-2.700665 l -6.5225,0.227265 -1.03027,-1.249957 1.49869,-6.353316 c 0.30302,-1.29036 -1.00628,-2.600921 -2.29664,-2.297901 l -6.35205,1.497423 -1.25249,-1.030267 0.22853,-6.522503 c 0.0505,-1.320662 -1.4949,-2.352192 -2.6994,-1.804231 l -5.92656,2.701927 -1.44314,-0.773963 -1.04794,-6.427809 c -0.21211,-1.302986 -1.9267,-2.015083 -2.9999,-1.242382 l -5.28391,3.801637 -1.57065,-0.475994 -2.27896,-6.09575 c -0.46211,-1.242381 -2.28275,-1.599692 -3.18423,-0.635079 l -4.44682,4.771301 -1.616106,-0.157823 -3.434225,-5.549052 c -0.69442,-1.123698 -2.554205,-1.123698 -3.2461,0 l -3.434225,5.549052 -1.617369,0.157823 -4.448079,-4.771301 c -0.901484,-0.964613 -2.722129,-0.607302 -3.184234,0.635079 l -2.278962,6.09575 -1.571916,0.475994 -5.282646,-3.801637 c -1.073195,-0.775226 -2.789045,-0.0606 -3.001159,1.242382 l -1.047944,6.427809 -1.443132,0.773963 -5.926564,-2.701927 c -1.204504,-0.550486 -2.749905,0.483569 -2.699402,1.804231 l 0.227265,6.522503 -1.252482,1.030267 -6.352054,-1.497423 c -1.29036,-0.300495 -2.600921,1.007541 -2.297901,2.297901 l 1.496161,6.353316 -1.027743,1.249957 -6.522502,-0.227265 c -1.315612,-0.03788 -2.352192,1.493636 -1.804231,2.700665 l 2.701927,5.927826 -0.773963,1.443132 -6.426547,1.045419 c -1.30551,0.212114 -2.012557,1.927964 -1.242381,3.001159 l 3.801637,5.280122 -0.477257,1.573178 -6.09575,2.278962 c -1.237331,0.462105 -1.599692,2.281487 -0.632554,3.185496 l 4.768776,4.446817 -0.157823,1.616106 -5.547789,3.43422 c -1.123699,0.69443 -1.123699,2.55421 0,3.2461 l 5.547789,3.43423 0.157823,1.61611 -4.768776,4.44808 c -0.967138,0.90148 -0.604777,2.7196 0.632554,3.18423 l 6.09575,2.27896 0.477257,1.57318 -3.801637,5.28138 c -0.772701,1.07572 -0.06187,2.79031 1.243644,2.9999 l 6.425284,1.04542 0.773963,1.44566 -2.701927,5.9253 c -0.550486,1.2045 0.488619,2.75369 1.804231,2.70066 l 6.519977,-0.22853 1.030268,1.25249 -1.496161,6.35457 c -0.30302,1.28784 1.007541,2.59588 2.297901,2.29286 l 6.352054,-1.49617 1.252482,1.02775 -0.227265,6.52376 c -0.0505,1.32066 1.494898,2.35346 2.699402,1.80297 l 5.926564,-2.70066 1.443132,0.77396 1.047944,6.42402 c 0.212114,1.30804 1.927964,2.01508 3.001159,1.24491 l 5.280121,-3.80416 1.573178,0.47851 2.278962,6.09323 c 0.462106,1.23733 2.28275,1.60222 3.184234,0.63255 l 4.448079,-4.76877 1.617369,0.16161 3.434225,5.54779 c 0.691896,1.11865 2.55168,1.12117 3.246101,0 l 3.434225,-5.54779 1.616106,-0.16161 4.446812,4.76877 c 0.90149,0.96967 2.72213,0.60478 3.18424,-0.63255 l 2.27896,-6.09323 1.57318,-0.47851 5.28138,3.80416 c 1.0732,0.77017 2.78778,0.0606 2.9999,-1.24491 l 1.04794,-6.42402 1.44313,-0.77396 5.92657,2.70066 c 1.2045,0.55049 2.74738,-0.47978 2.6994,-1.80297 l -0.22727,-6.52376 1.25122,-1.02775 6.35206,1.49617 c 1.29036,0.30302 2.59966,-1.00502 2.29664,-2.29286 l -1.49617,-6.35457 1.02775,-1.25249 6.5225,0.22853 c 1.31561,0.053 2.35598,-1.49616 1.80297,-2.70066 l -2.70067,-5.9253 0.7727,-1.44566 6.42655,-1.04542 c 1.30804,-0.20959 2.01761,-1.92418 1.24238,-2.9999 l -3.80163,-5.28138 0.47725,-1.57318 6.09449,-2.27896 c 1.23986,-0.46463 1.60222,-2.28275 0.63255,-3.18423 l -4.76751,-4.44808 0.15782,-1.61611 5.54779,-3.43423 c 1.1237,-0.69189 1.12496,-2.55167 0.001,-3.2461 z"
     id="path4"
     inkscape:connector-curvature="0" />
  <path
     inkscape:transform-center-y="-1.5566024"
     inkscape:transform-center-x="0.34789098"
     d="m 211.60827,74.824 -0.0332,103.56153 -89.70351,51.75202 -89.670315,-51.80951 0.03319,-103.561527 89.703505,-51.752019 z"
     inkscape:randomized="0"
     inkscape:rounded="0"
     inkscape:flatsided="true"
     sodipodi:arg2="0.0003204856"
     sodipodi:arg1="-0.52327829"
     sodipodi:r2="103.56153"
     sodipodi:r1="103.56153"
     sodipodi:cy="126.57602"
     sodipodi:cx="121.90476"
     sodipodi:sides="6"
     id="path7936"
     style="color:#000000;display:inline;overflow:visible;visibility:visible;fill:none;fill-opacity:1;fill-rule:nonzero;stroke:#0093d9;stroke-width:1.16022968;stroke-linecap:round;stroke-linejoin:miter;stroke-miterlimit:4;stroke-dasharray:2.32045933, 4.64091866;stroke-dashoffset:7.51718092;stroke-opacity:1;marker:none;enable-background:accumulate"
     sodipodi:type="star"
     transform="matrix(0.86033583,0,0,0.86346357,-14.518368,-4.614789)" />
</svg>
