<?xml version="1.0" encoding="UTF-8" standalone="no"?>
<!-- Generator: Adobe Illustrator 18.1.0, SVG Export Plug-In . SVG Version: 6.00 Build 0)  -->

<svg
   xmlns:dc="http://purl.org/dc/elements/1.1/"
   xmlns:cc="http://creativecommons.org/ns#"
   xmlns:rdf="http://www.w3.org/1999/02/22-rdf-syntax-ns#"
   xmlns:svg="http://www.w3.org/2000/svg"
   xmlns="http://www.w3.org/2000/svg"
   xmlns:sodipodi="http://sodipodi.sourceforge.net/DTD/sodipodi-0.dtd"
   xmlns:inkscape="http://www.inkscape.org/namespaces/inkscape"
   version="1.1"
   id="Layer_1"
   x="0px"
   y="0px"
   viewBox="0 0 180.7226 209.35547"
   enable-background="new 0 0 320 240"
   xml:space="preserve"
   inkscape:version="0.91 r13725"
   sodipodi:docname="javascript_complete.svg"
   width="180.7226"
   height="209.35547"
   inkscape:export-filename="/home/mc/Papers/Projects/Forks/hexbin/hexagons/javascript.png"
   inkscape:export-xdpi="90"
   inkscape:export-ydpi="90"><metadata
     id="metadata65"><rdf:RDF><cc:Work
         rdf:about=""><dc:format>image/svg+xml</dc:format><dc:type
           rdf:resource="http://purl.org/dc/dcmitype/StillImage" /><dc:title /></cc:Work></rdf:RDF></metadata><defs
     id="defs63"><clipPath
       clipPathUnits="userSpaceOnUse"
       id="clipPath5399"><path
         style="color:#000000;display:inline;overflow:visible;visibility:visible;fill:none;fill-opacity:1;fill-rule:nonzero;stroke:#0093d9;stroke-width:0.68205285;stroke-linecap:round;stroke-linejoin:miter;stroke-miterlimit:4;stroke-dasharray:1.36410571, 2.72821141;stroke-dashoffset:7.51718092;stroke-opacity:1;marker:none;enable-background:accumulate"
         d="m 158.09651,56.374204 c -19.73416,11.42848 -39.47042,22.853864 -59.205393,34.281152 -0.0059,23.793704 -0.01454,47.587404 -0.02265,71.381104 20.536733,11.90778 41.072403,23.81739 61.609893,35.72385 20.5436,-11.89455 41.08648,-23.79033 61.62988,-35.68522 0.006,-23.79326 0.0145,-47.58651 0.0226,-71.37977 -20.53659,-11.908905 -41.07349,-23.817278 -61.60989,-35.726518 -0.80816,0.468468 -1.61632,0.936935 -2.42448,1.405402 z"
         id="path5401"
         inkscape:connector-curvature="0" /></clipPath></defs><sodipodi:namedview
     pagecolor="#ffffff"
     bordercolor="#666666"
     borderopacity="1"
     objecttolerance="10"
     gridtolerance="10"
     guidetolerance="10"
     inkscape:pageopacity="0"
     inkscape:pageshadow="2"
     inkscape:window-width="1366"
     inkscape:window-height="704"
     id="namedview61"
     showgrid="false"
     fit-margin-top="0"
     fit-margin-left="0"
     fit-margin-right="0"
     fit-margin-bottom="0"
     inkscape:zoom="1.8875"
     inkscape:cx="10.805672"
     inkscape:cy="67.465055"
     inkscape:window-x="0"
     inkscape:window-y="27"
     inkscape:window-maximized="1"
     inkscape:current-layer="Layer_1" /><polygon
     points="70,171.7 70,67.2 160.5,15 251,67.2 251,171.7 160.5,224 "
     id="polygon3"
     style="fill:#f7df1e;fill-opacity:1"
     transform="matrix(1.4661619,0,0,1.4661619,-144.95718,-80.593163)"
     clip-path="url(#clipPath5399)" /><path
     inkscape:connector-curvature="0"
     d="m 128.854,131.72294 c 2.81068,4.58922 6.46743,7.96248 12.93488,7.96248 5.43308,0 8.90379,-2.71544 8.90379,-6.46744 0,-4.49619 -3.56595,-6.08869 -9.54612,-8.70446 l -3.27801,-1.40644 c -9.46194,-4.03107 -15.74775,-9.08098 -15.74775,-19.75668 0,-9.834047 7.49291,-17.320323 19.20296,-17.320323 8.33679,0 14.33024,2.901486 18.64924,10.498505 l -10.21057,6.556028 c -2.2481,-4.03107 -4.67338,-5.619136 -8.43867,-5.619136 -3.84059,0 -6.27474,2.436363 -6.27474,5.619136 0,3.93362 2.43636,5.52611 8.06215,7.96248 l 3.27801,1.40423 c 11.14081,4.77749 17.43106,9.64799 17.43106,20.59834 0,11.80528 -9.27368,18.27271 -21.72792,18.27271 -12.17738,0 -20.04462,-5.80298 -23.89407,-13.40885 z m -46.319668,1.13623 c 2.05983,3.65454 3.933612,6.74429 8.438665,6.74429 4.307939,0 7.025584,-1.68551 7.025584,-8.23932 l 0,-44.585436 13.112059,0 0,44.762616 c 0,13.57719 -7.96026,19.75669 -19.579491,19.75669 -10.498504,0 -16.578339,-5.43309 -19.670301,-11.97694 z"
     id="path6" /><path
     transform="matrix(0.86033583,0,0,0.86346349,-14.517236,-4.6143662)"
     inkscape:transform-center-y="-1.5566024"
     inkscape:transform-center-x="0.34789098"
     d="m 211.60827,74.824 -0.0332,103.56153 -89.70351,51.75202 -89.670315,-51.80951 0.03319,-103.561527 89.703505,-51.752019 z"
     inkscape:randomized="0"
     inkscape:rounded="0"
     inkscape:flatsided="true"
     sodipodi:arg2="0.0003204856"
     sodipodi:arg1="-0.52327829"
     sodipodi:r2="103.56153"
     sodipodi:r1="103.56153"
     sodipodi:cy="126.57602"
     sodipodi:cx="121.90476"
     sodipodi:sides="6"
     id="path7936"
     style="color:#000000;display:inline;overflow:visible;visibility:visible;fill:none;fill-opacity:1;fill-rule:nonzero;stroke:#0093d9;stroke-width:1.16022968;stroke-linecap:round;stroke-linejoin:miter;stroke-miterlimit:4;stroke-dasharray:2.32045933, 4.64091866;stroke-dashoffset:7.51718092;stroke-opacity:1;marker:none;enable-background:accumulate"
     sodipodi:type="star" /></svg>