<?xml version="1.0" encoding="UTF-8" standalone="no"?>
<!-- Created with Inkscape (http://www.inkscape.org/) -->

<svg
   xmlns:dc="http://purl.org/dc/elements/1.1/"
   xmlns:cc="http://creativecommons.org/ns#"
   xmlns:rdf="http://www.w3.org/1999/02/22-rdf-syntax-ns#"
   xmlns:svg="http://www.w3.org/2000/svg"
   xmlns="http://www.w3.org/2000/svg"
   xmlns:sodipodi="http://sodipodi.sourceforge.net/DTD/sodipodi-0.dtd"
   xmlns:inkscape="http://www.inkscape.org/namespaces/inkscape"
   version="1.1"
   width="181.72285"
   height="210.51129"
   id="svg2"
   xml:space="preserve"
   inkscape:version="0.91 r13725"
   sodipodi:docname="Hadoop_complete.svg"><sodipodi:namedview
     pagecolor="#ffffff"
     bordercolor="#666666"
     borderopacity="1"
     objecttolerance="10"
     gridtolerance="10"
     guidetolerance="10"
     inkscape:pageopacity="0"
     inkscape:pageshadow="2"
     inkscape:window-width="1366"
     inkscape:window-height="704"
     id="namedview57"
     showgrid="false"
     fit-margin-top="0"
     fit-margin-left="0"
     fit-margin-right="0"
     fit-margin-bottom="0"
     inkscape:zoom="1.2951429"
     inkscape:cx="26.408789"
     inkscape:cy="64.006609"
     inkscape:window-x="0"
     inkscape:window-y="27"
     inkscape:window-maximized="1"
     inkscape:current-layer="svg2" /><title
     id="title3117">Hadoop logo</title><metadata
     id="metadata8"><rdf:RDF><cc:Work
         rdf:about=""><dc:format>image/svg+xml</dc:format><dc:type
           rdf:resource="http://purl.org/dc/dcmitype/StillImage" /><dc:title>Hadoop logo</dc:title><cc:license
           rdf:resource="http://www.apache.org/licenses/LICENSE-2.0.html" /></cc:Work></rdf:RDF></metadata><defs
     id="defs6"><clipPath
       id="clipPath16"><path
         d="m -9,-9 614,0 0,231 -614,0 0,-231 z"
         id="path18"
         inkscape:connector-curvature="0" /></clipPath><clipPath
       id="clipPath116"><path
         d="m 91.7368,146.3253 -9.7039,-1.577 -8.8548,-3.8814 -7.5206,-4.7308 -7.1566,-8.7335 -4.0431,-4.282 -3.9093,-1.4409 -1.034,2.5271 1.8079,2.6096 0.4062,3.6802 1.211,-0.0488 1.3232,-1.2069 -0.3569,3.7488 -1.4667,0.9839 0.0445,1.4286 -3.4744,-1.9655 -3.1462,-3.712 -0.6559,-3.3176 1.3453,-2.6567 1.2549,-4.5133 2.5521,-1.2084 2.6847,0.1318 2.5455,1.4791 -1.698,-8.6122 1.698,-9.5825 -1.8692,-4.4246 -6.1223,-6.5965 1.0885,-3.941 2.9002,-4.5669 5.4688,-3.8486 2.9007,-0.3969 3.225,-0.1094 -2.012,-8.2601 7.3993,-3.0326 9.2188,-1.2129 3.1535,2.0619 0.2427,5.5797 3.5178,5.8224 0.2426,4.6094 8.4909,-0.6066 7.8843,0.7279 -7.8843,-4.7307 1.3343,-5.701 4.9731,-7.763 4.8521,-2.0622 3.8814,1.5769 1.577,3.1538 8.1269,6.1861 1.5769,-1.3343 12.7363,-0.485 2.5473,2.0619 0.2426,3.6391 -0.849,1.5767 -0.6066,9.8251 -4.2454,8.4909 0.7276,3.7605 2.5475,-1.3343 7.1566,-6.6716 3.5175,-0.2424 3.8815,1.5769 3.8818,2.9109 1.9406,6.3077 11.4021,-0.7277 6.914,2.6686 5.5797,5.2157 4.0028,7.5206 0.9706,8.8546 -0.8493,10.3105 -2.1832,9.2185 -2.1836,2.9112 -3.0322,0.9706 -5.3373,-5.8224 -4.8518,-1.6982 -4.2455,7.0353 -4.2454,3.8815 -2.3049,1.4556 -9.2185,7.6419 -7.3993,4.0028 -7.3993,0.6066 -8.6119,-1.4556 -7.5206,-2.7899 -5.2158,-4.2454 -4.1241,-4.9734 -4.2454,-1.2129"
         id="path118"
         inkscape:connector-curvature="0" /></clipPath><clipPath
       id="clipPath128"><path
         d="m 91.7368,146.3253 -9.7039,-1.577 -8.8548,-3.8814 -7.5206,-4.7308 -7.1566,-8.7335 -4.0431,-4.282 -3.9093,-1.4409 -1.034,2.5271 1.8079,2.6096 0.4062,3.6802 1.211,-0.0488 1.3232,-1.2069 -0.3569,3.7488 -1.4667,0.9839 0.0445,1.4286 -3.4744,-1.9655 -3.1462,-3.712 -0.6559,-3.3176 1.3453,-2.6567 1.2549,-4.5133 2.5521,-1.2084 2.6847,0.1318 2.5455,1.4791 -1.698,-8.6122 1.698,-9.5825 -1.8692,-4.4246 -6.1223,-6.5965 1.0885,-3.941 2.9002,-4.5669 5.4688,-3.8486 2.9007,-0.3969 3.225,-0.1094 -2.012,-8.2601 7.3993,-3.0326 9.2188,-1.2129 3.1535,2.0619 0.2427,5.5797 3.5178,5.8224 0.2426,4.6094 8.4909,-0.6066 7.8843,0.7279 -7.8843,-4.7307 1.3343,-5.701 4.9731,-7.763 4.8521,-2.0622 3.8814,1.5769 1.577,3.1538 8.1269,6.1861 1.5769,-1.3343 12.7363,-0.485 2.5473,2.0619 0.2426,3.6391 -0.849,1.5767 -0.6066,9.8251 -4.2454,8.4909 0.7276,3.7605 2.5475,-1.3343 7.1566,-6.6716 3.5175,-0.2424 3.8815,1.5769 3.8818,2.9109 1.9406,6.3077 11.4021,-0.7277 6.914,2.6686 5.5797,5.2157 4.0028,7.5206 0.9706,8.8546 -0.8493,10.3105 -2.1832,9.2185 -2.1836,2.9112 -3.0322,0.9706 -5.3373,-5.8224 -4.8518,-1.6982 -4.2455,7.0353 -4.2454,3.8815 -2.3049,1.4556 -9.2185,7.6419 -7.3993,4.0028 -7.3993,0.6066 -8.6119,-1.4556 -7.5206,-2.7899 -5.2158,-4.2454 -4.1241,-4.9734 -4.2454,-1.2129"
         id="path130"
         inkscape:connector-curvature="0" /></clipPath><clipPath
       clipPathUnits="userSpaceOnUse"
       id="clipPath4287"><path
         style="color:#000000;display:inline;overflow:visible;visibility:visible;fill:none;fill-opacity:1;fill-rule:nonzero;stroke:#0093d9;stroke-width:0.99999994;stroke-linecap:round;stroke-linejoin:miter;stroke-miterlimit:4;stroke-dasharray:1.99999982, 3.99999963;stroke-dashoffset:7.51718092;stroke-opacity:1;marker:none;enable-background:accumulate"
         d="m 167.84375,-205.49609 c -28.93347,16.756 -57.87003,33.50746 -86.804688,50.26171 -0.0086,34.88542 -0.02132,69.770839 -0.0332,104.656255 30.109558,17.45866 60.217428,34.920239 90.328118,52.3769531 30.12085,-17.4394121 60.24079,-34.8803861 90.36133,-52.3203121 0.009,-34.884766 0.0213,-69.769536 0.0332,-104.654296 -30.10997,-17.46038 -60.2204,-34.91999 -90.33008,-52.38086 -1.1849,0.68685 -2.36979,1.3737 -3.55469,2.06055 z"
         id="path4289"
         inkscape:connector-curvature="0" /></clipPath><clipPath
       clipPathUnits="userSpaceOnUse"
       id="clipPath6510"><path
         style="color:#000000;display:inline;overflow:visible;visibility:visible;fill:none;fill-opacity:1;fill-rule:nonzero;stroke:#0093d9;stroke-width:0.4916082;stroke-linecap:round;stroke-linejoin:miter;stroke-miterlimit:4;stroke-dasharray:0.98321639, 1.96643277;stroke-dashoffset:7.51718092;stroke-opacity:1;marker:none;enable-background:accumulate"
         d="m 163.38064,-170.49463 c -16.12196,7.26761 -32.24563,14.53325 -48.36825,21.8001 -0.005,15.13091 -0.0119,30.26181 -0.0185,45.39272 16.77729,7.572375 33.55363,15.146014 50.33155,22.717541 16.78357,-7.564024 33.56663,-15.128724 50.35004,-22.692971 0.005,-15.13062 0.0119,-30.26125 0.0185,-45.39188 -16.77751,-7.57312 -33.55528,-15.1459 -50.33263,-22.71923 -0.66023,0.29791 -1.32047,0.59582 -1.9807,0.89372 z"
         id="path6512"
         inkscape:connector-curvature="0" /></clipPath></defs><rect
     style="fill:#ffffff;fill-opacity:1"
     id="rect4285"
     width="331.23758"
     height="263.29141"
     x="19.302889"
     y="-221.29832"
     clip-path="url(#clipPath6510)"
     transform="matrix(1.7946624,0,0,2.3055733,-205.8752,395.72653)" /><g
     id="g4263"
     transform="matrix(0.24666031,0,0,0.24666031,-10.492266,117.4338)"><path
       d="m 546.04233,162.48062 c 12.57413,0 25.14826,0 37.72301,0 1.557,-7.08563 3.11424,-14.17038 4.67149,-21.25563 10.76601,0 21.87963,0.0695 32.64625,0.0695 5.25725,0 9.91138,-1.63275 14.04613,-4.42662 4.99037,-3.37225 8.7165,-8.53938 10.11612,-14.9145 2.36688,-10.78375 4.74838,-21.56563 7.12875,-32.34625 1.35775,-6.155 3.12413,-13.10525 -1.28937,-18.66425 -4.05925,-5.115125 -9.44688,-5.51275 -15.36163,-5.51275 -42.59062,0.04675 -85.18287,-0.001 -127.77387,-0.001 -4.29938,0 -7.90088,1.390375 -11.65888,3.328125 -3.52525,-2.492625 -6.70675,-3.328125 -11.02925,-3.328125 -19.48637,0 -38.97387,0 -58.46025,0 1.59625,-7.18275 3.19213,-14.365375 4.788,-21.547625 -12.59325,0 -25.18725,0 -37.78125,0 -1.55687,7.00725 -3.11412,14.0145 -4.6715,21.02175 -11.07562,0 -22.15125,0 -33.22725,0 -4.58937,0 -8.99762,1.44 -12.846,3.9125 -3.73112,-2.320875 -6.60825,-3.328625 -11.02812,-3.328625 -36.55813,0 -73.1155,0 -109.6735,0 1.67412,-7.27925 3.34837,-14.559375 5.02187,-21.8395 -12.57412,-0.01913 -25.14825,-0.03863 -37.72275,-0.05813 -7.24925,32.42375 -14.4985,64.84749 -21.74775,97.27087 12.5625,0.004 25.12488,0.007 37.68663,0.0106 3.77925,-16.59362 7.55787,-33.18762 11.3365,-49.781615 4.2505,0 8.501,0 12.75262,0 1.51763,0 1.219,0.8645 0.9645,2.006875 -3.57412,15.92474 -7.14862,31.85012 -10.72237,47.77474 83.28225,0 166.56487,3.8e-4 249.84925,3.8e-4 4.23912,0 7.55637,-0.87663 11.37262,-2.82263 3.7605,2.51263 7.08375,3.34738 11.67838,3.30775 l 57.86812,-0.4855 c -1.55225,7.20325 -3.10425,14.40638 -4.6565,21.60963 z M 382.86021,91.158745 c -3.70663,0 -7.41363,0 -11.12138,0 -1.95087,0 -2.47675,0.88975 -2.86475,2.63875 -1.3925,6.245125 -2.78437,12.491255 -4.17687,18.735625 -0.39688,1.795 0.51137,2.08838 2.08212,2.08838 3.60813,0 7.21625,0 10.824,0 1.75263,-7.82075 3.50475,-15.641505 5.25688,-23.462755 z m 63.7965,0.452875 c 3.95975,0 7.91937,0 11.87937,0 2.28613,0 2.161,1.19875 1.74963,3.0505 -1.36063,6.11713 -2.72125,12.23538 -4.0815,18.35288 -0.4745,2.13625 -1.80538,2.09975 -3.64075,2.09975 -4.0295,0 -8.05888,0 -12.08875,0 -1.77588,0 -1.7915,-1.04988 -1.47575,-2.48563 1.35537,-6.11612 2.712,-12.23287 4.06487,-18.349 0.501,-2.266375 1.39325,-2.6685 3.59288,-2.6685 z m 78.19875,0 c 3.95962,0 7.91925,0 11.87925,0 2.28612,0 2.16112,1.19875 1.74937,3.0505 -1.36025,6.11713 -2.72125,12.23538 -4.08125,18.35288 -0.47437,2.13625 -1.80525,2.09975 -3.64112,2.09975 -4.029,0 -8.0585,0 -12.08825,0 -1.776,0 -1.7915,-1.04988 -1.47613,-2.48563 1.35525,-6.11612 2.71238,-12.23287 4.06513,-18.349 0.50112,-2.266375 1.39325,-2.6685 3.593,-2.6685 z m 69.73612,23.67925 c 3.70663,0 7.41363,0 11.12138,0 1.951,0 2.47712,-0.88975 2.86475,-2.63875 1.3925,-6.245 2.78437,-12.49125 4.17687,-18.735625 0.39688,-1.795 -0.51125,-2.088375 -2.082,-2.088375 -3.60812,0 -7.216,0 -10.82412,0 -1.7525,7.82075 -3.50463,15.64163 -5.25688,23.46275"
       id="path20"
       style="fill:#000000;fill-opacity:1;fill-rule:evenodd;stroke:none"
       inkscape:connector-curvature="0" /><path
       d="m 437.95896,70.895995 47.38188,0 c 7.3945,0 12.10324,6.050625 10.4655,13.443375 l -8.44188,38.10688 c -1.63775,7.39337 -9.028,13.44324 -16.4215,13.44324 l -47.3815,0 c -7.39337,0 -12.1035,-6.04912 -10.4655,-13.44324 l 8.44162,-38.10688 c 1.63838,-7.3945 9.02725,-13.443375 16.42138,-13.443375 z m 8.58862,15.299 23.42663,0 c 3.91425,0 6.40563,3.20175 5.53925,7.113125 l -4.46812,20.17 c -0.86663,3.91113 -4.77776,7.11275 -8.69063,7.11275 l -23.427,0 c -3.91287,0 -6.4055,-3.201 -5.53887,-7.11275 l 4.46812,-20.17 c 0.86675,-3.912875 4.77637,-7.113125 8.69062,-7.113125"
       id="path22"
       style="fill:#1f1917;fill-opacity:1;fill-rule:evenodd;stroke:none"
       inkscape:connector-curvature="0" /><path
       d="m 516.06446,70.895995 47.38225,0 c 7.39487,0 12.1035,6.050625 10.46575,13.443375 l -8.4415,38.10688 c -1.63813,7.39337 -9.02838,13.44324 -16.42212,13.44324 l -47.38188,0 c -7.3935,0 -12.10363,-6.04912 -10.4655,-13.44324 l 8.44162,-38.10688 c 1.63838,-7.3945 9.02725,-13.443375 16.42138,-13.443375 z m 8.58862,15.299 23.42763,0 c 3.914,0 6.40525,3.20175 5.53862,7.113125 l -4.46812,20.17 c -0.86675,3.91113 -4.7775,7.11275 -8.69037,7.11275 l -23.42763,0 c -3.91287,0 -6.40563,-3.201 -5.53887,-7.11275 l 4.46812,-20.17 c 0.86663,-3.912875 4.77637,-7.113125 8.69062,-7.113125"
       id="path24"
       style="fill:#1f1917;fill-opacity:1;fill-rule:evenodd;stroke:none"
       inkscape:connector-curvature="0" /><path
       d="m 580.76846,70.895995 56.86763,0 c 7.3945,0 12.10287,6.052 10.4655,13.443375 l -8.44163,38.10688 c -1.63738,7.39087 -9.03113,13.44712 -16.42137,13.44324 l -56.86763,-0.0272 14.3975,-64.966255 z m 14.866,15.299 26.63538,0 c 3.91387,0 6.40487,3.202375 5.53887,7.113125 l -4.46812,20.17 c -0.86638,3.90925 -4.77888,7.11275 -8.69063,7.11275 l -26.65912,0"
       id="path26"
       style="fill:#1f1917;fill-opacity:1;fill-rule:evenodd;stroke:none"
       inkscape:connector-curvature="0" /><path
       d="m 406.22021,135.37825 -56.86725,0 c -7.3945,0 -12.10325,-6.05238 -10.4655,-13.444 l 8.4415,-38.106255 c 1.63738,-7.392 9.03087,-13.4475 16.42187,-13.44325 l 56.86763,0.02663 -14.39825,64.966885 z m -14.866,-15.29938 -26.63537,0 c -3.91363,0 -6.40488,-3.20312 -5.5385,-7.1125 l 4.46812,-20.170625 c 0.86625,-3.909625 4.7785,-7.113125 8.69025,-7.113125 l 26.6595,0"
       id="path30"
       style="fill:#1f1917;fill-opacity:1;fill-rule:evenodd;stroke:none"
       inkscape:connector-curvature="0" /><path
       d="m 211.47396,70.895995 43.46612,0 c 7.39425,0 12.10326,6.0495 10.46588,13.443375 l -6.17175,27.85813 -18.30575,0 4.18462,-18.88938 c 0.866,-3.912875 -1.62737,-7.113125 -5.53924,-7.113125 l -26.93051,0 c -3.91112,0 -0.405,3.202375 -1.27062,7.113125 l -4.12938,18.63713 -18.30612,0 6.116,-27.60588 c 1.63775,-7.3945 9.02625,-13.443375 16.42075,-13.443375"
       id="path34"
       style="fill:#1f1917;fill-opacity:1;fill-rule:evenodd;stroke:none"
       inkscape:connector-curvature="0" /><path
       d="m 183.77383,135.37825 12.49513,-56.24088 18.25625,0 -12.515,56.24088"
       id="path36"
       style="fill:#1f1917;fill-opacity:1;fill-rule:evenodd;stroke:none"
       inkscape:connector-curvature="0" /><path
       d="m 332.03083,135.37825 -60.783,0 c -7.3935,0 -12.10362,-6.05126 -10.46587,-13.444 l 2.44912,-11.057 0.0112,0 0.47088,-2.12625 c 1.63662,-7.39213 9.02975,-13.446505 16.4215,-13.44338 l 42.52987,0.01913 0.6275,-2.82325 c 0.66763,-3.685 -1.65537,-6.671375 -5.30812,-6.820875 l -49.23288,0 3.38913,-15.291875 61.098,0.01738 c 7.2415,0.14275 11.8205,6.1335 10.20262,13.439 l -1.14987,5.19 0.01,0 -1.39575,6.2975 0.0135,0 -7.1695,32.35038 -0.0135,0 -1.705,7.69324 z m -47.24725,-15.29938 32.38088,0 2.1055,-9.473 -31.82675,0 c -0.153,-0.0156 -0.31075,-0.0245 -0.47163,-0.0245 l 0,0 c -2.60712,0 -5.21,2.13238 -5.78475,4.73925 l 0,0 c -0.56875,2.57663 1.04775,4.68888 3.60138,4.73913 -10e-4,0.006 -0.002,0.0131 -0.005,0.0191"
       id="path42"
       style="fill:#1f1917;fill-opacity:1;fill-rule:evenodd;stroke:none"
       inkscape:connector-curvature="0" /><path
       d="m 437.95896,70.895995 47.38188,0 c 7.3945,0 12.10324,6.050625 10.4655,13.443375 l -8.44188,38.10688 c -1.63775,7.39337 -9.028,13.44324 -16.4215,13.44324 l -47.3815,0 c -7.39337,0 -12.1035,-6.04912 -10.4655,-13.44324 l 8.44162,-38.10688 c 1.63838,-7.3945 9.02725,-13.443375 16.42138,-13.443375 z m 8.58862,15.299 23.42663,0 c 3.91425,0 6.40563,3.20175 5.53925,7.113125 l -4.46812,20.17 c -0.86663,3.91113 -4.77776,7.11275 -8.69063,7.11275 l -23.427,0 c -3.91287,0 -6.4055,-3.201 -5.53887,-7.11275 l 4.46812,-20.17 c 0.86675,-3.912875 4.77637,-7.113125 8.69062,-7.113125"
       id="path44"
       style="fill:#66ccff;fill-opacity:1;fill-rule:evenodd;stroke:none"
       inkscape:connector-curvature="0" /><path
       d="m 516.06446,70.895995 47.38225,0 c 7.39487,0 12.1035,6.050625 10.46575,13.443375 l -8.4415,38.10688 c -1.63813,7.39337 -9.02838,13.44324 -16.42212,13.44324 l -47.38188,0 c -7.3935,0 -12.10363,-6.04912 -10.4655,-13.44324 l 8.44162,-38.10688 c 1.63838,-7.3945 9.02725,-13.443375 16.42138,-13.443375 z m 8.58862,15.299 23.42763,0 c 3.914,0 6.40525,3.20175 5.53862,7.113125 l -4.46812,20.17 c -0.86675,3.91113 -4.7775,7.11275 -8.69037,7.11275 l -23.42763,0 c -3.91287,0 -6.40563,-3.201 -5.53887,-7.11275 l 4.46812,-20.17 c 0.86663,-3.912875 4.77637,-7.113125 8.69062,-7.113125"
       id="path46"
       style="fill:#66ccff;fill-opacity:1;fill-rule:evenodd;stroke:none"
       inkscape:connector-curvature="0" /><path
       d="m 580.77933,70.88337 -11.875,53.5 -2.53125,11.46875 -4.8125,21.78125 18.21875,0 4.84375,-21.78125 38.625,0.0312 c 7.39026,0.004 14.76888,-6.04662 16.40625,-13.4375 l 8.4375,-38.09375 c 1.63739,-7.39137 -3.07424,-13.46875 -10.46875,-13.46875 l -56.84375,0 z m 14.84375,15.3125 26.65625,0 c 3.91388,0 6.39725,3.21425 5.53125,7.125 l -4.46875,20.15625 c -0.86637,3.90925 -4.77575,7.125 -8.6875,7.125 l -26.65625,0 7.625,-34.40625 z"
       id="path48"
       style="fill:#66ccff;fill-opacity:1;fill-rule:evenodd;stroke:none"
       inkscape:connector-curvature="0" /><path
       d="m 407.21683,48.63337 -4.84375,21.78125 -38.625,-0.0312 c -7.391,-0.004 -14.76887,6.0455 -16.40625,13.4375 l -8.46875,38.125 c -1.63774,7.39163 3.07425,13.4375 10.46875,13.4375 l 56.875,0 14.40625,-64.96875 4.8125,-21.78125 -18.21875,0 z m -34.875,37.0625 26.65625,0 -7.65625,34.375 -26.625,0 c -3.91361,0 -6.39763,-3.18438 -5.53125,-7.09375 l 4.46875,-20.1875 c 0.86625,-3.90963 4.77576,-7.09375 8.6875,-7.09375 z"
       id="path52"
       style="fill:#66ccff;fill-opacity:1;fill-rule:evenodd;stroke:none"
       inkscape:connector-curvature="0" /><path
       d="m 202.96683,48.63337 -7.375,33.25 0.0937,0 -0.3125,1.3125 c -0.11692,0.38028 -0.22649,0.76786 -0.3125,1.15625 l -6.125,27.59375 0.0625,0 -5.21875,23.4375 18.21875,0 5.21875,-23.4375 0.0312,0 4.125,-18.625 c 0.007,-0.0297 -0.006,-0.0641 0,-0.0937 l 1.59375,-7.03125 26.59375,0 c 3.91188,0 6.4285,3.21212 5.5625,7.125 l -4.1875,18.875 -5.125,23.1875 18.25,0 5.15625,-23.1875 0.0312,0 6.15625,-27.84375 c 1.63738,-7.39387 -3.0745,-13.46875 -10.46875,-13.46875 l -38.65625,0 4.9375,-22.25 -18.25,0 z"
       id="path56"
       style="fill:#66ccff;fill-opacity:1;fill-rule:evenodd;stroke:none"
       inkscape:connector-curvature="0" /><path
       d="m 332.03083,135.37825 -60.783,0 c -7.3935,0 -12.10362,-6.05126 -10.46587,-13.444 l 2.44912,-11.057 0.0112,0 0.47088,-2.12625 c 1.63662,-7.39213 9.02975,-13.446505 16.4215,-13.44338 l 42.52987,0.01913 0.6275,-2.82325 c 0.66763,-3.685 -1.65537,-6.671375 -5.30812,-6.820875 l -49.23288,0 3.38913,-15.291875 61.098,0.01738 c 7.2415,0.14275 11.8205,6.1335 10.20262,13.439 l -1.14987,5.19 0.01,0 -1.39575,6.2975 0.0135,0 -7.1695,32.35038 -0.0135,0 -1.705,7.69324 z m -47.24725,-15.29938 32.38088,0 2.1055,-9.473 -31.82675,0 c -0.153,-0.0156 -0.31075,-0.0245 -0.47163,-0.0245 l 0,0 c -2.60712,0 -5.21,2.13238 -5.78475,4.73925 l 0,0 c -0.56875,2.57663 1.04775,4.68888 3.60138,4.73913 -10e-4,0.006 -0.002,0.0131 -0.005,0.0191"
       id="path64"
       style="fill:#66ccff;fill-opacity:1;fill-rule:evenodd;stroke:none"
       inkscape:connector-curvature="0" /></g><g
     id="g112"
     transform="matrix(1.25,0,0,-1.25,-117.94518,431.17422)" /><g
     id="g124"
     transform="matrix(1.25,0,0,-1.25,-41.399524,298.4728)"><g
       id="g126"
       clip-path="url(#clipPath128)"><g
         id="g132"
         transform="matrix(136.89723,0,0,105.04488,45.2072,62.9932)" /></g></g><g
     id="g4235"
     transform="matrix(0.64126872,0,0,0.64126872,140.82295,173.73002)"><path
       d="m -148.89523,-129.97363 c -0.74762,2.03488 -1.49625,4.0705 -2.24387,6.1065 -1.8515,1.83225 -3.70288,3.66775 -5.55488,5.501 -2.02437,2.0055 -2.45975,1.99175 -1.98425,4.8285 0.55838,3.33313 2.161,6.768 5.11125,9.726 3.10175,3.10925 9.61438,7.509633 14.30075,5.435383 -0.4355,1.57475 -1.01375,3.22587 -1.74975,4.84025 -3.1425,6.89024 4.516,8.23987 9.87563,9.68949 4.45425,1.20438 15.38575,4.41388 16.96325,-1.44037 0.70937,-2.63412 0.8195,-4.04962 0.56687,-6.56463 1.38613,-3.09375 1.82875,-3.587 2.976,-5.28949 1.57438,-2.335 1.46125,-3.223753 1.11688,-6.121383 -0.0666,-0.5585 -0.14775,-1.1675 -0.24163,-1.8075 5.30425,0.798 10.404127,0.78838 15.602252,0.1435 -1.57825,0.9195 -3.161,1.72488 -5.248375,2.79813 -4.954247,2.546623 -0.285625,10.059873 1.849625,13.350123 4.48125,6.90563 8.49925,11.65675 16.06925,7.56038 2.543005,-1.37651 2.739255,-2.84275 4.326375,-5.2125 0.87663,-0.48088 5.39463,-4.32325 8.0815,-6.49388 1.01837,1.22175 2.96762,1.44675 5.92375,1.66038 1.4875,0.10812 7.32088,0.0713 8.86712,0.0811 4.63888,0.0291 7.42288,-0.45238 7.78575,-5.508 0.17188,-2.39738 0.069,-2.90725 -1.11049,-5.002873 -0.0712,-2.64463 -0.14176,-5.28976 -0.21226,-7.93375 -0.0807,-2.97888 -0.6495,-4.80613 -1.81837,-7.58913 -1.063,-2.52737 -1.65837,-4.6845 -2.8995,-7.1355 0.17038,-0.96087 0.30537,-1.95237 0.39712,-2.98837 1.57713,1.519 3.15388,3.03912 4.73113,4.5585 3.00637,2.89587 5.49062,5.26112 10.07462,5.04462 4.77388,-0.225 10.23913,-3.98587 11.63875,-8.58625 0.46663,-1.53562 0.93188,-3.07087 1.3985,-4.60587 7.19925,1.36062 15.6128805,1.04912 21.8813805,-2.29538 9.21925,-4.92025 13.5328695,-14.81237 14.5931195,-25.2765 0.85775,-8.465 -0.79337,-22.69987 -4.8292495,-30.42362 -1.18662,-2.27125 -6.54550002,-5.14513 -8.89475,-2.7645 -1.76987,1.794 -2.98562,4.527 -4.8965,6.15975 -1.48,1.26462 -3.31337,1.89075 -4.9198705,2.55262 -1.24375,-3.35762 -3.03125,-5.96737 -5.22,-8.57512 -1.7405,-2.0725 -3.38038,-3.10538 -5.67563,-4.54263 -4.5355,-2.84025 -8.055,-6.42575 -12.18187,-9.828 -12.48813,-10.29687 -23.21225,-9.98112 -38.772,-3.43212 -7.42325,3.12487 -11.00375,7.3655 -15.556875,13.45612 -2.751375,0.1435 -4.64175,0.67638 -7.550125,3.24313 -2.146875,1.89462 -4.145627,3.84387 -6.080247,5.8635 -14.54463,2.318 -23.5775,5.08962 -33.13388,13.56162 -3.88875,3.44763 -6.71562,7.26813 -8.92062,11.56288 -2.047,2.26212 -4.08225,4.58087 -6.785,5.6215 -1.90275,0.73175 -1.86738,0.72987 -2.53775,-1.05975 2.26237,-1.70013 2.22662,-4.9005 2.436,-7.79713 1.42725,0.068 1.96225,1.66888 2.93275,2.89388 0.57262,-2.5615 0.90462,-6.5395 -1.79113,-7.93563 0.43838,-1.17175 0.93438,-2.35275 1.38863,-3.645 -3.97625,0.69025 -17.60838,9.87875 -10.33475,16.88675 0.47875,1.94588 0.85575,3.28638 1.48825,4.602 1.66425,3.46113 5.40637,4.05425 8.66725,2.7825 -0.89363,4.09713 -1.07475,8.555 -0.53688,14.81288 0.129,1.50025 0.3455,3.01387 0.63675,4.53187"
       id="path66"
       style="fill:#000000;fill-opacity:1;fill-rule:evenodd;stroke:none"
       inkscape:connector-curvature="0" /><path
       d="m -148.03135,-129.65688 c -0.30013,0.81775 -0.60163,1.637 -0.90213,2.45513 l -1.72775,-0.6335 c 0.3005,-0.81813 0.60213,-1.63738 0.90213,-2.45513 l 1.72775,0.6335 z m -0.90213,2.45513 c -0.44712,1.2165 -0.895,2.43462 -1.34187,3.65137 l -1.72763,-0.6335 c 0.44675,-1.21675 0.89463,-2.435 1.34175,-3.65137 l 1.72775,0.6335 z m -1.34187,3.65137 -0.21613,0.3345 -0.64762,-0.65125 0.86375,0.31675 z m -0.21613,0.3345 c -0.98075,0.97088 -1.96262,1.9435 -2.94375,2.91513 l -1.29537,-1.3025 c 0.98112,-0.97163 1.96287,-1.94425 2.94375,-2.91513 l 1.29537,1.3025 z m -2.94375,2.91513 c -0.86987,0.86175 -1.74087,1.7245 -2.61112,2.58587 l -1.29538,-1.3025 c 0.87025,-0.86137 1.74113,-1.72412 2.61113,-2.58587 l 1.29537,1.3025 z m -2.61112,2.58587 c -0.39788,0.39363 -0.53288,0.52375 -0.65263,0.63925 l -1.27412,-1.33162 c 0.26575,-0.25575 0.55912,-0.5385 0.63137,-0.61013 l 1.29538,1.3025 z m -0.65263,0.63925 c -1.1785,1.1345 -1.41162,1.3595 -1.07225,3.38663 l -1.81412,0.30262 c -0.50025,-2.98663 -0.15125,-3.32325 1.61225,-5.02087 l 1.27412,1.33162 z m -1.07225,3.38663 c 0.27363,1.63212 0.81638,3.2975 1.66825,4.9185 l -1.63412,0.85675 c -0.94013,-1.78863 -1.54175,-3.6425 -1.84825,-5.47263 l 1.81412,-0.30262 z m 1.66825,4.9185 c 0.79088,1.50562 1.84363,2.96362 3.18725,4.31112 l -1.30262,1.2955 c -1.491,-1.49537 -2.6525,-3.10112 -3.51875,-4.74987 l 1.63412,-0.85675 z m 3.18725,4.31112 c 1.71913,1.7235 4.5255,3.859 7.44625,4.968753 l -0.64775,1.72075 c -3.19187,-1.21288 -6.24012,-3.528883 -8.10112,-5.394003 l 1.30262,-1.2955 z m 7.44625,4.968753 c 2.03175,0.77212 4.10238,1.03787 5.83263,0.27212 l 0.74125,1.6845 c -2.232,0.98788 -4.7775,0.69313 -7.22163,-0.23587 l 0.64775,-1.72075 z m 5.83263,0.27212 1.77762,-0.786873 -0.518,1.874003 -0.889,-0.24487 -0.37062,-0.84225 z m 1.25962,1.08713 c -0.231,0.83587 -0.50137,1.693 -0.81212,2.55262 l -1.73475,-0.6265 c 0.29475,-0.816 0.55087,-1.62675 0.76887,-2.41575 l 1.778,0.48963 z m -0.81212,2.55263 c -0.29025,0.80187 -0.61863,1.61462 -0.98788,2.42437 l -1.67737,-0.76325 c 0.34262,-0.75163 0.65262,-1.51975 0.9305,-2.28763 l 1.73475,0.6265 z m -0.98788,2.42437 c -1.55662,3.41288 0.0747,5.21 2.60325,6.36338 l -0.76325,1.67737 c -3.45962,-1.57775 -5.68237,-4.05637 -3.51737,-8.804 l 1.67737,0.76325 z m 2.60325,6.36338 c 1.61575,0.73662 3.571,1.24587 5.388,1.71924 l -0.46062,1.778 c -1.90913,-0.49712 -3.96325,-1.03249 -5.69063,-1.81987 l 0.76325,-1.67737 z m 5.388,1.71924 c 0.48013,0.12438 0.94538,0.24588 1.2795,0.33626 l -0.46775,1.77799 c -0.49212,-0.13324 -0.88262,-0.23524 -1.27237,-0.33625 l 0.46062,-1.778 z m 1.2795,0.33626 c 2.19113,0.59237 5.97925,1.67875 9.38438,1.89462 l -0.1155,1.8425 c -3.56813,-0.22613 -7.47463,-1.3475 -9.73663,-1.95913 l 0.46775,-1.77799 z m 9.38438,1.89462 c 3.07737,0.19488 5.821,-0.3235 6.45587,-2.67987 l 1.77813,0.46775 c -0.94225,3.49687 -4.45463,4.30162 -8.3495,4.05462 l 0.1155,-1.8425 z m 6.45587,-2.67987 c 0.336,-1.24826 0.53088,-2.21238 0.612,-3.16838 l 1.8425,0.15087 c -0.0879,1.03863 -0.30362,2.10013 -0.67637,3.48526 l -1.77813,-0.46775 z m 0.612,-3.16838 c 0.0815,-0.96063 0.0481,-1.89325 -0.0701,-3.076 l 1.82825,-0.17288 c 0.13325,1.33163 0.17188,2.3655 0.0844,3.39975 l -1.8425,-0.15087 z m -0.0701,-3.076 0.0719,-0.46063 0.84225,0.37425 -0.91412,0.0864 z m 0.0719,-0.46063 c 1.2395,-2.767 1.75038,-3.51425 2.6525,-4.83549 l 1.51863,1.03675 c -0.834,1.22137 -1.30638,1.91299 -2.48663,4.54712 l -1.6845,-0.74837 z m 2.6525,-4.83549 c 0.0921,-0.135 0.17088,-0.24988 0.40288,-0.59425 l 1.52575,1.029 c -0.0585,0.0871 -0.2505,0.36812 -0.41,0.602 l -1.51863,-1.03675 z m 0.40288,-0.59425 c 0.70337,-1.0435 1.02687,-1.7405 1.13037,-2.461133 l 1.82125,0.252253 c -0.14812,1.03175 -0.556,1.947 -1.42587,3.23788 l -1.52575,-1.029 z m 1.13037,-2.461133 c 0.108,-0.75687 -7.5e-4,-1.66037 -0.16475,-3.04125 l 1.82825,-0.20912 c 0.18,1.51624 0.30013,2.50762 0.15775,3.502623 l -1.82125,-0.252253 z m -0.16475,-3.04125 c -0.045,-0.37738 -0.0823,-0.67575 -0.10812,-0.87062 l 1.82125,-0.23026 c 0.0553,0.41413 0.0932,0.70651 0.11512,0.89175 l -1.82825,0.20913 z m -0.10812,-0.87062 c -0.0205,-0.15625 -0.0663,-0.47051 -0.13,-0.90813 l 1.82125,-0.2665 c 0.0284,0.196 0.0712,0.50175 0.13,0.94437 l -1.82125,0.23026 z m -0.13,-0.90813 -0.17963,-1.22887 1.227,0.185 -0.13675,0.91062 -0.91062,0.13325 z m 1.04737,-1.04387 c 2.60613,0.39187 5.16363,0.58575 7.70775,0.60237 l -0.007,1.8425 c -2.63012,-0.017 -5.27625,-0.21787 -7.97412,-0.62362 l 0.2735,-1.82125 z m 7.70775,0.60237 c 2.551877,0.0162 5.090002,-0.14487 7.649627,-0.46238 l 0.216125,1.82838 c -2.637625,0.327 -5.250125,0.49313 -7.872872,0.4765 l 0.007,-1.8425 z m 7.649627,-0.46238 0.56875,1.71313 -0.460625,-0.799 -0.108125,-0.91413 z m 0.56875,1.71313 c -1.487125,0.86638 -2.9715,1.62963 -4.865375,2.60263 l -0.841875,-1.64125 c 1.869125,-0.96025 3.333875,-1.71363 4.786,-2.55938 l 0.92125,1.598 z m -4.865375,2.60263 c -0.138125,0.0709 -0.279875,0.14387 -0.422625,0.21712 l -0.842,-1.64125 c 0.142875,-0.0733 0.284625,-0.14625 0.42275,-0.21712 l 0.841875,1.64125 z m -0.422625,0.21712 c -1.946377,1.00063 -1.964127,3.101503 -1.276747,5.301873 l -1.756,0.54713 c -0.94188,-3.01462 -0.81638,-5.944253 2.190747,-7.490253 l 0.842,1.64125 z m -1.276747,5.301873 c 0.779872,2.49738 2.435997,5.12538 3.475622,6.72738 l -1.540625,1.00063 c -1.09525,-1.68776 -2.841997,-4.4625 -3.690997,-7.18088 l 1.756,-0.54713 z m 3.475622,6.72738 c 2.176,3.35375 4.22825,6.17738 6.584875,7.62162 l -0.957375,1.56901 c -2.664875,-1.63313 -4.863875,-4.63863 -7.168125,-8.19 l 1.540625,-1.00063 z m 6.584875,7.62162 c 2.226625,1.36488 4.83025,1.49138 8.278625,-0.3745 l 0.871,1.627 c -4.120875,2.23025 -7.312375,2.02963 -10.107,0.31651 l 0.957375,-1.56901 z m 8.278625,-0.3745 c 1.629625,-0.882 2.176625,-1.83975 2.913255,-3.1305 l 1.60512,0.90701 c -0.89,1.55912 -1.55088,2.71562 -3.647375,3.85049 l -0.871,-1.627 z m 2.913255,-3.1305 c 0.29312,-0.5135 0.61487,-1.07612 1.08575,-1.77949 l 1.52575,1.02187 c -0.377,0.563 -0.70625,1.13925 -1.00638,1.66463 l -1.60512,-0.90701 z m 1.08575,-1.77949 0.32025,-0.29863 0.44262,0.80963 -0.76287,-0.511 z m 0.32025,-0.29863 c 0.53787,-0.29525 2.83575,-2.19338 5.0705,-4.04012 l 1.1735,1.418 c -2.31088,1.90987 -4.68813,3.87349 -5.35888,4.24137 l -0.88512,-1.61925 z m 5.0705,-4.04012 c 1.1505,-0.95038 2.2855,-1.88825 2.87437,-2.36376 l 1.15863,1.43925 c -1.07788,0.871 -1.96475,1.60338 -2.8595,2.3425 l -1.1735,-1.418 z m 2.87437,-2.36376 0.70575,-0.57012 0.58262,0.6995 -0.70912,0.59025 -0.57925,-0.71963 z m 1.28837,0.12938 c 0.36738,0.44075 0.9485,0.71325 1.73826,0.90238 l -0.42451,1.79225 c -1.17775,-0.28163 -2.08162,-0.73413 -2.73187,-1.51401 l 1.41812,-1.18062 z m 1.73826,0.90238 c 0.90675,0.21687 2.098,0.32324 3.54125,0.427 l -0.12975,1.8425 c -1.51263,-0.10913 -2.77538,-0.2235 -3.83601,-0.47725 l 0.42451,-1.79225 z m 3.54125,0.427 c 1.13175,0.0819 4.74725,0.0801 7.082,0.0794 l 0,1.8425 c -2.38538,0.001 -6.07888,0.003 -7.21175,-0.0794 l 0.12975,-1.8425 z m 7.082,0.0794 c 0.7405,-3.7e-4 1.35562,-3.7e-4 1.72374,0.002 l -0.007,1.8425 c -0.3675,-0.002 -0.97975,-0.002 -1.71675,-0.002 l 0,-1.8425 z m 1.72374,0.002 c 2.17563,0.0135 3.9005,-0.0832 5.03938,-0.7285 l 0.907,1.60513 c -1.503,0.85149 -3.49087,0.98112 -5.95338,0.96587 l 0.007,-1.8425 z m 5.03938,-0.7285 c 1.04062,-0.58962 1.666,-1.75113 1.82162,-3.92313 l 1.8425,0.12976 c -0.20662,2.88275 -1.1555,4.49112 -2.75712,5.3985 l -0.907,-1.60513 z m 1.82162,-3.92313 c 0.0796,-1.11574 0.0985,-1.78124 -0.027,-2.35162 l 1.79938,-0.39625 c 0.1775,0.80725 0.1615,1.59663 0.0701,2.87763 l -1.8425,-0.12976 z m -0.027,-2.35162 c -0.12537,-0.57125 -0.42087,-1.163373 -0.96837,-2.136373 l 1.61225,-0.9 c 0.63137,1.12187 0.97825,1.83375 1.1555,2.640123 l -1.79938,0.39625 z m -0.96837,-2.136373 -0.11513,-0.42838 0.92125,-0.0216 -0.80612,0.45 z m -0.11513,-0.42838 c -0.0355,-1.322 -0.0716,-2.645 -0.10637,-3.967 l 1.84262,-0.0433 c 0.0346,1.322 0.0709,2.64513 0.10625,3.96713 l -1.8425,0.0431 z m -0.10637,-3.967 c -0.035,-1.322 -0.0711,-2.64512 -0.10588,-3.96675 l 1.8425,-0.0433 c 0.0348,1.32163 0.0709,2.64475 0.106,3.96675 l -1.84262,0.0433 z m -0.10588,-3.96675 c -0.0382,-1.4195 -0.19175,-2.55862 -0.47237,-3.66625 l 1.78512,-0.4465 c 0.31575,1.2455 0.48763,2.51075 0.52975,4.0695 l -1.8425,0.0433 z m -0.47237,-3.66625 c -0.28313,-1.11587 -0.70475,-2.232 -1.27413,-3.588 l 1.69863,-0.71287 c 0.59887,1.42612 1.04675,2.61637 1.36062,3.85437 l -1.78512,0.4465 z m -1.27413,-3.588 c -0.40325,-0.95875 -0.74874,-1.89037 -1.08712,-2.8035 l 1.72775,-0.6335 c 0.3225,0.87025 0.65162,1.75825 1.058,2.72413 l -1.69863,0.71287 z m 0.64063,-3.4405 0,0.004 -0.86388,0.31675 0.86388,-0.32025 z m -1.72775,0.64063 c -0.5265,-1.42013 -1.0375,-2.79788 -1.78725,-4.27825 l 1.64837,-0.82763 c 0.787,1.55363 1.31888,2.98725 1.86663,4.46525 l -1.72775,0.64063 z m -1.78725,-4.27825 -0.0829,-0.57225 0.90713,0.15837 -0.82425,0.41388 z m -0.0829,-0.57225 c 0.0907,-0.51375 0.16688,-0.99063 0.22463,-1.42263 l 1.82125,0.23038 c -0.0751,0.56225 -0.15275,1.06262 -0.23175,1.509 l -1.81413,-0.31675 z m 0.22463,-1.42263 c 0.0521,-0.39225 0.10525,-0.88337 0.15837,-1.48287 l 1.8425,0.151 c -0.0386,0.43575 -0.0995,0.96025 -0.17962,1.56225 l -1.82125,-0.23038 z m 0.15837,-1.48287 0.1715,-1.9265 1.38688,1.33625 -0.63713,0.66575 -0.92125,-0.0755 z m 1.55838,-0.59025 c 0.90212,0.86875 1.805,1.739 2.70712,2.60825 l -1.27425,1.3315 c -0.90212,-0.86913 -1.80487,-1.73938 -2.707,-2.60825 l 1.27413,-1.3315 z m 2.70712,2.60825 2.02388,1.95012 -1.27413,1.33163 -2.024,-1.95025 1.27425,-1.3315 z m 2.02388,1.95012 c 1.46087,1.4075 2.79537,2.68625 4.2765,3.56 l -0.9355,1.591 c -1.65825,-0.97837 -3.07025,-2.33087 -4.61513,-3.81937 l 1.27413,-1.33163 z m 4.2765,3.56 c 1.42437,0.8405 3.03087,1.32775 5.11787,1.22913 l 0.0865,1.84262 c -2.49662,0.118 -4.42525,-0.46912 -6.13987,-1.48075 l 0.9355,-1.591 z m 5.11787,1.22913 c 2.25213,-0.10588 4.68463,-1.0725 6.70675,-2.56425 l 1.09425,1.4825 c -2.30312,1.699 -5.09987,2.801 -7.7145,2.92437 l -0.0865,-1.84262 z m 6.70675,-2.56425 c 1.92975,-1.42338 3.46825,-3.31188 4.09325,-5.367 l 1.76388,0.53287 c -0.74663,2.45413 -2.53488,4.67288 -4.76288,6.31663 l -1.09425,-1.4825 z m 4.09325,-5.367 c 0.2155,-0.70938 0.43125,-1.4195 0.64638,-2.1285 l 1.76375,0.53287 c -0.215,0.709 -0.43088,1.41913 -0.64625,2.1285 l -1.76388,-0.53287 z m 0.64638,-2.1285 c 0.25012,-0.82563 0.50162,-1.65225 0.75225,-2.4775 l 1.76375,0.533 c -0.2505,0.82512 -0.502,1.65187 -0.75225,2.47737 l -1.76375,-0.53287 z m 0.75225,-2.4775 0.24012,-0.79013 0.81075,0.15338 -0.169,0.90325 -0.88187,-0.2665 z m 1.05087,-0.63675 c 3.73075,0.70512 7.7935,0.95137 11.69788,0.54212 l 0.18,1.82838 c -4.08225,0.428 -8.32425,0.17112 -12.21588,-0.56413 l 0.338,-1.80637 z m 11.69788,0.54212 c 3.4302505,-0.35962 6.7386205,-1.2305 9.5825005,-2.74775 l 0.86387,1.627 c -3.05537,1.63038 -6.59837,2.56438 -10.2663705,2.94913 l -0.18,-1.82838 z m 9.5825005,-2.74775 c 4.1655,-2.22312 7.29387,-5.50675 9.54637,-9.40862 l 1.598,0.91425 c -2.42037,4.19237 -5.78825,7.724 -10.2805,10.12137 l -0.86387,-1.627 z m 9.54637,-9.40862 0,-0.004 0.799,0.46062 -0.799,-0.45712 z m 0,-0.004 c 2.57388,-4.45825 4.0156295,-9.71863 4.5644995,-15.13738 l 1.82838,0.17288 c -0.5755,5.68062 -2.08988,11.2005 -4.7948795,15.88575 l -1.598,-0.92125 z m 4.5644995,-15.13738 c 0.44713,-4.416 0.1995,-10.43862 -0.725,-16.26337 l 1.81425,-0.28775 c 0.94813,5.97362 1.2005,12.16775 0.73913,16.724 l -1.82838,-0.17288 z m -0.725,-16.26337 c -0.8152295,-5.13821 -2.1563495,-10.10696 -4.0070995,-13.64921 l 1.63425,-0.84962 c 1.9421195,3.71725 3.3423695,8.88625 4.1871195,14.21075 l -1.81425,0.28775 z m -4.0070995,-13.64921 c -0.14488,-0.27775 -0.38575,-0.58075 -0.69513,-0.88612 l 1.28838,-1.3175 c 0.44425,0.43912 0.80425,0.9 1.041,1.354 l -1.63425,0.84962 z m -0.69513,-0.88612 c -0.78987,-0.77925 -1.96337,-1.51725 -3.17875,-1.93538 l 0.59738,-1.74187 c 1.47625,0.50775 2.90487,1.40775 3.86975,2.35975 l -1.28838,1.3175 z m -3.17875,-1.93538 c -1.1275,-0.388 -2.26375002,-0.495 -3.07525002,-0.0709 l -0.84961998,-1.63412 c 1.30924998,-0.68425 2.95825,-0.57475 4.52225,-0.0369 l -0.59738,1.74187 z m -3.07525002,-0.0709 c -0.17,0.0886 -0.32875,0.20413 -0.46975,0.34725 l -1.31749998,-1.28837 c 0.28213,-0.28588 0.59775,-0.51588 0.93763,-0.693 l 0.84961998,1.63412 z m -0.46975,0.34725 c -0.75336998,0.76363 -1.41449998,1.72913 -2.07711998,2.69713 l -1.51863,-1.03675 c 0.71575,-1.046 1.43038,-2.08913 2.27825,-2.94875 l 1.31749998,1.28837 z m -2.07711998,2.69713 c -0.87163,1.27312 -1.74725,2.55187 -2.88075,3.52025 l -1.19475,-1.40375 c 0.9585,-0.81888 1.75962,-1.98888 2.55687,-3.15325 l 1.51863,1.03675 z m -2.88075,3.52025 c -1.3875,1.18562 -2.99613,1.83087 -4.4900005,2.43 l -0.68388,-1.71275 c 1.3585005,-0.54463 2.8211305,-1.13175 3.9791305,-2.121 l 1.19475,1.40375 z m -4.4900005,2.43 c -0.2605,0.10425 -0.516,0.207 -0.67825,0.27362 l -0.698,-1.70575 c 0.28625,-0.11762 0.49,-0.1995 0.69237,-0.28062 l 0.68388,1.71275 z m -0.67825,0.27362 -0.87975,0.3625 -0.33313,-0.89862 0.86388,-0.31675 0.349,0.85287 z m -1.21288,-0.53612 c -0.59562,-1.60863 -1.32662,-3.0455 -2.17275,-4.39625 l 1.56188,-0.97863 c 0.90537,1.445 1.69125,2.993 2.33862,4.74138 l -1.72775,0.6335 z m -2.17275,-4.39625 c -0.855,-1.36513 -1.82437,-2.63688 -2.88887,-3.90538 l 1.411,-1.18062 c 1.12325,1.33862 2.14362,2.677 3.03975,4.10737 l -1.56188,0.97863 z m -2.88887,-3.90538 c -0.82238,-0.97937 -1.62038,-1.71287 -2.482,-2.369 l 1.11537,-1.46125 c 0.96663,0.73625 1.85988,1.55688 2.77763,2.64963 l -1.411,1.18062 z m -2.482,-2.369 c -0.86,-0.65525 -1.83725,-1.26925 -2.9775,-1.98287 l 0.97862,-1.56188 c 1.1545,0.72275 2.1455,1.34538 3.11425,2.0835 l -1.11537,1.46125 z m -2.9775,-1.98287 c -3.21238,-2.0115 -5.90488,-4.3735 -8.65175,-6.78338 l 1.209,-1.38887 c 2.689,2.35912 5.32487,4.67112 8.42137,6.61037 l -0.97862,1.56188 z m -8.65175,-6.78338 c -1.1565,-1.014 -2.32325,-2.03775 -3.62763,-3.11312 l 1.17363,-1.42513 c 1.20712,0.99538 2.441,2.0775 3.663,3.14938 l -1.209,1.38887 z m -3.62763,-3.11312 c -6.0845,-5.01688 -11.7195,-7.44763 -17.70512,-7.82463 l 0.1155,-1.8425 c 6.38787,0.40213 12.3605,2.96288 18.76325,8.242 l -1.17363,1.42513 z m -17.70512,-7.82463 c -6.03,-0.3795 -12.4735,1.30925 -20.1235,4.52938 l -0.713,-1.69863 c 7.90875,-3.329 14.60837,-5.07225 20.952,-4.67325 l -0.1155,1.8425 z m -20.1235,4.52938 c -3.60538,1.51725 -6.2735,3.30237 -8.588625,5.44325 l -1.245125,-1.3535 c 2.468625,-2.283 5.30363,-4.18188 9.12075,-5.78838 l 0.713,1.69863 z m -8.588625,5.44325 c -2.332625,2.15712 -4.338125,4.7055 -6.587,7.71412 l -1.4755,-1.10125 c 2.3035,-3.08162 4.3665,-5.69975 6.817375,-7.96637 l 1.245125,1.3535 z m -6.587,7.71412 -0.260125,0.34825 -0.430875,0.0224 -0.04675,-0.92125 0.73775,0.55063 z m -0.691,0.37063 c -1.28125,0.0666 -2.354125,0.2215 -3.421,0.64812 l -0.683875,-1.71287 c 1.291875,-0.51662 2.540875,-0.70162 4.011375,-0.77775 l 0.0935,1.8425 z m -3.421,0.64812 c -1.08325,0.43288 -2.19975,1.1575 -3.5675,2.36475 l -1.21675,-1.38187 c 1.539625,-1.35888 2.824375,-2.1855 4.100375,-2.69575 l 0.683875,1.71287 z m -3.5675,2.36475 c -1.053375,0.92938 -2.079875,1.8815 -3.087625,2.85625 l -1.281247,-1.3245 c 1.011247,-0.97825 2.058747,-1.94912 3.152122,-2.91362 l 1.21675,1.38187 z m -3.087625,2.85625 -0.0035,0.004 -0.637125,-0.66575 0.640625,0.66225 z m -0.0035,0.004 c -0.998125,0.96525 -1.972877,1.94888 -2.931747,2.94988 l -1.3315,-1.27425 c 0.97475,-1.01763 1.96825,-2.02 2.98912,-3.00713 l 1.274127,1.3315 z m -2.931747,2.94988 -0.52188,0.27 -0.14387,-0.90713 0.66575,0.63713 z m -0.52188,0.27 c -7.20175,1.14762 -13.038,2.40725 -18.2505,4.42625 l -0.662,-1.72063 c 5.32925,-2.064 11.28263,-3.34987 18.62475,-4.51987 l 0.28775,1.81425 z m -18.2505,4.42625 c -5.16762,2.00162 -9.72825,4.76087 -14.41887,8.91925 l -1.21675,-1.38188 c 4.865,-4.31325 9.601,-7.177 14.97362,-9.258 l 0.662,1.72063 z m -14.41887,8.9193 c -1.90063,1.68488 -3.53975,3.45825 -4.9695,5.3305 l -1.46125,-1.11537 c 1.50625,-1.97288 3.22625,-3.835 5.214,-5.597 l 1.21675,1.38187 z m -4.9695,5.3305 c -1.43038,1.873 -2.6595,3.85625 -3.73888,5.95888 l -1.64125,-0.83488 c 1.125,-2.1915 2.413,-4.26712 3.91888,-6.23937 l 1.46125,1.11537 z m -3.73888,5.95888 -0.13675,0.198 -0.68387,-0.6155 0.82062,0.4175 z m -0.13675,0.198 c -1.04775,1.15762 -2.09337,2.33112 -3.21487,3.34062 l -1.23088,-1.37475 c 1.08275,-0.97512 2.07925,-2.09312 3.078,-3.19675 l 1.36775,1.23088 z m -3.21487,3.34062 c -1.17563,1.05838 -2.45013,1.95838 -3.92313,2.52575 l -0.66187,-1.72075 c 1.22912,-0.47337 2.32512,-1.2535 3.35412,-2.17975 l 1.23088,1.37475 z m -3.92313,2.52575 -0.004,0 -0.32737,-0.86037 0.33087,0.86037 z m -0.004,0 c -1.18212,0.45425 -1.76,0.682 -2.41475,0.40463 l 0.71288,-1.69875 c 0.0298,0.0125 0.32675,-0.14988 1.047,-0.42663 l 0.65487,1.72075 z m -2.41475,0.40463 -0.004,-0.004 0.36,-0.84575 -0.35637,0.84937 z m -0.004,-0.004 c -0.6905,-0.293 -0.88325,-0.86025 -1.31062,-2.00088 l 1.72775,-0.64062 c 0.24262,0.64837 0.23775,0.92237 0.30287,0.95 l -0.72,1.6915 z m -1.31062,-2.00088 -0.24025,-0.64162 0.5535,-0.41638 0.55062,0.73775 -0.86387,0.32025 z m 0.31325,-1.058 c 1.693,-1.27212 1.8535,-3.8055 2.00762,-6.2455 l 1.8425,0.1155 c -0.18,2.85313 -0.36812,5.81638 -2.74887,7.60538 l -1.10125,-1.47538 z m 2.00762,-6.2455 c 0.0199,-0.31925 0.0404,-0.63662 0.0578,-0.87875 l 1.8425,0.12975 c -0.0241,0.33338 -0.0411,0.59988 -0.0578,0.8645 l -1.8425,-0.1155 z m 0.0578,-0.87875 0.0655,-0.89887 0.899,0.0425 -0.0433,0.92125 -0.92125,-0.0649 z m 0.9645,-0.85637 c 1.51975,0.0722 2.21213,1.1445 2.959,2.301 l -1.54775,0.99362 c -0.47725,-0.73912 -0.92012,-1.42475 -1.49775,-1.45212 l 0.0865,-1.8425 z m 2.959,2.301 c 0.20838,0.32287 0.42313,0.65525 0.65025,0.94187 l -1.43937,1.1445 c -0.28625,-0.3615 -0.52575,-0.73212 -0.75863,-1.09275 l 1.54775,-0.99362 z m 0.83025,1.71212 -0.42137,1.88538 -1.198,-1.51113 0.71962,-0.57225 0.89975,0.198 z m -1.7994,-0.39617 c 0.31113,-1.39138 0.54963,-3.21588 0.21263,-4.70938 l 1.79225,-0.40325 c 0.41175,1.82413 0.14775,3.9285 -0.2055,5.50875 l -1.79938,-0.39612 z m 0.21263,-4.70938 c -0.214,-0.94962 -0.6725,-1.766 -1.525,-2.2075 l 0.84187,-1.64125 c 1.4095,0.73025 2.14863,1.996 2.47538,3.4455 l -1.79225,0.40325 z m -1.525,-2.2075 -0.7285,-0.37737 0.2855,-0.7635 0.86387,0.32025 -0.42087,0.82062 z m -0.443,-1.14087 c 0.13612,-0.364 0.33425,-0.86925 0.53787,-1.38838 l 1.71288,0.66975 c -0.15938,0.40638 -0.31925,0.815 -0.523,1.35925 l -1.72775,-0.64062 z m 0.53787,-1.38838 c 0.2715,-0.693 0.55038,-1.40375 0.84375,-2.23862 l 1.74188,0.6045 c -0.26225,0.74587 -0.57188,1.53537 -0.87275,2.30387 l -1.71288,-0.66975 z m 1.55988,-2.8435 1.5455,-0.26812 -0.51975,1.4775 -0.871,-0.30225 -0.15475,-0.90713 z m 0.30962,1.81425 c -1.784,0.30963 -5.71287,2.51425 -8.56487,5.47438 l -1.33163,-1.27413 c 3.11138,-3.22937 7.53063,-5.65762 9.58688,-6.0145 l 0.30962,1.81425 z m -8.56487,5.47438 c -1.03363,1.07287 -1.90988,2.23162 -2.46325,3.4125 l -1.66963,-0.77025 c 0.65225,-1.39188 1.64588,-2.717 2.80125,-3.91638 l 1.33163,1.27413 z m -2.46325,3.4125 c -0.528,1.12612 -0.769,2.27875 -0.57475,3.39775 l -1.81425,0.30962 c -0.26325,-1.5165 0.0408,-3.03025 0.71937,-4.47762 l 1.66963,0.77025 z m -0.57475,3.39775 c 0.17612,1.0165 0.72212,2.0385 1.75037,3.02912 l -1.27425,1.33163 c -1.33287,-1.2845 -2.04837,-2.65463 -2.29037,-4.05113 l 1.81425,-0.30962 z m 1.75037,3.02912 0.2555,0.44613 -0.89262,0.21975 0.63712,-0.66588 z m 0.2555,0.44613 c 0.23388,0.95175 0.44363,1.75637 0.67175,2.4835 l -1.756,0.54712 c -0.23775,-0.75762 -0.45675,-1.59775 -0.70087,-2.59125 l 1.78512,-0.43937 z m 0.67175,2.4835 c 0.21825,0.69562 0.45638,1.321 0.75513,1.9425 l -1.6625,0.7915 c -0.3335,-0.69375 -0.601,-1.39813 -0.84863,-2.18688 l 1.756,-0.54712 z m 0.75513,1.9425 c 0.66262,1.37825 1.711,2.21737 2.91925,2.60537 l -0.56125,1.756 c -1.67025,-0.53637 -3.11488,-1.68625 -4.0205,-3.56987 l 1.6625,-0.7915 z m 2.91925,2.60537 c 1.40962,0.4525 3.04975,0.31388 4.58187,-0.2835 l 0.66975,1.71288 c -1.9155,0.74687 -3.99375,0.91062 -5.81287,0.32662 l 0.56125,-1.756 z m 4.58187,-0.2835 1.59988,-0.624 -0.36538,1.67463 -0.89962,-0.19425 -0.33488,-0.85638 z m 1.2345,1.05063 c -0.434,1.991 -0.69587,4.07762 -0.78375,6.43425 l -1.8425,-0.0645 c 0.0918,-2.46075 0.36813,-4.653 0.827,-6.75813 l 1.79925,0.38838 z m -0.78375,6.43425 c -0.0875,2.35737 0.002,5.00212 0.26863,8.10887 l -1.84263,0.151 c -0.27062,-3.15075 -0.36,-5.86487 -0.2685,-8.32437 l 1.8425,0.0645 z m 0.26863,8.10887 c 0.068,0.79088 0.1495,1.51938 0.243,2.1855 l -1.82125,0.2445 c -0.11588,-0.82662 -0.20513,-1.5885 -0.26438,-2.279 l 1.84263,-0.151 z m 0.243,2.1855 c 0.10312,0.73413 0.22925,1.48538 0.37562,2.249 l -1.80637,0.34575 c -0.14813,-0.772 -0.27925,-1.55587 -0.3905,-2.35025 l 1.82125,-0.2445 z m 0.37562,2.249 -0.0394,0.48963 -0.86387,-0.31675"
       id="path68"
       style="fill:#000000;fill-opacity:1;fill-rule:nonzero;stroke:none"
       inkscape:connector-curvature="0" /><path
       d="m -101.89923,-185.32475 -12.12987,1.97125 -11.0685,4.85175 -9.40075,5.9135 -8.94575,10.91687 -5.05388,5.3525 -4.88662,1.80113 -1.2925,-3.15888 2.25987,-3.262 0.50775,-4.60025 1.51375,0.061 1.654,1.50863 -0.44612,-4.686 -1.83338,-1.22988 0.0556,-1.78575 -4.343,2.45688 -3.93275,4.64 -0.81987,4.147 1.68162,3.32087 1.56863,5.64163 3.19012,1.5105 3.35588,-0.16475 3.18187,-1.84888 -2.1225,10.76525 2.1225,11.97813 -2.3365,5.53074 -7.65287,8.24563 1.36062,4.92625 3.62525,5.70862 6.836,4.81075 3.62588,0.496133 4.03125,0.13675 -2.515,10.32512 9.24912,3.79075 11.5235,1.51613 3.94188,-2.57738 0.30337,-6.97462 4.39725,-7.278003 0.30325,-5.76175 10.613627,0.75825 9.855375,-0.90988 -9.855375,5.91338 1.667875,7.126253 6.216375,9.70375 6.065125,2.57775 4.85175,-1.97113 1.971245,-3.94225 10.15862,-7.73262 1.97113,1.66787 15.92037,0.60625 3.18413,-2.57737 0.30325,-4.54888 -1.06125,-1.970873 -0.75825,-12.28138 -5.30675,-10.61362 0.9095,-4.70062 3.18438,1.66787 8.94575,8.3395 4.39687,0.303 4.85188,-1.97113 4.85225,-3.63862 2.42575,-7.88462 14.25262,0.90962 8.6425005,-3.33575 6.97462,-6.51962 5.0035,-9.40075 1.2132495,-11.06825 -1.0616195,-12.88813 -2.729,-11.52312 -2.7295,-3.639 -3.79025002,-1.21325 -6.67162998,7.278 -6.0647505,2.12275 -5.30687,-8.79413 -5.30675,-4.85187 -2.88113,-1.8195 -11.52312,-9.55238 -9.24913,-5.0035 -9.24912,-0.75825 -10.76488,1.8195 -9.40075,3.48738 -6.51974,5.30675 -5.155125,6.21675 -5.30675,1.51612 -9.249122,8.79413 z"
       id="path70"
       style="fill:#ffff00;fill-opacity:1;fill-rule:evenodd;stroke:#1f1917;stroke-width:0.27000001;stroke-linecap:butt;stroke-linejoin:miter;stroke-miterlimit:10;stroke-dasharray:none;stroke-opacity:1"
       inkscape:connector-curvature="0" /><path
       d="m -137.07898,-157.95975 c -10.39037,12.1185 -8.08225,26.8165 -5.20262,41.21612 -1.53675,-3.88275 -3.07388,-7.76512 -4.6105,-11.64787 -0.56625,-3.55925 -1.1325,-7.1185 -1.69875,-10.67775 0.16162,-3.64013 0.3235,-7.28013 0.4855,-10.92013 1.45587,-3.47812 2.91187,-6.95625 4.36775,-10.43475 2.18412,-3.23537 4.36825,-6.47112 6.55237,-9.70687 3.39725,-2.83113 6.79463,-5.66225 10.19188,-8.49325 3.72087,-1.53675 7.442,-3.07388 11.16287,-4.61063 4.36788,-0.56625 8.736,-1.13237 13.10425,-1.69862 -4.04475,4.6105 -8.089,9.2215 -12.13375,13.832 -9.74225,3.15987 -15.48775,5.288 -22.219,13.14175"
       id="path72"
       style="fill:#ffffcc;fill-opacity:1;fill-rule:evenodd;stroke:none"
       inkscape:connector-curvature="0" /><path
       d="m -88.166103,-194.88313 c -7.223375,7.04725 -11.168875,12.36225 -15.765627,20.61388 -3.28812,5.90287 -6.97637,11.58775 -10.43325,17.40787 -1.74862,2.946 -1.91375,5.41638 -2.43637,8.81338 -1.69863,-2.02225 -3.39725,-4.04438 -5.096,-6.0665 0.809,-2.42688 1.61787,-4.85363 2.42687,-7.28013 2.75025,-4.93437 5.50063,-9.86887 8.25063,-14.80287 5.82412,-5.74338 11.648247,-11.48638 17.472372,-17.22963 1.86025,-0.4855 3.72075,-0.97062 5.581375,-1.456"
       id="path74"
       style="fill:#ffffcc;fill-opacity:1;fill-rule:evenodd;stroke:none"
       inkscape:connector-curvature="0" /><path
       d="m -52.493853,-212.35513 c -5.78513,2.16913 -15.39288,2.8835 -16.05937,9.52363 -0.47475,4.7155 0.3555,7.08487 3.19787,12.07387 -7.02037,-7.2645 -8.75663,-6.14025 -22.325625,-3.88275 1.941375,-2.75037 3.88275,-5.50062 5.824125,-8.251 3.39725,-2.10287 6.795,-4.20625 10.19225,-6.30925 4.36788,-0.97075 8.73613,-1.94137 13.10425,-2.91212 2.02213,-0.0809 4.04438,-0.16163 6.0665,-0.24238"
       id="path76"
       style="fill:#ffffcc;fill-opacity:1;fill-rule:evenodd;stroke:none"
       inkscape:connector-curvature="0" /><path
       d="m -36.530223,-122.53763 c 1.92612,1.18875 1.88475,2.05013 1.56262,2.86513 1.51938,-0.60813 3.03838,-1.21575 4.55775,-1.82313 0.98437,-1.32162 1.96838,-2.64287 2.95262,-3.96487 0.73063,-1.883 1.46125,-3.76588 2.19188,-5.64913 -0.93363,-0.70187 -1.86688,-1.40387 -2.80062,-2.10612 -4.08013,0.52087 -8.16051,1.04175 -12.24063,1.56262 -0.30375,0.82488 -0.60775,1.64975 -0.91175,2.47425 0.0871,1.17213 0.174,2.34388 0.26075,3.516 0.3905,0.6945 0.78137,1.38938 1.17187,2.0835 0.60801,0.304 1.21563,0.608 1.82301,0.91163 0.478,0.0436 0.95525,0.0872 1.4325,0.13012"
       id="path78"
       style="fill:#cccc00;fill-opacity:1;fill-rule:evenodd;stroke:none"
       inkscape:connector-curvature="0" /><path
       d="m -37.669733,-143.47113 c -6.13562,1.77125 -6.08775,2.25913 -7.89974,8.34625 2.39199,-3.83775 4.16299,-5.7745 7.89974,-8.34625"
       id="path80"
       style="fill:#cccc00;fill-opacity:1;fill-rule:evenodd;stroke:none"
       inkscape:connector-curvature="0" /><path
       d="m 3.1282775,-189.02425 c -1.09063,0.50387 -2.15251002,0.7465 -2.83426002,1.74437 -1.46799998,2.14763 -2.72586998,3.95425 -5.15336998,5.462 -1.2225,0.75963 -2.48713,1.2515 -3.78363,1.65538 -1.07537,0.3345 -1.7210005,0.0359 -2.6365005,0.6935 0.54313,0.0949 1.086,0.18987 1.6291305,0.28525 1.19737,0 2.39462,0 3.59187,0 1.47613,-0.91175 2.952,-1.82338 4.42776,-2.73475 0.86848998,-0.91175 1.73624998,-1.823 2.60436998,-2.73475 0.71812002,-1.457 1.43638002,-2.91438 2.15463002,-4.371"
       id="path82"
       style="fill:#cccc00;fill-opacity:1;fill-rule:evenodd;stroke:none"
       inkscape:connector-curvature="0" /><path
       d="m -94.609228,-175.40775 c -2.414125,6.60512 -4.523,12.26737 -8.180122,18.24775 4.685997,-5.0485 7.526372,-9.3395 10.210122,-15.04738 1.042375,-2.217 1.239375,-4.81887 4.143125,-3.85125 0.130375,2.21388 0.5985,4.42738 0.728875,6.64125 1.569,-11.24687 5.993125,-15.94987 16.277625,-20.3145 -2.90838,0.34763 -5.81675,0.6945 -8.72475,1.04175 -2.73475,0.608 -5.469375,1.21538 -8.204125,1.823 -1.34575,1.9535 -2.6915,3.90688 -4.036875,5.86 -0.738125,1.8665 -1.475875,3.73313 -2.213875,5.59938"
       id="path84"
       style="fill:#cccc00;fill-opacity:1;fill-rule:evenodd;stroke:none"
       inkscape:connector-curvature="0" /><path
       d="m -74.685233,-175.66813 c 2.21775,10.43888 5.411,20.45688 6.79825,31.06138 0.90101,6.89062 0.99951,10.20112 -2.46762,16.14575 -3.78887,-0.24488 -6.14125,0.1825 -9.806125,1.38325 -14.59025,4.78287 -22.957752,11.81487 -32.788622,-2.35413 3.13825,1.47863 6.27687,2.95763 9.41487,4.437 2.23725,-0.43975 4.474502,-0.8795 6.711752,-1.31925 3.95,-2.30062 7.900125,-4.601 11.85025,-6.90162 3.081875,-0.608 6.163875,-1.21538 9.245505,-1.823 0.9985,-4.167 1.99662,-8.33425 2.99512,-12.50113 -0.738,-5.51312 -1.47612,-11.02575 -2.21375,-16.5385 -0.0865,-2.60425 -0.17337,-5.20862 -0.2605,-7.81325 0.174,-1.259 0.34763,-2.51762 0.52088,-3.7765"
       id="path86"
       style="fill:#cccc00;fill-opacity:1;fill-rule:evenodd;stroke:none"
       inkscape:connector-curvature="0" /><path
       d="m -49.552233,-111.07788 c -1.22562,8.48088 2.82188,13.040133 1.14625,15.381883 -0.47474,0.66325 -1.11787,1.82012 -1.83575,2.13725 -2.56462,1.13287 -6.09025,-0.21188 -6.3425,0.45149 -2.8215,0 -5.64275,0 -8.46462,0 -1.12813,-0.478 -2.25675,-0.95537 -3.38563,-1.43262 1.73625,-2.04025 3.47275,-4.0805 5.209,-6.120383 1.69263,-3.68962 3.38563,-7.37962 5.07863,-11.06887 1.08537,-3.73287 2.17062,-7.46575 3.25525,-11.199 0.5645,0 1.12887,0 1.693,0 1.21575,3.95013 2.431,7.90013 3.64637,11.85025"
       id="path88"
       style="fill:#cccc00;fill-opacity:1;fill-rule:evenodd;stroke:none"
       inkscape:connector-curvature="0" /><path
       d="m -63.778983,-135.73288 c 0.6875,3.85088 1.88151,4.76575 3.69288,8.49325 -1.20575,6.081 -3.1425,13.31288 -5.47337,18.67825 -0.98288,2.26275 -1.77625,3.51025 -3.50925,5.25888 -2.92575,2.9545 -5.88363,5.528253 -9.202,8.088993 -2.38813,1.84113 -4.055255,0.91776 -7.002255,0.50038 -1.25325,2.272 -1.5995,3.53413 -3.906125,4.6875 -3.547625,1.77375 -6.722375,-2.04875 -9.50675,-4.297 2.010125,3.13975 4.02025,6.27938 6.03,9.41913 1.389375,1.30212 2.778375,2.60437 4.167375,3.90687 1.17175,0.17325 2.343875,0.34688 3.516,0.52088 1.562625,-0.95526 3.125125,-1.91025 4.68775,-2.86513 0.824875,-1.56262 1.649755,-3.12525 2.474255,-4.68775 1.73625,-1.30225 3.47287,-2.60438 5.20875,-3.90688 2.12737,-1.82299 4.25437,-3.64612 6.38112,-5.46912 1.34575,-1.91025 2.69113,-3.820003 4.03688,-5.729873 1.215,-2.25713 2.43075,-4.5145 3.646,-6.77163 1.56262,-4.68775 3.12525,-9.37587 4.68825,-14.06375 0.13,-1.78012 0.26037,-3.55962 0.39037,-5.339 -1.95338,-0.8685 -3.9065,-1.73662 -5.85987,-2.60475 -1.43251,-1.34575 -3.02738,-2.47387 -4.46001,-3.81925"
       id="path90"
       style="fill:#cccc00;fill-opacity:1;fill-rule:evenodd;stroke:none"
       inkscape:connector-curvature="0" /><path
       d="m -110.49598,-108.604 c 6.5725,0 13.513377,-0.3645 19.533127,-3.12513 1.703625,-2.55575 3.385,-4.64287 5.4695,-6.90162 -1.897125,3.583 -2.492,5.60825 -2.995125,9.63637 -0.651375,0.9545 -1.30225,1.90975 -1.9535,2.86475 -4.948625,0.13038 -9.896752,0.26038 -14.845372,0.39075 -1.60613,-0.17387 -3.21238,-0.3475 -4.81825,-0.52087 -0.1735,-0.17388 -0.34713,-0.34751 -0.52075,-0.52088 0.0435,-0.608 0.0871,-1.21562 0.13037,-1.82337"
       id="path92"
       style="fill:#cccc00;fill-opacity:1;fill-rule:evenodd;stroke:none"
       inkscape:connector-curvature="0" /><path
       d="m -111.40773,-113.16175 c -0.17,-1.54063 -0.34012,-3.08188 -0.51025,-4.62325 -1.12287,6.75887 -0.85287,11.28825 -3.9635,17.34275 -2.32375,2.692503 -5.18462,5.142373 -8.46137,6.453373 0.27662,1.66 0.35925,2.69713 0.19875,3.91425 -0.57725,4.37775 -9.33488,2.44387 -12.937,2.2695 5.77987,1.48825 11.55975,2.976 17.33912,4.46425 1.30225,-0.52087 2.60438,-1.04175 3.90688,-1.56262 0.43412,-2.5175 0.86812,-5.03538 1.30225,-7.55288 1.21525,-2.25712 2.431,-4.5145 3.646,-6.77125 0.21687,-1.389373 0.43412,-2.778373 0.65125,-4.167253 -0.39075,-3.25562 -0.78125,-6.51125 -1.17213,-9.76687"
       id="path94"
       style="fill:#cccc00;fill-opacity:1;fill-rule:evenodd;stroke:none"
       inkscape:connector-curvature="0" /><path
       d="m -121.17448,-151.31638 c -0.18175,3.28638 -0.394,4.65663 1.05525,7.55925 1.8425,3.68938 4.10525,7.15538 6.10725,10.80175 0.21675,-2.431 0.43363,-4.86175 0.65088,-7.29237 -2.60438,-3.68975 -5.20875,-7.37938 -7.81338,-11.06863"
       id="path96"
       style="fill:#cccc00;fill-opacity:1;fill-rule:evenodd;stroke:none"
       inkscape:connector-curvature="0" /><path
       d="m -147.90623,-126.49063 c -0.56375,1.19988 -1.1275,2.4 -1.69125,3.59975 1.55163,5.226 2.93063,8.5365 5.88513,13.102 -0.5145,1.85 -0.89963,2.65925 -2.0835,4.167 -2.60013,-0.40012 -4.90888,-0.51562 -7.54338,-0.50775 2.90875,2.257 5.81713,4.51413 8.72513,6.771633 1.43212,-0.2605 2.86475,-0.52088 4.29725,-0.781383 1.43225,-1.4325 2.86475,-2.86475 4.29737,-4.29725 -2.04062,-3.16887 -4.0805,-6.33762 -6.12037,-9.50637 -1.92225,-4.1825 -3.8445,-8.36538 -5.76638,-12.54763"
       id="path98"
       style="fill:#cccc00;fill-opacity:1;fill-rule:evenodd;stroke:none"
       inkscape:connector-curvature="0" /><path
       d="m 3.1473975,-190.75338 c 1.771,7.96925 4.05538,15.32225 3.8435,23.484 -0.26012,10.013 -2.21175,22.66113 -11.48925,28.69938 -10.3896205,6.762 -22.5857505,3.56375 -33.9852505,0.6665 4.64488,1.90975 9.2895,3.81925 13.93375,5.7295 4.34088,0.21712 8.68175,0.434 13.02225,0.65125 2.9520005,-0.8685 5.9035005,-1.73663 8.8551305,-2.60438 2.30061998,-1.91012 4.60137,-3.82 6.90162,-5.72987 1.73625,-3.646 3.4725,-7.2925 5.209,-10.9385 0.6509995,-4.21088 1.3022495,-8.42138 1.9531295,-12.6315 -0.52088,-4.12413 -1.04175,-8.2475 -1.5626295,-12.37113 -0.95487,-4.0805 -1.91012,-8.161 -2.86475,-12.24075 -1.272,-0.905 -2.54412,-1.80962 -3.8165,-2.7145"
       id="path100"
       style="fill:#cccc00;fill-opacity:1;fill-rule:evenodd;stroke:none"
       inkscape:connector-curvature="0" /><path
       d="m -151.90235,-167.00225 c -4.71688,3.06987 -6.56938,4.41775 -6.05238,10.10725 0.46988,1.704 0.94,3.40837 1.41025,5.11225 0.66575,0.45075 1.33188,0.90112 1.99775,1.35187 0.82275,0.27388 1.6455,0.54813 2.46825,0.82238 1.4885,-0.35263 2.97713,-0.70513 4.466,-1.05775 0.76388,-2.37013 1.52788,-4.74013 2.29175,-7.11025 -2.11562,1.03812 -4.231,2.07637 -6.34637,3.1145 -0.48975,0 -0.97938,0 -1.46913,0 -0.5485,-0.84225 -1.097,-1.6845 -1.6455,-2.52675 0.66613,-0.97938 1.332,-1.95875 1.99813,-2.93813 0.3525,-1.86087 0.70512,-3.72187 1.05762,-5.58237 0.45038,0.13712 0.90113,0.27387 1.3515,0.411 0.5485,0.43125 1.097,0.862 1.6455,1.29287 -0.0784,-0.97937 -0.15662,-1.95875 -0.23525,-2.93812 -0.37212,-0.62675 -0.74412,-1.2535 -1.1165,-1.88038 -0.37212,-0.31362 -0.74412,-0.62675 -1.1165,-0.94037 -0.235,0.92087 -0.46987,1.8415 -0.70512,2.762"
       id="path102"
       style="fill:#cccc00;fill-opacity:1;fill-rule:evenodd;stroke:none"
       inkscape:connector-curvature="0" /><path
       d="m -46.080853,-211.83575 c 4.18575,3.887 9.32388,7.26587 12.672,12.0165 1.29575,1.83925 2.73575,2.77962 -0.022,5.37687 2.91363,-0.83225 3.99612,-0.74187 6.32838,-0.45912 4.24275,0.51337 8.21937,6.5445 8.47312,10.86662 -0.05,0.40425 -1.1785,1.32163 -4.459,2.22725 -0.0651,0.12613 -1.85137,-0.2445 -1.807,-0.12362 0.34087,0.93287 0.7965,1.07575 1.492,1.51225 0.151,1.0375 0.24812,2.63725 0.95462,3.7715 2.06438,-0.0361 4.0815,0.1885 6.103,0.58887 0.68025,1.12825 0.5775,2.25638 0.52088,3.38563 0.78125,-0.13 1.56262,-0.26038 2.34387,-0.3905 -0.21725,-1.78013 -0.434,-3.5595 -0.65087,-5.339 0.69412,-1.17213 1.38862,-2.34425 2.08337,-3.516 -0.99875,-2.25713 -1.997,-4.51425 -2.99512,-6.77163 -1.91013,-1.823 -3.82,-3.64612 -5.72988,-5.4695 -0.1835,-0.009 -0.36812,-0.0184 -0.55162,-0.0273 -2.148,-1.3185 -4.29563,-2.63625 -6.44325,-3.95437 -3.50325,-2.86613 -7.0065,-5.73263 -10.50975,-8.59888 -2.60113,-1.69862 -5.20188,-3.39725 -7.80275,-5.09562"
       id="path104"
       style="fill:#cccc00;fill-opacity:1;fill-rule:evenodd;stroke:none"
       inkscape:connector-curvature="0" /><path
       d="m -39.029233,-179.75075 c -0.22075,0.38625 -0.55424,1.0035 -0.98149,1.43087 1.74362,1.64938 2.60387,2.75375 3.22537,5.08638 -1.97113,0.97862 -3.94188,1.95725 -5.913,2.936 -1.66788,1.59875 -3.33575,3.19775 -5.0035,4.7965 -2.19513,-1.18163 -2.74225,-2.08913 -3.8045,-4.34188 -1.237,0.32738 -2.40913,0.64275 -3.43062,0.26788 0.64812,0.005 1.04637,-0.157 1.69375,-0.55738 1.06149,-1.10275 2.12274,-2.20537 3.18399,-3.30812 1.87475,-1.41975 3.7495,-2.8395 5.62388,-4.259 1.22675,-0.4 2.45375,-0.79975 3.6805,-1.19938 0.46837,-0.19275 1.25675,-0.65875 1.72562,-0.85187"
       id="path106"
       style="fill:#cccc00;fill-opacity:1;fill-rule:evenodd;stroke:none"
       inkscape:connector-curvature="0" /><path
       d="m -33.588483,-173.8685 c -6.27099,3.3765 -12.27725,6.77237 -15.48362,13.185 0,-8.13963 8.17263,-11.72263 15.48362,-13.185"
       id="path108"
       style="fill:#cccc00;fill-opacity:1;fill-rule:evenodd;stroke:none"
       inkscape:connector-curvature="0" /><path
       d="m -50.317233,-189.88 c -4.65625,3.17487 -7.94899,9.58187 -7.53512,15.82625 -1.51688,-5.40675 -0.97938,-10.51588 3.67787,-14.2505 0.786,-0.382 1.57151,-0.764 2.357,-1.14588 0.50038,-0.14325 1.00038,-0.28637 1.50025,-0.42987"
       id="path110"
       style="fill:#cccc00;fill-opacity:1;fill-rule:evenodd;stroke:none"
       inkscape:connector-curvature="0" /><path
       d="m -41.416733,-141.67825 c 0.96238,-0.52375 2.7095,-1.244 3.67188,-1.76775 -0.99,0.16725 -2.76487,0.53112 -3.75487,0.698 -2.64438,0.4465 -2.95538,1.08212 -3.36575,3.68575 -0.1935,1.226 -0.45988,2.74712 -0.65338,3.9735 0.51838,-1.3865 1.142,-2.998 1.74613,-4.32038 0.63925,-1.3985 0.99925,-1.53037 2.356,-2.26912 z m -49.06487,-67.05388 c 2.078125,-3.11712 3.274625,-4.13112 6.4725,-6.10587 -4.34225,1.046 -5.17,1.85 -6.4725,6.10587 z m -0.683875,6.86725 c 3.6365,-7.3105 6.39,-10.00237 14.003505,-13.59287 -8.61163,2.11075 -11.143005,3.61175 -14.003505,13.59287 z m -77.874502,38.05163 c 0.798,-3.66063 1.54175,-5.0415 3.79875,-8.0465 -3.66125,2.55787 -4.1385,3.6085 -3.79875,8.0465 z m 81.511627,61.26762 c -0.110125,-0.88825 -0.22075,-1.77725 -0.331625,-2.66562 -0.1995,-1.60938 -0.191625,-2.91725 -0.06338,-4.53725 0.123625,-1.56788 0.246625,-3.13575 0.369875,-4.704 -0.45675,1.59375 -1.3695,3.1875 -1.825875,4.78125 -0.1825,0.63787 -0.33375,1.15375 -0.42025,1.63062 -6.814125,1.39225 -13.578622,1.47938 -20.394502,0.26338 -0.43475,-2.52325 -0.96412,-5.15275 -1.40812,-7.03738 -0.13463,2.11113 -0.0479,7.94725 -0.0589,11.21488 -0.009,2.532 -0.11513,3.39875 -1.4205,5.552373 -1.22238,2.0165 -1.74013,2.47388 -3.45113,5.8805 0.14213,2.14938 0.14488,3.57088 -0.42625,5.61113 -0.95,3.39137 -10.53075,0.76362 -13.0585,0.0716 -3.1125,-0.85187 -9.5475,-2.11825 -7.92925,-6.26775 1.42438,-3.65175 2.32688,-7.501873 3.02275,-12.612123 -5.7025,-8.21475 -11.00612,-19.47288 -12.0235,-29.44738 -0.79012,-7.74525 -0.316,-12.51237 1.36,-17.24987 2.65563,-7.50613 6.3705,-14.00375 12.33213,-19.23588 8.04112,-7.05575 15.55825,-9.89 27.32775,-11.68125 -2.83013,3.16813 -5.63038,6.51863 -8.6825,10.11088 -3.08975,3.63725 -4.926,7.3105 -6.8875,11.28825 -2.71025,5.49425 -2.65225,7.58487 0.94075,12.408 3.09612,4.15662 4.7675,6.02825 6.11925,10.09487 -1.1165,2.30138 -1.52225,4.24588 -1.89775,7.3885 3.791,4.1435 6.60787,6.98313 10.28862,7.858 3.61038,0.85813 6.625627,0.69163 9.855377,-0.95925 7.174125,-3.668 13.811875,-8.40362 21.90438,-8.5995 3.74387,-9.2045 3.3655,-16.89487 1.56787,-25.80025 -1.22737,-6.08175 -1.7195,-11.84037 -2.1015,-18.04075 -1.51787,6.38538 -1.8025,12.00075 -0.67675,18.361 1.35775,7.66525 2.413,16.13375 -1.3635,22.87025 -7.31725,0.56025 -13.5885,5.012 -20.184,8.42775 -2.65075,1.3735 -5.410747,1.507 -8.345247,0.70163 -2.72375,-0.748 -4.56163,-2.54975 -7.49588,-5.934 -0.0457,-3.39763 0.72075,-4.96588 2.28088,-8.04263 2.50687,-4.94137 5.27412,-9.541 8.31037,-14.4035 -3.71825,4.48838 -7.24075,8.2375 -10.16712,12.7495 -1.11863,-3.18712 -2.71775,-4.805 -5.36738,-8.39337 -2.588,-3.50463 -2.85912,-5.03963 -0.92412,-9.09525 1.94562,-4.07588 3.59575,-7.6585 6.90737,-11.23413 5.722,-6.17912 10.96363,-13.05637 17.221127,-19.14162 3.397375,-3.30413 4.77675,-3.19 9.2835,-3.87313 4.073,-0.61725 8.05038,-1.39687 12.2045,-2.362 -4.01775,0.3745 -7.901125,0.51238 -11.81225,0.60938 -0.04075,0.001 -0.08075,0.002 -0.12125,0.002 3.848125,-4.9145 6.08138,-7.65288 12.33113,-10.36838 15.3875,-6.68312 25.1645,-7.40587 37.25187,2.75488 3.13263,2.63337 5.86875,5.18987 9.04538,7.46187 -1.15163,0.0985 -2.14413,0.305 -3.45688,0.82063 1.59763,-0.30438 3.44263,-0.002 5.1005,0.3005 0.46563,0.30187 0.94363,0.59625 1.434,0.88537 2.24188,1.321 3.51463,2.05063 5.03113,4.16375 1.603,2.233 2.93887,4.46425 4.11662,6.92363 -0.77175,-0.27563 -1.41875,-0.50875 -1.9955,-0.68025 -0.4245,-0.1945 -0.88625,-0.32313 -1.37587,-0.37025 -0.96988,-0.0933 -1.89788,0.14525 -2.671,0.62112 -0.0311,0.0145 -0.062,0.0286 -0.0935,0.0439 -1.24025,0.60375 -3.16175,1.29225 -4.44763,1.501 0.6555,0.22638 2.10613,0.31113 2.79038,0.0404 0.0917,-0.0365 0.185,-0.0641 0.28062,-0.0871 -0.30862,0.52513 -0.51025,1.12175 -0.57225,1.766 -0.0821,0.85425 0.0915,1.67413 0.45888,2.386 0.001,0.002 0.002,0.005 0.004,0.007 0.11625,0.27313 0.2775,0.52538 0.455,0.70688 -0.58813,0.21612 -1.18775,0.46375 -1.806,0.73237 2.86725,-0.43687 5.45275,-0.512 8.25162,-0.14312 0.18463,0.88225 0.37063,1.817 0.54288,2.768 -0.34688,0.0276 -0.69275,0.0539 -1.03925,0.0811 -0.028,0.002 -0.0564,0.005 -0.0844,0.007 -1.32412,-1.05838 -2.7995,-0.8805 -4.815,-0.4205 -6.12925,1.39775 -4.68887,4.83725 -7.509,10.01937 2.92788,-3.57912 2.711,-7.32362 7.48213,-8.45362 1.11187,-0.26325 1.86875,-0.5925 2.62125,-0.47938 -1.3545,0.68138 -2.52638,1.81063 -2.99088,3.122 -1.30962,3.69813 -0.49637,6.81413 -1.935,10.26813 1.78225,-3.08763 1.88963,-6.10125 3.48313,-9.34975 0.57225,-1.16713 2.69637,-3.03513 4.00037,-3.06388 0.35788,-0.007 0.715,-0.0153 1.07325,-0.023 0.31425,2.05575 0.50525,4.09638 0.38338,5.78938 -0.22213,3.089 -1.02475,7.67412 -1.50513,9.42837 1.61425,-2.075 2.3495,-6.47012 3.0585,-9.56375 0.7385,-3.22187 0.55213,-7.08762 -0.0942,-10.54837 -0.88687,-4.74875 4.0036305,-3.97638 6.8428805,-6.21425 2.087,-1.6455 3.5235,-4.2725 5.43711998,-6.1335 1.89825002,-1.84538 4.88588002,0.86637 5.63213002,2.67062 3.2375,7.83138 4.7122495,20.1525 3.85725,28.047 -0.9595,8.85863 -5.23875,18.52938 -13.05213,22.89088 -9.9602505,5.55912 -21.7045005,2.16275 -31.6002505,-1.17113 -2.11212,-0.7115 -3.58087,-1.74862 -5.43762,-2.91825 0.50562,2.27625 0.73525,4.68538 0.0627,6.95875 -1.06763,3.60675 -2.79175,9.50813 2.1055,10.59663 1.86375,0.41412 2.70887,0.35425 5.34037,-1.0035 -2.12987,0.4815 -3.2035,0.3635 -4.66725,0.0931 -1.3265,-0.24437 -2.02987,-1.08737 -2.4005,-2.08087 0.46338,0.33475 1.21925,0.51687 2.51075,0.828 3.6305,0.87487 7.09013,-0.87238 7.76663,-3.39025 0.39462,-1.47075 0.32737,-2.24325 1.16325,-4.24738 0.75075,0.23138 1.52787,0.44325 2.32437,0.63575 -0.44925,1.46588 -0.89925,2.9335 -1.34887,4.39938 -1.16688,3.80612 -5.71263,6.87537 -9.72675,6.80487 -3.71063,-0.0659 -6.063,-2.39025 -8.6245,-4.669 -1.76488,-1.57037 -3.46313,-3.07275 -5.14663,-4.56062 -4.618,-1.457 -8.31962,-3.15988 -12.60562,-6.33288 3.05,3.58475 5.11937,5.569 9.37312,7.35263 -0.619,6.31037 -2.812,10.91125 -4.68175,16.9505 -0.84587,2.73125 -7.52675,13.672873 -9.37812,14.739873 -1.32025,0.76038 -9.58888,7.72538 -11.144755,8.64388 -1.158375,1.53887 -2.17525,3.6645 -3.91675,4.585 -5.30725,2.80625 -8.717625,-2.56713 -11.573875,-7.10575 -1.30075,-2.0675 -4.911377,-8.02238 -1.7635,-9.690633 2.976375,-1.57675 4.643125,-2.70275 7.67975,-4.69625 0.446125,0.81313 1.212125,1.59763 1.711,2.41013 z m 18.45038,9.621503 c -2.68688,2.17063 -7.20525,6.013 -8.08188,6.49425 -1.58738,2.36937 -1.78337,3.83562 -4.326375,5.21213 -7.57025,4.09637 -11.588,-0.65438 -16.06925,-7.56038 -2.13525,-3.29062 -6.803872,-10.8035 -1.849625,-13.350373 2.087375,-1.07301 3.6695,-1.87726 5.247625,-2.79638 -5.197375,0.64488 -10.298252,0.65263 -15.602252,-0.14537 0.0939,0.64 0.17575,1.249 0.242,1.8075 0.34475,2.898 0.45788,3.786753 -1.1165,6.121753 -1.14762,1.70287 -1.58987,2.19574 -2.976,5.28949 0.25225,2.51501 0.14275,3.93051 -0.56687,6.56463 -1.5775,5.85387 -12.509,2.64513 -16.96325,1.44037 -5.35963,-1.44925 -13.01813,-2.79887 -9.87563,-9.68949 0.73638,-1.61438 1.31463,-3.2655 1.74975,-4.84025 -4.68637,2.07425 -11.199,-2.325763 -14.30075,-5.435383 -2.95025,-2.958 -4.55287,-6.39287 -5.11125,-9.726 -0.4755,-2.83675 -0.0401,-2.823 1.98425,-4.8285 1.852,-1.83325 3.70338,-3.66875 5.55488,-5.501 0.74762,-2.03525 1.49662,-4.06875 2.24387,-6.10262 -0.29125,-1.51938 -0.50775,-3.03488 -0.63675,-4.53575 -0.53787,-6.25788 -0.35712,-10.71425 0.53688,-14.811 -3.26088,1.27237 -7.00263,0.67637 -8.66688,-2.78438 -0.63287,-1.31562 -1.00987,-2.65575 -1.48787,-4.60137 -7.27413,-7.00863 6.35737,-16.19675 10.334,-16.88775 -0.45463,1.29187 -0.95275,2.47362 -1.39113,3.64537 2.69688,1.39613 2.36625,5.37413 1.79363,7.93525 -0.97013,-1.22425 -1.50625,-2.82512 -2.93313,-2.89387 -0.209,2.89637 -0.17287,6.097 -2.43487,7.7975 0.66962,1.79 0.6345,1.7915 2.53762,1.05975 2.70288,-1.04063 4.73813,-3.35875 6.7855,-5.62113 2.205,-4.29512 5.0315,-8.11587 8.91988,-11.56325 9.55525,-8.47162 18.58712,-11.24325 33.13025,-13.56087 1.93575,-2.02013 3.936247,-3.96925 6.083497,-5.8645 2.909125,-2.56713 4.798,-3.10013 7.549375,-3.24363 4.552875,-6.08987 8.135125,-10.33087 15.558005,-13.45537 15.559,-6.549 26.2835,-6.86475 38.77162,3.43212 4.12688,3.40225 7.64638,6.98775 12.18187,9.828 2.29525,1.43725 3.93551,2.47038 5.67563,4.54263 2.18837,2.60775 3.97562,5.21562 5.21962,8.57225 1.6072605,-0.6615 3.4402505,-1.28475 4.9202605,-2.54975 1.91087,-1.63275 3.12662,-4.36575 4.8965,-6.15975 2.34924998,-2.38063 7.70812,0.49325 8.89475,2.7645 4.0358695,7.72375 5.6869995,21.95862 4.8292495,30.42362 -1.06025,10.46413 -5.3738795,20.35625 -14.5931295,25.2765 -6.2685,3.3445 -14.6817505,3.656 -21.8817505,2.295 -0.46662,1.53538 -0.9315,3.07063 -1.39812,4.606 -1.4,4.60063 -6.86488,8.36113 -11.63875,8.58675 -4.58363,0.21625 -7.06825,-2.14937 -10.07438,-5.04487 -1.57712,-1.51938 -3.15525,-3.03775 -4.73237,-4.55713 -0.0917,1.035 -0.22713,2.0275 -0.39763,2.98813 1.24163,2.45162 1.838,4.607 2.90063,7.13437 1.16925,2.78338 1.73837,4.61025 1.81875,7.58913 0.0705,2.64437 0.14137,5.2895 0.21225,7.93375 1.1795,2.095623 1.28262,2.605503 1.11087,5.003623 -0.36325,5.05413 -3.14687,5.53638 -7.78612,5.50725 -1.54563,-0.01 -7.37963,0.0263 -8.86675,-0.0811 -2.95625,-0.21363 -4.905,-0.43938 -5.92375,-1.66038 z m 15.643,-27.571123 c -0.93325,3.33275 -2.18763,6.47887 -3.33275,10.08487 -1.08363,3.41362 -6.64163,13.326123 -9.91313,15.728373 0.63675,0.47413 1.80563,0.65988 3.88763,0.83951 1.473,0.12712 7.28012,0.15412 8.73825,0.17924 3.21012,0.056 4.42837,-0.18525 4.753,-3.84062 0.15862,-1.78938 0.0187,-2.12388 -0.87638,-3.692503 -0.0794,-2.79775 -0.15863,-5.59625 -0.23737,-8.394 -0.0747,-2.6525 -0.58388,-4.18038 -1.62675,-6.65225 -0.62425,-1.47937 -0.963,-2.86012 -1.3925,-4.25262 z M -151.2146,-166.2805 c 0.72062,-0.0819 1.16637,0.29625 1.72375,0.85325 -0.10313,-1.33088 -0.349,-2.31763 -1.28338,-2.86163 -0.0655,0.2165 -0.12712,0.43263 -0.18525,0.65238 -0.11312,0.42837 -0.19387,0.88337 -0.25512,1.356 z m 4.528,9.61587 c -0.51875,1.34213 -1,2.7255 -1.45313,4.15488 -0.0751,0.23625 -0.14712,0.47412 -0.21725,0.71075 -2.74112,1.16262 -6.34537,1.90137 -7.72512,-0.97938 -0.67,-1.39812 -1.04813,-2.77012 -1.53675,-4.5375 -4.51413,-4.6765 2.23375,-10.85037 5.90925,-13.06487 -0.53188,1.14337 -0.90963,2.009 -1.1675,2.90012 -1.11763,3.86225 0.50587,7.30913 -2.9995,10.10913 1.64737,3.32425 1.5715,4.64987 5.40425,3.11375 1.47862,-0.59238 2.69787,-1.424 3.78575,-2.40688 z m -1.05625,31.47125 c 2.07775,7.18588 5.61612,14.24663 9.53887,20.18238 -3.7e-4,0.0344 -7.5e-4,0.0684 -0.001,0.10337 -0.24562,1.0205 -0.53012,2.01513 -1.12612,2.81338 -2.80375,3.751003 -9.93613,-1.75526 -12.0005,-3.86288 -2.25675,-2.30425 -3.76725,-5.03325 -4.12688,-7.59225 -0.2615,-1.867 -0.008,-1.91225 1.29475,-3.23288 1.75538,-1.777 3.5125,-3.55537 5.26713,-5.332 0.38412,-1.02687 0.76962,-2.05262 1.15375,-3.07912 z m 132.768747,-57.67612 c 0.4,0.39537 0.72275,0.86625 0.94538,1.38712 0.12112,-0.11125 0.25087,-0.2165 0.3865,-0.31637 -0.16438,-0.37025 -0.33163,-0.73525 -0.50238,-1.09488 -0.28425,0.006 -0.56025,0.0141 -0.8295,0.0241 z m -34.34462,12.92562 c -0.36563,-0.76675 -0.54063,-1.57575 -0.547,-2.37475 -1.34575,1.075 -2.80888,2.09413 -4.32713,2.683 2.09625,-1.872 4.94363,-6.28687 7.00687,-7.6805 2.34138,-1.58212 5.51901,-1.27412 8.24888,-2.537 -0.932,0.84688 -2.12637,1.52925 -3.3425,2.17875 1.33975,0.49038 2.49737,1.4825 3.15787,2.86725 0.2785,0.584 0.445,1.19375 0.51238,1.80388 1.834,-0.60238 3.635,-0.8875 5.15612,-0.86563 -5.44137,1.5275 -11.22937,5.09988 -15.22025,9.83063 0.44825,-1.23375 1.07475,-2.34713 1.82938,-3.34138 -1.04588,-0.54675 -1.92888,-1.42087 -2.47463,-2.56425 z m -25.23325,-19.68487 c -3.00475,1.1725 -5.745505,2.05225 -8.674755,2.78825 -2.67275,3.51275 -4.300875,5.33262 -4.916,10.041 -0.7235,-4.63188 -0.874125,-5.49175 1.187375,-8.949 -0.597375,0.30362 -1.153,0.72112 -1.949125,1.40175 -2.88,2.46262 -6.634125,12.14012 -8.135125,15.60012 0.95275,-4.1645 3.933125,-14.574 7.002625,-17.60812 2.018625,-1.99563 2.476375,-1.94988 5.32275,-2.21913 3.39025,-0.32137 6.773755,-0.67187 10.162255,-1.05487 z m 62.71787,10.09775 c 2.4375005,0.23062 3.8311205,0.60687 6.0137505,-0.47275 4.06838,-2.01325 7.06188,-5.3 9.00288,-9.231 -1.18738,4.68987 -3.57700002,8.67512 -8.53375,10.44287 -2.43425,0.86738 -4.00388,-0.0284 -6.4828805,-0.73912 z m -46.78112,0.45812 c 0.91837,-4.067 2.54899,-7.98562 8.86537,-11.01725 -8.37187,2.09625 -9.9415,5.61225 -8.86537,11.01725 z m -108.555627,21.903 c 0.71825,-8.13337 2.3,-11.64437 8.07875,-17.76512 -7.24825,5.10725 -9.057,7.42812 -8.07875,17.76512"
       id="path136"
       style="fill:#000000;fill-opacity:1;fill-rule:evenodd;stroke:none"
       inkscape:connector-curvature="0" /><path
       d="m -48.226603,-168.63463 c -0.5595,-1.17 -0.0593,-2.57987 1.11362,-3.138 1.17313,-0.55875 2.58588,-0.0595 3.14538,1.11125 0.0531,0.11088 0.0954,0.225 0.12975,0.33938 -1.12012,0.83087 -2.14725,1.81062 -3.008,2.94525 -0.58038,-0.23313 -1.09337,-0.657 -1.38075,-1.25788"
       id="path138"
       style="fill:#ffffcc;fill-opacity:1;fill-rule:evenodd;stroke:none"
       inkscape:connector-curvature="0" /><path
       d="m -22.016853,-178.77388 c 0.0936,-0.96937 0.92025,-1.68412 1.88937,-1.5905 0.96901,0.0939 1.6845,0.96013 1.59125,1.92963 -0.0199,0.20625 -0.0757,0.39975 -0.15937,0.57787 -0.88725,0.151 -1.77425,0.41138 -2.68838,0.74738 -0.38237,-0.39125 -0.68662,-1.1055 -0.63287,-1.66438"
       id="path140"
       style="fill:#ffffcc;fill-opacity:1;fill-rule:evenodd;stroke:none"
       inkscape:connector-curvature="0" /></g><path
     inkscape:transform-center-y="-1.5566024"
     inkscape:transform-center-x="0.34789098"
     d="m 211.60827,74.824 -0.0332,103.56153 -89.70351,51.75202 -89.670315,-51.80951 0.03319,-103.561527 89.703505,-51.752019 z"
     inkscape:randomized="0"
     inkscape:rounded="0"
     inkscape:flatsided="true"
     sodipodi:arg2="0.0003204856"
     sodipodi:arg1="-0.52327829"
     sodipodi:r2="103.56153"
     sodipodi:r1="103.56153"
     sodipodi:cy="126.57602"
     sodipodi:cx="121.90476"
     sodipodi:sides="6"
     id="path7936"
     style="color:#000000;display:inline;overflow:visible;visibility:visible;fill:none;fill-opacity:1;fill-rule:nonzero;stroke:#0093d9;stroke-width:1.16022968;stroke-linecap:round;stroke-linejoin:miter;stroke-miterlimit:4;stroke-dasharray:2.32045933, 4.64091866;stroke-dashoffset:7.51718092;stroke-opacity:1;marker:none;enable-background:accumulate"
     sodipodi:type="star"
     transform="matrix(0.86033583,0,0,0.86346349,-14.017367,-4.0361289)" /></svg>