<?xml version="1.0" encoding="UTF-8" standalone="no"?>
<!-- Created with Inkscape (http://www.inkscape.org/) -->

<svg
   xmlns:dc="http://purl.org/dc/elements/1.1/"
   xmlns:cc="http://creativecommons.org/ns#"
   xmlns:rdf="http://www.w3.org/1999/02/22-rdf-syntax-ns#"
   xmlns:svg="http://www.w3.org/2000/svg"
   xmlns="http://www.w3.org/2000/svg"
   xmlns:sodipodi="http://sodipodi.sourceforge.net/DTD/sodipodi-0.dtd"
   xmlns:inkscape="http://www.inkscape.org/namespaces/inkscape"
   id="svg2"
   version="1.1"
   inkscape:version="0.91 r13725"
   xml:space="preserve"
   width="184.26515"
   height="213.44971"
   viewBox="0 0 184.26515 213.44971"
   sodipodi:docname="php_complete.svg"><metadata
     id="metadata8"><rdf:RDF><cc:Work
         rdf:about=""><dc:format>image/svg+xml</dc:format><dc:type
           rdf:resource="http://purl.org/dc/dcmitype/StillImage" /><dc:title></dc:title></cc:Work></rdf:RDF></metadata><defs
     id="defs6"><clipPath
       clipPathUnits="userSpaceOnUse"
       id="clipPath18"><path
         d="m 2764.8,0 c 1526.93,0 2764.81,651.164 2764.81,1454.39 0,803.24 -1237.88,1454.4 -2764.81,1454.4 C 1237.87,2908.79 0,2257.63 0,1454.39 0,651.164 1237.87,0 2764.8,0"
         id="path20"
         inkscape:connector-curvature="0" /></clipPath><clipPath
       clipPathUnits="userSpaceOnUse"
       id="clipPath5955"><path
         style="color:#000000;display:inline;overflow:visible;visibility:visible;fill:none;fill-opacity:1;fill-rule:nonzero;stroke:#0093d9;stroke-width:0.79999995;stroke-linecap:round;stroke-linejoin:miter;stroke-miterlimit:4;stroke-dasharray:1.59999985, 3.19999969;stroke-dashoffset:7.51718092;stroke-opacity:1;marker:none;enable-background:accumulate"
         d="m -64.662109,271.92383 c -23.375644,13.5547 -46.751351,27.10929 -70.126951,40.66406 0.009,28.45313 0.0192,56.90625 0.0254,85.35938 24.57002,14.22529 49.137552,28.45488 73.708982,42.67773 24.559664,-14.24081 49.118381,-28.48326 73.677735,-42.72461 -0.0095,-28.45247 -0.01916,-56.90495 -0.02539,-85.35742 -24.569138,-14.22569 -49.137596,-28.45256 -73.707031,-42.67774 -1.184245,0.6862 -2.36849,1.3724 -3.552734,2.0586 z"
         id="path5957"
         inkscape:connector-curvature="0" /></clipPath></defs><sodipodi:namedview
     pagecolor="#ffffff"
     bordercolor="#666666"
     borderopacity="1"
     objecttolerance="10"
     gridtolerance="10"
     guidetolerance="10"
     inkscape:pageopacity="0"
     inkscape:pageshadow="2"
     inkscape:window-width="1366"
     inkscape:window-height="704"
     id="namedview4"
     showgrid="false"
     fit-margin-top="0"
     fit-margin-left="0"
     fit-margin-right="0"
     fit-margin-bottom="0"
     inkscape:zoom="1.9907407"
     inkscape:cx="143.20523"
     inkscape:cy="119.11003"
     inkscape:window-x="0"
     inkscape:window-y="27"
     inkscape:window-maximized="1"
     inkscape:current-layer="g10" /><g
     id="g10"
     inkscape:groupmode="layer"
     inkscape:label="ink_ext_XXXXXX"
     transform="matrix(1.25,0,0,-1.25,168.48633,550.78125)"><path
       inkscape:connector-curvature="0"
       id="path900"
       style="fill:#617cbe;fill-opacity:1;fill-rule:nonzero;stroke:none"
       d="m -61.098215,257.89591 c 66.7921892,0 120.939615,43.60837 120.939615,97.40065 0,53.79234 -54.1474258,97.40121 -120.939615,97.40121 -66.792195,0 -120.939615,-43.60887 -120.939615,-97.40121 0,-53.79228 54.14742,-97.40065 120.939615,-97.40065"
       clip-path="url(#clipPath5955)" /><g
       id="g5938"
       transform="translate(-0.64186267,-2.9629368)"><path
         d="m -46.701465,344.08099 c 0,0 3.427342,17.63703 3.427342,17.63729 0.773102,3.98097 0.13002,6.95064 -1.911562,8.82657 -1.976833,1.81561 -5.333443,2.69819 -10.261482,2.69819 l -5.934658,0 1.698848,8.73894 c 0.06397,0.32947 -0.02288,0.67013 -0.236117,0.92913 -0.213494,0.25874 -0.531524,0.40852 -0.866977,0.40852 l -8.191295,0 c -0.537764,0 -1.000118,-0.38096 -1.102574,-0.90884 l -3.639275,-18.72452 c -0.331292,2.10685 -1.146261,3.9183 -2.451407,5.41223 -2.40252,2.7502 -6.203281,4.14454 -11.296446,4.14454 l -15.876812,0 c -0.53776,0 -1.00012,-0.38096 -1.10257,-0.90885 l -7.36655,-37.90117 c -0.064,-0.32931 0.0225,-0.66992 0.23596,-0.92863 0.21331,-0.25882 0.53127,-0.40884 0.86687,-0.40884 l 8.25641,0 c 0.53751,0 0.99986,0.38112 1.10258,0.90882 l 1.781799,9.16778 6.145552,0 c 3.22581,0 5.934398,0.34941 8.050092,1.03834 2.163282,0.70315 4.153637,1.89596 5.908394,3.53838 1.417484,1.3028 2.589229,2.76112 3.490792,4.33436 l -1.472093,-7.57369 c -0.06397,-0.32922 0.02262,-0.66987 0.236117,-0.92856 0.213494,-0.25882 0.531264,-0.40883 0.866717,-0.40883 l 8.191295,0 c 0.537765,0 1.000378,0.38111 1.102834,0.90884 l 4.042859,20.80459 5.620528,0 c 2.395239,0 3.09631,-0.47718 3.28666,-0.68209 0.173447,-0.18723 0.533604,-0.84643 0.130021,-2.92416 l -3.258836,-16.76979 c -0.06397,-0.32922 0.02262,-0.66987 0.236118,-0.92856 0.213493,-0.25882 0.531264,-0.40883 0.866717,-0.40883 l 8.321315,0 c 0.537765,0 1.000118,0.38111 1.102834,0.90884 z m -37.975882,14.57296 c -0.514361,-2.64384 -1.484054,-4.52991 -2.881775,-5.60622 -1.420345,-1.09348 -3.692064,-1.64814 -6.752488,-1.64814 l -3.659038,0 2.646178,13.61601 4.730668,0 c 3.475969,0 4.876031,-0.74294 5.43824,-1.366 0.779343,-0.86411 0.944729,-2.59183 0.478215,-4.99565"
         style="fill:#ffffff;fill-opacity:1;fill-rule:nonzero;stroke:none"
         id="path902"
         inkscape:connector-curvature="0" /><path
         d="m -11.672368,369.0985 c -2.40252,2.7502 -6.203281,4.14454 -11.296186,4.14454 l -15.876809,0 c -0.538025,0 -1.000118,-0.38096 -1.102834,-0.90885 l -7.366445,-37.90117 c -0.06397,-0.32931 0.02262,-0.66992 0.235858,-0.92863 0.213493,-0.25882 0.531264,-0.40884 0.866977,-0.40884 l 8.256305,0 c 0.537505,0 1.000118,0.38112 1.102314,0.90882 l 1.782061,9.16778 6.145812,0 c 3.22555,0 5.934138,0.34941 8.050092,1.03834 2.163022,0.70315 4.153377,1.89596 5.908134,3.53838 1.463771,1.34519 2.668282,2.85525 3.580766,4.48753 0.910924,1.63072 1.5657073,3.45074 1.9464075,5.40937 0.9390084,4.82897 0.1877497,8.68226 -2.2324525,11.45273 z m -8.562634,-10.44455 c -0.514621,-2.64384 -1.484054,-4.52991 -2.881775,-5.60622 -1.420345,-1.09348 -3.692324,-1.64814 -6.752227,-1.64814 l -3.659559,0 2.646178,13.61601 4.730928,0 c 3.47571,0 4.876031,-0.74294 5.43824,-1.366 0.779343,-0.86411 0.944729,-2.59183 0.478215,-4.99565"
         style="fill:#ffffff;fill-opacity:1;fill-rule:nonzero;stroke:none"
         id="path904"
         inkscape:connector-curvature="0" /><path
         d="m -90.593802,366.13872 c 3.136876,0 5.227346,-0.57886 6.272451,-1.73682 1.044325,-1.15796 1.293185,-3.14598 0.746578,-5.96248 -0.57079,-2.93379 -1.669724,-5.02738 -3.299141,-6.28207 -1.629418,-1.25444 -4.10891,-1.88114 -7.437696,-1.88114 l -5.021913,0 3.082787,15.86251 5.656934,0 z m -20.116568,-31.92002 8.25635,0 1.95837,10.07656 7.071821,0 c 3.120493,0 5.687359,0.32713 7.702677,0.98374 2.015319,0.65478 3.846788,1.75424 5.495449,3.29706 1.383678,1.2716 2.502895,2.67426 3.360251,4.2085 0.856315,1.53243 1.464811,3.22477 1.824448,5.07575 0.873478,4.49273 0.214274,7.9921 -1.975792,10.49916 -2.190066,2.50679 -5.674097,3.76019 -10.450272,3.76019 l -15.876812,0 -7.36649,-37.90096"
         style="fill:#08090d;fill-opacity:1;fill-rule:nonzero;stroke:none"
         id="path906"
         inkscape:connector-curvature="0" /><path
         d="m -68.977366,382.19625 8.191295,0 -1.958369,-10.07659 7.297273,0 c 4.591546,0 7.758586,-0.80145 9.501642,-2.40226 1.743315,-1.60185 2.265218,-4.19706 1.568568,-7.78485 l -3.427342,-17.63729 -8.321315,0 3.258575,16.76979 c 0.370818,1.90766 0.234817,3.20891 -0.409305,3.9027 -0.643862,0.69379 -2.014278,1.04094 -4.10995,1.04094 l -6.546534,0 -4.219687,-21.71343 -8.191295,0 7.366444,37.90099"
         style="fill:#08090d;fill-opacity:1;fill-rule:nonzero;stroke:none"
         id="path908"
         inkscape:connector-curvature="0" /><path
         d="m -26.151457,366.13872 c 3.136616,0 5.227086,-0.57886 6.272452,-1.73682 1.044325,-1.15796 1.293184,-3.14598 0.746578,-5.96248 -0.570791,-2.93379 -1.669724,-5.02738 -3.299142,-6.28207 -1.629417,-1.25444 -4.108909,-1.88114 -7.437435,-1.88114 l -5.022174,0 3.082787,15.86251 5.656934,0 z m -20.116519,-31.92002 8.256305,0 1.958369,10.07656 7.071818,0 c 3.120493,0 5.687359,0.32713 7.702677,0.98374 2.015319,0.65478 3.846788,1.75424 5.495449,3.29706 1.383419,1.2716 2.502896,2.67426 3.360251,4.2085 0.856315,1.53243 1.464812,3.22477 1.824188,5.07575 0.8737384,4.49273 0.214534,7.9921 -1.975532,10.49916 -2.190066,2.50679 -5.673837,3.76019 -10.450532,3.76019 l -15.876549,0 -7.366444,-37.90096"
         style="fill:#08090d;fill-opacity:1;fill-rule:nonzero;stroke:none"
         id="path910"
         inkscape:connector-curvature="0" /></g><path
       inkscape:transform-center-y="-1.5566024"
       inkscape:transform-center-x="0.34789098"
       d="m 211.60827,74.824 -0.0332,103.56153 -89.70351,51.75202 -89.670315,-51.80951 0.03319,-103.561527 89.703505,-51.752019 z"
       inkscape:randomized="0"
       inkscape:rounded="0"
       inkscape:flatsided="true"
       sodipodi:arg2="0.0003204856"
       sodipodi:arg1="-0.52327829"
       sodipodi:r2="103.56153"
       sodipodi:r1="103.56153"
       sodipodi:cy="126.57602"
       sodipodi:cx="121.90476"
       sodipodi:sides="6"
       id="path7936"
       style="color:#000000;display:inline;overflow:visible;visibility:visible;fill:none;fill-opacity:1;fill-rule:nonzero;stroke:#0093d9;stroke-width:1.16022968;stroke-linecap:round;stroke-linejoin:miter;stroke-miterlimit:4;stroke-dasharray:2.32045933, 4.64091866;stroke-dashoffset:7.51718092;stroke-opacity:1;marker:none;enable-background:accumulate"
       sodipodi:type="star"
       transform="matrix(0.68826866,0,0,-0.69077079,-144.98602,442.67967)" /></g></svg>