<?xml version="1.0" encoding="UTF-8" standalone="no"?>
<!-- Created with Inkscape (http://www.inkscape.org/) -->

<svg
   xmlns:dc="http://purl.org/dc/elements/1.1/"
   xmlns:cc="http://creativecommons.org/ns#"
   xmlns:rdf="http://www.w3.org/1999/02/22-rdf-syntax-ns#"
   xmlns:svg="http://www.w3.org/2000/svg"
   xmlns="http://www.w3.org/2000/svg"
   xmlns:sodipodi="http://sodipodi.sourceforge.net/DTD/sodipodi-0.dtd"
   xmlns:inkscape="http://www.inkscape.org/namespaces/inkscape"
   width="51.003376mm"
   height="59.084763mm"
   viewBox="0 0 180.72063 209.35547"
   id="svg3727"
   version="1.1"
   inkscape:version="0.91 r13725"
   sodipodi:docname="c_complete.svg">
  <defs
     id="defs3729">
    <clipPath
       clipPathUnits="userSpaceOnUse"
       id="clipPath3927">
      <g
         id="g3929"
         transform="matrix(1.6013549,0,0,1.6013549,-657.797,-433.84495)">
        <path
           sodipodi:type="star"
           style="color:#000000;display:inline;overflow:visible;visibility:visible;fill:none;fill-opacity:1;fill-rule:nonzero;stroke:#0093d9;stroke-width:1.16022968;stroke-linecap:round;stroke-linejoin:miter;stroke-miterlimit:4;stroke-dasharray:2.32045933, 4.64091866;stroke-dashoffset:7.51718092;stroke-opacity:1;marker:none;enable-background:accumulate"
           id="path3931"
           sodipodi:sides="6"
           sodipodi:cx="121.90476"
           sodipodi:cy="126.57602"
           sodipodi:r1="103.56153"
           sodipodi:r2="103.56153"
           sodipodi:arg1="-0.52327829"
           sodipodi:arg2="0.0003204856"
           inkscape:flatsided="true"
           inkscape:rounded="0"
           inkscape:randomized="0"
           d="m 211.60827,74.824 -0.0332,103.56153 -89.70351,51.75202 -89.670315,-51.80951 0.03319,-103.561527 89.703505,-51.752019 z"
           inkscape:transform-center-x="0.34789098"
           inkscape:transform-center-y="-1.5566024"
           transform="matrix(0.86033594,0,0,0.86346354,277.62095,265.70622)" />
      </g>
    </clipPath>
    <clipPath
       clipPathUnits="userSpaceOnUse"
       id="clipPath4151">
      <path
         style="color:#000000;display:inline;overflow:visible;visibility:visible;fill:none;fill-opacity:1;fill-rule:nonzero;stroke:#0093d9;stroke-width:1;stroke-linecap:round;stroke-linejoin:miter;stroke-miterlimit:4;stroke-dasharray:2, 4;stroke-dashoffset:7.51718092;stroke-opacity:1;marker:none;enable-background:accumulate"
         d="m 356.9707,251.94922 c -28.93593,16.75501 -57.87241,33.50908 -86.80859,50.26367 -0.008,34.88542 -0.0198,69.77083 -0.0312,104.65625 30.10956,17.45866 60.21743,34.92024 90.32812,52.37695 30.12085,-17.43941 60.24079,-34.88038 90.36133,-52.32031 0.008,-34.88476 0.0198,-69.76953 0.0312,-104.6543 -30.10937,-17.46029 -60.21904,-34.92007 -90.32812,-52.38086 -1.18425,0.6862 -2.36849,1.3724 -3.55274,2.0586 z"
         id="path4153"
         inkscape:connector-curvature="0" />
    </clipPath>
    <clipPath
       clipPathUnits="userSpaceOnUse"
       id="clipPath4155">
      <path
         style="color:#000000;display:inline;overflow:visible;visibility:visible;fill:none;fill-opacity:1;fill-rule:nonzero;stroke:#0093d9;stroke-width:1;stroke-linecap:round;stroke-linejoin:miter;stroke-miterlimit:4;stroke-dasharray:2, 4;stroke-dashoffset:7.51718092;stroke-opacity:1;marker:none;enable-background:accumulate"
         d="m 356.9707,251.94922 c -28.93593,16.75501 -57.87241,33.50908 -86.80859,50.26367 -0.008,34.88542 -0.0198,69.77083 -0.0312,104.65625 30.10956,17.45866 60.21743,34.92024 90.32812,52.37695 30.12085,-17.43941 60.24079,-34.88038 90.36133,-52.32031 0.008,-34.88476 0.0198,-69.76953 0.0312,-104.6543 -30.10937,-17.46029 -60.21904,-34.92007 -90.32812,-52.38086 -1.18425,0.6862 -2.36849,1.3724 -3.55274,2.0586 z"
         id="path4157"
         inkscape:connector-curvature="0" />
    </clipPath>
  </defs>
  <sodipodi:namedview
     id="base"
     pagecolor="#ffffff"
     bordercolor="#666666"
     borderopacity="1.0"
     inkscape:pageopacity="0.0"
     inkscape:pageshadow="2"
     inkscape:zoom="1.4428881"
     inkscape:cx="182.85202"
     inkscape:cy="93.937435"
     inkscape:document-units="cm"
     inkscape:current-layer="layer1"
     showgrid="false"
     fit-margin-top="0"
     fit-margin-left="0"
     fit-margin-right="0"
     fit-margin-bottom="0"
     inkscape:window-width="1366"
     inkscape:window-height="704"
     inkscape:window-x="0"
     inkscape:window-y="27"
     inkscape:window-maximized="1" />
  <metadata
     id="metadata3732">
    <rdf:RDF>
      <cc:Work
         rdf:about="">
        <dc:format>image/svg+xml</dc:format>
        <dc:type
           rdf:resource="http://purl.org/dc/dcmitype/StillImage" />
        <dc:title></dc:title>
      </cc:Work>
    </rdf:RDF>
  </metadata>
  <g
     inkscape:groupmode="layer"
     id="layer2"
     inkscape:label="Artwork"
     style="display:inline"
     transform="translate(12.194747,15.328726)" />
  <g
     inkscape:label="Layer 1"
     inkscape:groupmode="layer"
     id="layer1"
     transform="translate(-270.13091,-249.89062)"
     style="display:inline">
    <path
       style="fill:#a9b9cb"
       inkscape:connector-curvature="0"
       id="path3840"
       d="m 466.47451,305.54253 c -0.001,-4.00607 -0.85779,-7.54564 -2.58828,-10.58309 -1.69987,-2.98782 -4.2468,-5.4909 -7.66146,-7.47119 -28.19152,-16.27087 -56.41037,-32.49211 -84.59197,-48.77951 -7.59775,-4.38992 -14.96473,-4.23027 -22.50624,0.22332 -11.22086,6.62417 -67.40042,38.84164 -84.14115,48.54708 -6.89381,3.99535 -10.2489,10.10913 -10.25056,18.05596 -0.0102,32.72205 0,65.44247 -0.0102,98.16536 0.001,3.91758 0.82141,7.38849 2.47578,10.38127 1.70072,3.07715 4.28239,5.64971 7.77645,7.67468 16.74153,9.70545 72.92855,41.92044 84.14693,48.54625 7.54482,4.45608 14.9118,4.6149 22.51204,0.22335 28.18243,-16.28825 56.40292,-32.50866 84.59858,-48.77952 3.49406,-2.02415 6.07572,-4.59837 7.77644,-7.67304 1.6519,-2.99278 2.4733,-6.46369 2.47495,-10.38209 0,0 0,-65.42593 -0.0102,-98.14883"
       clip-path="url(#clipPath4155)" />
    <path
       style="fill:#7f8b99"
       inkscape:connector-curvature="0"
       id="path3842"
       d="m 372.99129,238.82286 c -7.70857,-4.45028 -15.18261,-4.28804 -22.83402,0.22615 -11.38466,6.7141 -68.38358,39.37005 -85.36851,49.20796 -6.99487,4.04931 -10.39859,10.24643 -10.40027,18.30135 -0.0104,33.16706 0,66.33327 -0.0104,99.50116 0.001,3.97114 0.83305,7.48918 2.5118,10.52218 1.72581,3.11958 4.34521,5.72721 7.89015,7.77918 3.89128,2.25374 9.88496,5.70619 16.94627,9.76812 L 439.00117,276.85381 c -22.00602,-12.67164 -44.01791,-25.33323 -66.00963,-38.03095"
       clip-path="url(#clipPath4151)" />
    <path
       style="fill:#ffffff"
       inkscape:connector-curvature="0"
       id="path3844"
       d="m 378.48177,343.23696 25.03923,0.17661 c 0,-10.43264 -10.56023,-35.98159 -40.83621,-35.98159 -19.28961,0 -45.22195,12.26349 -45.22195,47.52167 0,35.25755 25.42136,46.75489 45.22195,46.75489 32.06472,0 39.72815,-22.18767 39.72815,-34.72646 l -23.8878,-1.36575 c 0,0 0.6392,14.50288 -15.96793,14.50288 -15.32937,0 -17.88741,-18.77864 -17.88741,-25.16556 0,-9.7086 3.45241,-25.29377 17.88741,-25.29377 14.43562,0 15.92456,13.57708 15.92456,13.57708" />
    <path
       transform="matrix(0.86033594,0,0,0.86346354,255.61287,245.27648)"
       inkscape:transform-center-y="-1.5566024"
       inkscape:transform-center-x="0.34789098"
       d="m 211.60827,74.824 -0.0332,103.56153 -89.70351,51.75202 -89.670315,-51.80951 0.03319,-103.561527 89.703505,-51.752019 z"
       inkscape:randomized="0"
       inkscape:rounded="0"
       inkscape:flatsided="true"
       sodipodi:arg2="0.0003204856"
       sodipodi:arg1="-0.52327829"
       sodipodi:r2="103.56153"
       sodipodi:r1="103.56153"
       sodipodi:cy="126.57602"
       sodipodi:cx="121.90476"
       sodipodi:sides="6"
       id="path7936"
       style="color:#000000;display:inline;overflow:visible;visibility:visible;fill:none;fill-opacity:1;fill-rule:nonzero;stroke:#0093d9;stroke-width:1.16022968;stroke-linecap:round;stroke-linejoin:miter;stroke-miterlimit:4;stroke-dasharray:2.32045933, 4.64091866;stroke-dashoffset:7.51718092;stroke-opacity:1;marker:none;enable-background:accumulate"
       sodipodi:type="star" />
  </g>
</svg>
