<?xml version="1.0" encoding="UTF-8" standalone="no"?>
<svg
   xmlns:dc="http://purl.org/dc/elements/1.1/"
   xmlns:cc="http://creativecommons.org/ns#"
   xmlns:rdf="http://www.w3.org/1999/02/22-rdf-syntax-ns#"
   xmlns:svg="http://www.w3.org/2000/svg"
   xmlns="http://www.w3.org/2000/svg"
   xmlns:sodipodi="http://sodipodi.sourceforge.net/DTD/sodipodi-0.dtd"
   xmlns:inkscape="http://www.inkscape.org/namespaces/inkscape"
   viewBox="0 0 180.72066 209.35547"
   id="svg2"
   version="1.1"
   inkscape:version="0.91 r13725"
   sodipodi:docname="HTML5_complete.svg"
   width="180.72066"
   height="209.35547">
  <metadata
     id="metadata30">
    <rdf:RDF>
      <cc:Work
         rdf:about="">
        <dc:format>image/svg+xml</dc:format>
        <dc:type
           rdf:resource="http://purl.org/dc/dcmitype/StillImage" />
        <dc:title>HTML5 Logo</dc:title>
      </cc:Work>
    </rdf:RDF>
  </metadata>
  <defs
     id="defs28">
    <clipPath
       clipPathUnits="userSpaceOnUse"
       id="clipPath4242">
      <path
         style="color:#000000;display:inline;overflow:visible;visibility:visible;fill:none;fill-opacity:1;fill-rule:nonzero;stroke:#0093d9;stroke-width:1.75035584;stroke-linecap:round;stroke-linejoin:miter;stroke-miterlimit:4;stroke-dasharray:3.50071156, 7.00142311;stroke-dashoffset:7.51718092;stroke-opacity:1;marker:none;enable-background:accumulate"
         d="m 248.83743,175.05851 c -50.64387,29.32896 -101.29315,58.65 -151.939108,87.9759 -0.01575,61.0619 -0.03728,122.12379 -0.05811,183.18569 52.702448,30.55887 105.401938,61.12285 158.106358,91.6783 52.72221,-30.52517 105.44283,-61.05308 158.16449,-91.57916 0.014,-61.06077 0.0347,-122.12151 0.0546,-183.18228 -52.70211,-30.56174 -105.40475,-61.12255 -158.10636,-91.68515 -2.07399,1.20224 -4.14797,2.40447 -6.22197,3.6067 z"
         id="path4244"
         inkscape:connector-curvature="0" />
    </clipPath>
    <clipPath
       clipPathUnits="userSpaceOnUse"
       id="clipPath4246">
      <path
         style="color:#000000;display:inline;overflow:visible;visibility:visible;fill:none;fill-opacity:1;fill-rule:nonzero;stroke:#0093d9;stroke-width:1.63144779;stroke-linecap:round;stroke-linejoin:miter;stroke-miterlimit:4;stroke-dasharray:3.26289557, 6.52579112;stroke-dashoffset:7.51718092;stroke-opacity:1;marker:none;enable-background:accumulate"
         d="m 252.21635,144.56702 c -44.41244,29.05444 -88.82963,58.10104 -133.2439,87.15245 -0.0138,60.49037 -0.0327,120.98072 -0.051,181.47109 46.21773,30.27284 92.43286,60.55074 138.65232,90.8202 46.23506,-30.23946 92.46872,-60.48163 138.7033,-90.72199 0.0123,-60.48924 0.0304,-120.97847 0.0479,-181.46771 -46.21744,-30.27568 -92.43533,-60.55045 -138.65232,-90.82698 -1.8188,1.19098 -3.63759,2.38196 -5.4564,3.57294 z"
         id="path4248"
         inkscape:connector-curvature="0" />
    </clipPath>
    <clipPath
       clipPathUnits="userSpaceOnUse"
       id="clipPath5316">
      <path
         style="color:#000000;display:inline;overflow:visible;visibility:visible;fill:none;fill-opacity:1;fill-rule:nonzero;stroke:#0093d9;stroke-width:1.37714374;stroke-linecap:round;stroke-linejoin:miter;stroke-miterlimit:4;stroke-dasharray:2.75428734, 5.50857466;stroke-dashoffset:7.51718092;stroke-opacity:1;marker:none;enable-background:accumulate"
         d="m 250.62648,174.42778 c -37.99393,24.2 -75.99191,48.39344 -113.9874,72.59091 -0.0113,50.38356 -0.028,100.76712 -0.0436,151.15068 39.53831,25.21481 79.0744,50.43383 118.61419,75.64585 39.55313,-25.18702 79.10507,-50.3763 118.65779,-75.56405 0.0105,-50.38262 0.026,-100.76524 0.041,-151.14786 -39.53798,-25.21718 -79.07644,-50.4336 -118.61412,-75.65149 -1.55595,0.99198 -3.11189,1.98397 -4.66783,2.97596 z"
         id="path5318"
         inkscape:connector-curvature="0" />
    </clipPath>
  </defs>
  <sodipodi:namedview
     pagecolor="#ffffff"
     bordercolor="#666666"
     borderopacity="1"
     objecttolerance="10"
     gridtolerance="10"
     guidetolerance="10"
     inkscape:pageopacity="0"
     inkscape:pageshadow="2"
     inkscape:window-width="1366"
     inkscape:window-height="704"
     id="namedview26"
     showgrid="false"
     inkscape:zoom="1.84375"
     inkscape:cx="134.42213"
     inkscape:cy="125.93957"
     inkscape:window-x="0"
     inkscape:window-y="27"
     inkscape:window-maximized="1"
     inkscape:current-layer="svg2"
     fit-margin-top="0"
     fit-margin-left="0"
     fit-margin-right="0"
     fit-margin-bottom="0" />
  <title
     id="title4">HTML5 Logo</title>
  <polygon
     style="fill:#e44d26"
     points="437.367,100.62 404.321,470.819 255.778,512 107.644,470.877 74.633,100.62 "
     id="polygon6"
     transform="matrix(0.65147212,0,0,0.57671033,-77.474009,-80.770369)"
     clip-path="url(#clipPath4246)" />
  <polygon
     style="fill:#f16529"
     points="256,130.894 256,480.523 376.03,447.246 404.27,130.894 "
     id="polygon8"
     transform="matrix(0.7615288,0,0,0.69239686,-104.02139,-118.7127)"
     clip-path="url(#clipPath5316)" />
  <polygon
     style="fill:#ebebeb"
     points="191.76,221.716 256,221.716 256,176.305 255.843,176.305 142.132,176.305 143.219,188.488 154.38,313.627 256,313.627 256,268.217 195.91,268.217 "
     id="polygon10"
     transform="matrix(0.32620995,0,0,0.32620995,7.4202319,19.82481)" />
  <polygon
     style="fill:#ebebeb"
     points="256,433.399 256,386.153 255.801,386.206 205.227,372.55 201.994,336.333 177.419,336.333 156.409,336.333 162.771,407.634 255.791,433.457 "
     id="polygon12"
     transform="matrix(0.32620995,0,0,0.32620995,7.4202319,19.82481)" />
  <polygon
     style="fill:#ffffff"
     points="361.399,268.217 349.162,268.217 255.843,268.217 255.843,313.627 311.761,313.627 306.49,372.521 255.843,386.191 255.843,433.435 348.937,407.634 349.62,399.962 360.291,280.411 "
     id="polygon22"
     transform="matrix(0.32620995,0,0,0.32620995,7.4202319,19.82481)" />
  <polygon
     style="fill:#ffffff"
     points="255.843,221.605 255.843,221.716 365.385,221.716 365.385,221.716 365.531,221.716 366.442,211.509 368.511,188.488 369.597,176.305 255.843,176.305 255.843,204.509 "
     id="polygon24"
     transform="matrix(0.32620995,0,0,0.32620995,7.4202319,19.82481)" />
  <g
     id="g4186"
     transform="matrix(1.05,0,0,1.05,-176.75878,-123.84597)">
    <path
       id="path14"
       d="m 213.24951,163.1948 6.5177,0 0,6.43947 5.96216,0 0,-6.43947 6.51798,0 0,19.50029 -6.5177,0 0,-6.52984 -5.96216,0 0,6.52984 -6.5177,0 0,-19.50029 z"
       inkscape:connector-curvature="0" />
    <path
       id="path16"
       d="m 240.81834,169.66138 -5.7379,0 0,-6.46658 17.99662,0 0,6.46658 -5.74045,0 0,13.03371 -6.51798,0 0,-13.03371 z"
       inkscape:connector-curvature="0" />
    <path
       id="path18"
       d="m 255.9333,163.1948 6.79619,0 4.18057,6.85182 4.17633,-6.85182 6.79873,0 0,19.50029 -6.49088,0 0,-9.66541 -4.48418,6.93344 -0.11213,0 -4.48729,-6.93344 0,9.66541 -6.37734,0 0,-19.50029 z"
       inkscape:connector-curvature="0" />
    <path
       id="path20"
       d="m 281.12886,163.1948 6.51968,0 0,13.05461 9.16579,0 0,6.44568 -15.68547,0 0,-19.50029 z"
       inkscape:connector-curvature="0" />
  </g>
  <path
     inkscape:transform-center-y="-1.5566024"
     inkscape:transform-center-x="0.34789098"
     d="m 211.60827,74.824 -0.0332,103.56153 -89.70351,51.75202 -89.670315,-51.80951 0.03319,-103.561527 89.703505,-51.752019 z"
     inkscape:randomized="0"
     inkscape:rounded="0"
     inkscape:flatsided="true"
     sodipodi:arg2="0.0003204856"
     sodipodi:arg1="-0.52327829"
     sodipodi:r2="103.56153"
     sodipodi:r1="103.56153"
     sodipodi:cy="126.57602"
     sodipodi:cx="121.90476"
     sodipodi:sides="6"
     id="path7936"
     style="color:#000000;display:inline;overflow:visible;visibility:visible;fill:none;fill-opacity:1;fill-rule:nonzero;stroke:#0093d9;stroke-width:1.16022968;stroke-linecap:round;stroke-linejoin:miter;stroke-miterlimit:4;stroke-dasharray:2.32045933, 4.64091866;stroke-dashoffset:7.51718092;stroke-opacity:1;marker:none;enable-background:accumulate"
     sodipodi:type="star"
     transform="matrix(0.86033583,0,0,0.86346349,-14.517858,-4.6140204)" />
</svg>
