<?xml version="1.0" encoding="UTF-8" standalone="no"?>
<!-- Generator: Adobe Illustrator 15.0.0, SVG Export Plug-In . SVG Version: 6.00 Build 0)  -->

<svg
   xmlns:dc="http://purl.org/dc/elements/1.1/"
   xmlns:cc="http://creativecommons.org/ns#"
   xmlns:rdf="http://www.w3.org/1999/02/22-rdf-syntax-ns#"
   xmlns:svg="http://www.w3.org/2000/svg"
   xmlns="http://www.w3.org/2000/svg"
   xmlns:sodipodi="http://sodipodi.sourceforge.net/DTD/sodipodi-0.dtd"
   xmlns:inkscape="http://www.inkscape.org/namespaces/inkscape"
   enable-background="new 0 0 800 600"
   xml:space="preserve"
   height="209.35675"
   viewBox="0 0 180.72071 209.35409"
   width="180.7218"
   version="1.1"
   y="0px"
   x="0px"
   id="svg2"
   inkscape:version="0.91 r13725"
   sodipodi:docname="Redis_Complete.svg"><defs
     id="defs42"><clipPath
       clipPathUnits="userSpaceOnUse"
       id="clipPath4231"><path
         style="color:#000000;display:inline;overflow:visible;visibility:visible;fill:none;fill-opacity:1;fill-rule:nonzero;stroke:#0093d9;stroke-width:0.99999386;stroke-linecap:round;stroke-linejoin:miter;stroke-miterlimit:4;stroke-dasharray:1.99998775, 3.9999755;stroke-dashoffset:7.51718092;stroke-opacity:1;marker:none;enable-background:accumulate"
         d="m -309.45508,-183.57617 c -28.93593,16.75501 -57.87241,33.50908 -86.80859,50.26367 -0.008,34.885417 -0.0198,69.770834 -0.0312,104.65625 30.10956,17.45866 60.21743,34.9202385 90.32812,52.376953 30.12024,-17.4393278 60.23944,-34.880469 90.35938,-52.320312 0.009,-34.884766 0.0213,-69.769532 0.0332,-104.654301 -30.10937,-17.4603 -60.21904,-34.92007 -90.32812,-52.38086 -1.18425,0.6862 -2.36849,1.3724 -3.55274,2.0586 z"
         id="path4233"
         inkscape:connector-curvature="0" /></clipPath></defs><sodipodi:namedview
     pagecolor="#ffffff"
     bordercolor="#666666"
     borderopacity="1"
     objecttolerance="10"
     gridtolerance="10"
     guidetolerance="10"
     inkscape:pageopacity="0"
     inkscape:pageshadow="2"
     inkscape:window-width="1366"
     inkscape:window-height="704"
     id="namedview40"
     showgrid="false"
     fit-margin-top="0"
     fit-margin-left="0"
     fit-margin-right="0"
     fit-margin-bottom="0"
     inkscape:zoom="1.3009244"
     inkscape:cx="121.51584"
     inkscape:cy="119.05612"
     inkscape:window-x="0"
     inkscape:window-y="27"
     inkscape:window-maximized="1"
     inkscape:current-layer="svg2" /><metadata
     id="metadata4"><rdf:RDF><cc:Work
         rdf:about=""><dc:format>image/svg+xml</dc:format><dc:type
           rdf:resource="http://purl.org/dc/dcmitype/StillImage" /><dc:title></dc:title></cc:Work></rdf:RDF></metadata><rect
     style="fill:#22222f;fill-opacity:0.94117647"
     id="rect4212"
     width="300.55368"
     height="240.59668"
     x="-448.14017"
     y="-187.03252"
     clip-path="url(#clipPath4231)"
     transform="translate(396.29487,185.63425)" /><g
     id="g4205"
     transform="matrix(0.4306833,0,0,0.4306833,-55.612416,115.63416)"
     style="fill:#ececec;fill-opacity:1"><path
       d="m 255.31414,50.15705 c 0,3.619 -2.973,6.849 -6.85,6.849 -2.973,0 -5.557,0.776 -7.754,2.456 -2.455,1.552 -4.394,3.748 -5.944,6.203 -3.102,4.136 -4.651,9.046 -5.298,10.854 l 0,24.554 c 0,3.748 -3.23,6.85 -7.107,6.85 -3.748,0 -6.849,-3.102 -6.849,-6.85 l 0,-50.916 c 0,-3.748 3.101,-6.72 6.849,-6.72 3.877,0 7.107,2.973 7.107,6.72 l 0,0.905 c 0.775,-0.905 1.809,-1.938 2.714,-2.585 4.265,-2.842 9.821,-5.169 16.282,-5.04 3.877,0 6.85,2.973 6.85,6.72 z"
       id="path8"
       inkscape:connector-curvature="0"
       style="fill:#ececec;fill-opacity:1" /><path
       d="m 251.52414,75.61705 c 0.13,-17.575 13.828,-32.307 31.531,-32.307 16.8,0 30.11,12.535 31.145,29.98 l 0,0.646 c 0,0.259 0,0.904 -0.129,1.163 -0.389,3.102 -3.102,5.17 -6.721,5.17 l -41.094,0 c 0.646,2.973 2.067,6.332 4.394,8.529 2.714,3.102 7.883,5.426 12.405,5.814 4.652,0.387 10.209,-0.775 13.44,-3.23 2.713,-2.844 8.012,-2.455 9.692,-0.389 1.68,1.811 2.972,5.688 0,8.4 -6.333,5.814 -13.957,8.529 -23.133,8.529 -17.702,-0.127 -31.4,-14.73 -31.53,-32.305 z m 14.086,-6.332 36.571,0 c -1.292,-5.169 -7.883,-12.793 -19.126,-13.698 -10.983,0.516 -16.411,8.4 -17.445,13.698 z"
       id="path10"
       inkscape:connector-curvature="0"
       style="fill:#ececec;fill-opacity:1" /><path
       d="m 380.03414,100.94705 c 0,3.748 -3.102,6.979 -6.979,6.979 -3.489,0 -6.202,-2.455 -6.849,-5.557 -4.91,3.359 -11.113,5.557 -17.575,5.557 -17.445,0 -31.402,-14.732 -31.402,-32.178 0,-17.705 13.957,-32.437 31.402,-32.437 6.333,0 12.535,2.067 17.316,5.427 l 0,-24.294 c 0,-3.748 3.102,-6.979 7.107,-6.979 3.877,0 6.979,3.231 6.979,6.979 l 0,51.174 0,0.13 0,25.199 z m -31.402,-43.55 c -4.652,0 -8.917,1.938 -12.146,5.298 -3.231,3.231 -5.17,7.882 -5.17,13.052 0,4.91 1.938,9.562 5.17,12.793 3.229,3.361 7.494,5.299 12.146,5.299 4.781,0 8.917,-1.938 12.147,-5.299 3.23,-3.23 5.169,-7.883 5.169,-12.793 0,-5.17 -1.938,-9.821 -5.169,-13.052 -3.23,-3.36 -7.366,-5.298 -12.147,-5.298 z"
       id="path12"
       inkscape:connector-curvature="0"
       style="fill:#ececec;fill-opacity:1" /><path
       d="m 404.62414,27.15705 c 0,3.877 -2.972,7.107 -6.979,7.107 -3.877,0 -6.978,-3.23 -6.978,-7.107 l 0,-2.714 c 0,-3.877 3.101,-6.979 6.978,-6.979 4.007,0 6.979,3.102 6.979,6.979 l 0,2.714 z m 0,23.39 0,50.399 c 0,3.877 -2.972,6.979 -6.979,6.979 -3.877,0 -6.978,-3.102 -6.978,-6.979 l 0,-50.399 c 0,-4.135 3.101,-7.108 6.978,-7.108 4.008,0 6.979,2.973 6.979,7.108 z"
       id="path14"
       inkscape:connector-curvature="0"
       style="fill:#ececec;fill-opacity:1" /><path
       d="m 413.50414,89.43705 c 2.326,-3.1 6.85,-3.488 9.692,-1.033 3.36,2.844 9.176,5.814 14.215,5.686 3.489,0 6.72,-1.162 8.788,-2.455 1.809,-1.551 2.325,-2.842 2.325,-3.877 0,-0.646 -0.129,-0.904 -0.387,-1.293 -0.13,-0.387 -0.646,-0.904 -1.681,-1.549 -1.809,-1.293 -5.686,-2.715 -10.338,-3.619 l -0.129,0 c -4.007,-0.775 -7.884,-1.809 -11.243,-3.361 -3.489,-1.679 -6.591,-4.005 -8.917,-7.494 -1.421,-2.326 -2.196,-5.169 -2.196,-8.141 0,-5.945 3.36,-10.985 7.624,-14.216 4.523,-3.101 9.951,-4.781 15.896,-4.781 8.916,0 15.248,4.265 19.384,7.107 3.102,2.068 4.006,6.333 2.067,9.562 -2.067,3.102 -6.332,4.007 -9.562,1.81 -4.135,-2.713 -7.754,-4.782 -11.889,-4.782 -3.231,0 -6.074,1.034 -7.754,2.326 -1.68,1.164 -2.067,2.327 -2.067,2.973 0,0.516 0,0.646 0.258,1.033 0.13,0.258 0.517,0.775 1.422,1.292 1.681,1.163 5.04,2.326 9.434,3.102 l 0.129,0.13 0.13,0 c 4.265,0.774 8.271,1.938 12.018,3.747 3.489,1.551 6.979,4.006 9.176,7.624 1.551,2.584 2.455,5.557 2.455,8.529 0,6.332 -3.489,11.631 -8.142,14.99 -4.652,3.23 -10.468,5.17 -16.8,5.17 -10.079,-0.129 -17.833,-4.781 -23.002,-8.916 -2.844,-2.326 -3.231,-6.721 -0.906,-9.564 z"
       id="path16"
       inkscape:connector-curvature="0"
       style="fill:#ececec;fill-opacity:1" /></g><path
     style="fill:#a41e11"
     inkscape:connector-curvature="0"
     id="path18"
     d="m 138.28839,104.09943 c -5.55033,2.89317 -34.30347,14.71529 -40.42486,17.90621 -6.12138,3.19215 -9.52202,3.16097 -14.35762,0.84924 -4.8356,-2.31172 -35.43396,-14.67126 -40.94578,-17.30581 -2.75499,-1.31696 -4.2034,-2.42789 -4.2034,-3.47767 l 0,-10.513104 c 0,0 39.83485,-8.672165 46.26622,-10.978995 6.43075,-2.30744 8.66177,-2.39059 14.13445,-0.3858 5.4733,2.0048 38.19691,7.909135 43.60601,9.890086 0,0 -0.002,9.389344 -0.002,10.363923 6.1e-4,1.03939 -1.24727,2.17966 -4.07257,3.65192 z" /><path
     style="fill:#d82c20"
     inkscape:connector-curvature="0"
     id="path20"
     d="m 138.28839,93.583268 c -5.55033,2.891945 -34.30347,14.715292 -40.42486,17.906212 -6.12138,3.19215 -9.52202,3.16096 -14.35762,0.84924 -4.83621,-2.3105 -35.43396,-14.67249 -40.94578,-17.305811 -5.51181,-2.634543 -5.62737,-4.44797 -0.21276,-6.56771 5.41399,-2.120963 35.84421,-14.059868 42.27619,-16.367308 6.43076,-2.30622 8.66177,-2.39059 14.13446,-0.38518 5.47329,2.00479 34.05463,13.3812 39.46312,15.362154 5.40971,1.982785 5.61758,3.615236 0.0673,6.508403 z" /><path
     style="fill:#a41e11"
     inkscape:connector-curvature="0"
     id="path22"
     d="m 138.28839,86.955641 c -5.55033,2.893167 -34.30347,14.715289 -40.42486,17.907439 -6.12138,3.19092 -9.52202,3.15974 -14.35762,0.84801 C 78.6697,103.4006 48.07195,91.039825 42.56013,88.405281 c -2.75499,-1.316966 -4.2034,-2.426665 -4.2034,-3.47645 l 0,-10.51433 c 0,0 39.83485,-8.67155 46.26622,-10.97899 6.43075,-2.30683 8.66177,-2.39059 14.13445,-0.3858 5.4733,2.0048 38.19691,7.90791 43.60601,9.88948 0,0 -0.002,9.38934 -0.002,10.36514 6.1e-4,1.03878 -1.24727,2.17905 -4.07257,3.65131 z" /><path
     style="fill:#d82c20"
     inkscape:connector-curvature="0"
     id="path24"
     d="m 138.28839,76.439481 c -5.55033,2.89316 -34.30347,14.715288 -40.42486,17.907432 -6.12138,3.190922 -9.52202,3.15974 -14.35762,0.848018 -4.83621,-2.310498 -35.43396,-14.67188 -40.94578,-17.30581 -5.51181,-2.63393 -5.62737,-4.44736 -0.21276,-6.56832 5.41399,-2.11974 35.84421,-14.05926 42.27619,-16.36609 6.43076,-2.30683 8.66177,-2.39059 14.13446,-0.38579 5.47329,2.00479 34.05463,13.38059 39.46312,15.36215 5.40971,1.98218 5.61758,3.61524 0.0673,6.50841 z" /><path
     style="fill:#a41e11"
     inkscape:connector-curvature="0"
     id="path26"
     d="m 138.28839,69.175991 c -5.55033,2.89317 -34.30347,14.7159 -40.42486,17.908045 -6.12138,3.190921 -9.52202,3.15974 -14.35762,0.848018 C 78.6697,85.621551 48.07195,73.260171 42.56013,70.626241 c -2.75499,-1.31697 -4.2034,-2.42728 -4.2034,-3.47645 l 0,-10.51432 c 0,0 39.83485,-8.67156 46.26622,-10.97839 6.43075,-2.30744 8.66177,-2.39059 14.13445,-0.3858 5.4733,2.0048 38.19691,7.90791 43.60601,9.88948 0,0 -0.002,9.38934 -0.002,10.36453 6.1e-4,1.03817 -1.24727,2.17844 -4.07257,3.6507 z" /><path
     style="fill:#d82c20"
     inkscape:connector-curvature="0"
     id="path28"
     d="m 138.28839,58.659831 c -5.55033,2.89316 -34.30347,14.7159 -40.42486,17.90743 -6.12138,3.19092 -9.52202,3.15974 -14.35762,0.84863 -4.8356,-2.31111 -35.43396,-14.67188 -40.94578,-17.30581 -5.51181,-2.63393 -5.62737,-4.44797 -0.21276,-6.56832 5.41399,-2.12035 35.84421,-14.05864 42.27619,-16.36609 6.43076,-2.30744 8.66177,-2.39059 14.13446,-0.38518 5.47329,2.0048 34.05463,13.38059 39.46312,15.36216 5.40971,1.98095 5.61758,3.61462 0.0673,6.50718 z" /><polygon
     style="fill:#ffffff"
     id="polygon30"
     points="260.63,258.13 255.3,249.27 238.28,247.74 250.98,243.16 247.17,236.13 259.06,240.78 270.27,237.11 267.24,244.38 278.67,248.66 263.93,250.19 "
     transform="matrix(0.61140478,0,0,0.61140478,-66.39159,-103.49695)" /><polygon
     style="fill:#ffffff"
     id="polygon32"
     points="259.75,287.18 232.24,275.77 271.66,269.72 "
     transform="matrix(0.61140478,0,0,0.61140478,-66.39159,-103.49695)" /><ellipse
     style="fill:#ffffff"
     id="ellipse34"
     cy="56.226429"
     ry="4.9933429"
     rx="12.881687"
     cx="69.101814" /><polygon
     style="fill:#7a0c00"
     id="polygon36"
     points="296.09,250.83 319.42,260.05 296.11,269.26 "
     transform="matrix(0.61140478,0,0,0.61140478,-66.39159,-103.49695)" /><polygon
     style="fill:#ad2115"
     id="polygon38"
     points="270.28,261.04 296.09,250.83 296.11,269.26 293.58,270.25 "
     transform="matrix(0.61140478,0,0,0.61140478,-66.39159,-103.49695)" /><path
     inkscape:transform-center-y="-1.5566024"
     inkscape:transform-center-x="0.34789098"
     d="m 211.60827,74.824 -0.0332,103.56153 -89.70351,51.75202 -89.670315,-51.80951 0.03319,-103.561527 89.703505,-51.752019 z"
     inkscape:randomized="0"
     inkscape:rounded="0"
     inkscape:flatsided="true"
     sodipodi:arg2="0.0003204856"
     sodipodi:arg1="-0.52327829"
     sodipodi:r2="103.56153"
     sodipodi:r1="103.56153"
     sodipodi:cy="126.57602"
     sodipodi:cx="121.90476"
     sodipodi:sides="6"
     id="path7936"
     style="color:#000000;display:inline;overflow:visible;visibility:visible;fill:none;fill-opacity:1;fill-rule:nonzero;stroke:#0093d9;stroke-width:1.16022968;stroke-linecap:round;stroke-linejoin:miter;stroke-miterlimit:4;stroke-dasharray:2.32045933, 4.64091866;stroke-dashoffset:7.51718092;stroke-opacity:1;marker:none;enable-background:accumulate"
     sodipodi:type="star"
     transform="matrix(0.8603306,0,0,0.86345832,-14.51797,-4.6136188)" /></svg>