<?xml version="1.0" encoding="UTF-8" standalone="no"?>
<!-- Created with Inkscape (http://www.inkscape.org/) -->

<svg
   xmlns:dc="http://purl.org/dc/elements/1.1/"
   xmlns:cc="http://creativecommons.org/ns#"
   xmlns:rdf="http://www.w3.org/1999/02/22-rdf-syntax-ns#"
   xmlns:svg="http://www.w3.org/2000/svg"
   xmlns="http://www.w3.org/2000/svg"
   xmlns:sodipodi="http://sodipodi.sourceforge.net/DTD/sodipodi-0.dtd"
   xmlns:inkscape="http://www.inkscape.org/namespaces/inkscape"
   id="svg2"
   version="1.1"
   inkscape:version="0.91 r13725"
   xml:space="preserve"
   width="184.26508"
   height="213.45213"
   viewBox="0 0 184.26507 213.45215"
   sodipodi:docname="Git-Logo-2Color_complete_3.svg"><metadata
     id="metadata8"><rdf:RDF><cc:Work
         rdf:about=""><dc:format>image/svg+xml</dc:format><dc:type
           rdf:resource="http://purl.org/dc/dcmitype/StillImage" /><dc:title /></cc:Work></rdf:RDF></metadata><defs
     id="defs6"><clipPath
       clipPathUnits="userSpaceOnUse"
       id="clipPath4177"><path
         sodipodi:type="star"
         style="color:#000000;display:inline;overflow:visible;visibility:visible;fill:none;fill-opacity:1;fill-rule:nonzero;stroke:#0093d9;stroke-width:1.16022968;stroke-linecap:round;stroke-linejoin:miter;stroke-miterlimit:4;stroke-dasharray:2.32045933, 4.64091866;stroke-dashoffset:7.51718092;stroke-opacity:1;marker:none;enable-background:accumulate"
         id="path4179"
         sodipodi:sides="6"
         sodipodi:cx="121.90476"
         sodipodi:cy="126.57602"
         sodipodi:r1="103.56153"
         sodipodi:r2="103.56153"
         sodipodi:arg1="-0.52327829"
         sodipodi:arg2="0.0003204856"
         inkscape:flatsided="true"
         inkscape:rounded="0"
         inkscape:randomized="0"
         d="m 211.60827,74.824 -0.0332,103.56153 -89.70351,51.75202 -89.670315,-51.80951 0.03319,-103.561527 89.703505,-51.752019 z"
         inkscape:transform-center-x="0.34789098"
         inkscape:transform-center-y="-1.5566024"
         transform="matrix(0.68826875,0,0,0.69077083,-160.07882,-185.82848)" /></clipPath><clipPath
       clipPathUnits="userSpaceOnUse"
       id="clipPath4197"><path
         sodipodi:type="star"
         style="color:#000000;display:inline;overflow:visible;visibility:visible;fill:none;fill-opacity:1;fill-rule:nonzero;stroke:#0093d9;stroke-width:1.16022968;stroke-linecap:round;stroke-linejoin:miter;stroke-miterlimit:4;stroke-dasharray:2.32045933, 4.64091866;stroke-dashoffset:7.51718092;stroke-opacity:1;marker:none;enable-background:accumulate"
         id="path4199"
         sodipodi:sides="6"
         sodipodi:cx="121.90476"
         sodipodi:cy="126.57602"
         sodipodi:r1="103.56153"
         sodipodi:r2="103.56153"
         sodipodi:arg1="-0.52327829"
         sodipodi:arg2="0.0003204856"
         inkscape:flatsided="true"
         inkscape:rounded="0"
         inkscape:randomized="0"
         d="m 211.60827,74.824 -0.0332,103.56153 -89.70351,51.75202 -89.670315,-51.80951 0.03319,-103.561527 89.703505,-51.752019 z"
         inkscape:transform-center-x="0.34789098"
         inkscape:transform-center-y="-1.5566024"
         transform="matrix(0.4866795,0.4866795,-0.48844874,0.48844874,18.207759,-244.5934)" /></clipPath><clipPath
       clipPathUnits="userSpaceOnUse"
       id="clipPath3393"><path
         style="color:#000000;display:inline;overflow:visible;visibility:visible;fill:none;fill-opacity:1;fill-rule:nonzero;stroke:#0093d9;stroke-width:0.80000001;stroke-linecap:round;stroke-linejoin:miter;stroke-miterlimit:4;stroke-dasharray:1.6, 3.19999999;stroke-dashoffset:7.51718092;stroke-opacity:1;marker:none;enable-background:accumulate"
         d="m -78.590223,-174.17172 c -21.393258,12.38706 -42.786337,24.77444 -64.179717,37.16131 -0.006,25.73031 -0.0156,51.460627 -0.0242,77.190943 22.19811,12.871726 44.395918,25.743978 66.594031,38.615705 22.205566,-12.858851 44.412103,-25.716002 66.618234,-38.573879 0.0064,-25.729867 0.015548,-51.459729 0.024193,-77.189599 -22.198168,-12.87208 -44.395868,-25.74497 -66.594035,-38.61705 -0.812839,0.47085 -1.625677,0.94171 -2.438516,1.41257 z"
         id="path3395"
         inkscape:connector-curvature="0" /></clipPath><clipPath
       clipPathUnits="userSpaceOnUse"
       id="clipPath5306"><path
         style="color:#000000;display:inline;overflow:visible;visibility:visible;fill:none;fill-opacity:1;fill-rule:nonzero;stroke:#0093d9;stroke-width:0.57717603;stroke-linecap:round;stroke-linejoin:miter;stroke-miterlimit:4;stroke-dasharray:1.15435202, 2.30870402;stroke-dashoffset:7.51718092;stroke-opacity:1;marker:none;enable-background:accumulate"
         d="m -78.757331,-36.404059 c -16.865303,-9.779772 -33.730609,-19.559527 -50.595899,-29.33931 0.007,-20.527606 0.0149,-41.055211 0.0197,-61.582821 17.7253,-10.26404 35.451554,-20.52724 53.176008,-30.79211 17.719017,10.27567 35.438462,20.55061 53.157685,30.82593 -0.0068,20.52761 -0.01383,41.055213 -0.01832,61.58282 -17.725441,10.263334 -35.45029,20.527741 -53.175974,30.790705 -0.854398,-0.495071 -1.708794,-0.990142 -2.563191,-1.485214 z"
         id="path5308"
         inkscape:connector-curvature="0" /></clipPath></defs><sodipodi:namedview
     pagecolor="#ffffff"
     bordercolor="#666666"
     borderopacity="1"
     objecttolerance="10"
     gridtolerance="10"
     guidetolerance="10"
     inkscape:pageopacity="0"
     inkscape:pageshadow="2"
     inkscape:window-width="1366"
     inkscape:window-height="704"
     id="namedview4"
     showgrid="false"
     inkscape:zoom="2"
     inkscape:cx="19.739655"
     inkscape:cy="99.094527"
     inkscape:window-x="0"
     inkscape:window-y="27"
     inkscape:window-maximized="1"
     inkscape:current-layer="g10"
     fit-margin-top="0"
     fit-margin-left="0"
     fit-margin-right="0"
     fit-margin-bottom="0" /><g
     id="g10"
     inkscape:groupmode="layer"
     inkscape:label="ink_ext_XXXXXX"
     transform="matrix(1.25,0,0,-1.25,187.3535,229.71923)"><rect
       style="fill:#f03c2e;fill-opacity:1;stroke:none"
       id="rect4224"
       width="151.71771"
       height="165.77383"
       x="-150.03517"
       y="-181.85715"
       transform="matrix(1.386059,0,0,-1.386059,29.408402,-35.385907)"
       clip-path="url(#clipPath5306)" /><rect
       style="fill:#f03c2e;fill-opacity:1;stroke:none"
       id="rect4173"
       width="197.42172"
       height="178.37782"
       x="-166.95148"
       y="-189.16936"
       transform="matrix(1.0064683,0,0,-1.0064683,0.46032336,-0.6739665)"
       clip-path="url(#clipPath4177)" /><rect
       style="fill:#ffffff;fill-rule:evenodd;stroke:none;stroke-width:0.46929148px;stroke-linecap:butt;stroke-linejoin:miter;stroke-opacity:1"
       id="rect3365"
       width="58.180866"
       height="63.897739"
       x="4.4897003"
       y="-175.30286"
       transform="matrix(0.70710678,0.70710678,0.70710678,-0.70710678,0,0)"
       ry="0" /><path
       inkscape:connector-curvature="0"
       id="path20"
       style="fill:#f03c2e;fill-opacity:1;fill-rule:nonzero;stroke:none"
       d="m -32.459585,127.70822 -39.793818,39.79099 c -2.290092,2.29151 -6.0066,2.2918 -8.299597,0 l -9.665617,-6.86088 11.884416,-11.88482 c 2.436699,0.8227 5.2297,0.2711 7.171096,-1.6707 1.951285,-1.95412 2.499203,-4.7707 1.655804,-7.2156 l 10.102404,-10.102 c 2.4441,0.8422 5.264003,0.2981 7.215599,-1.657 2.728503,-2.7277 2.728504,-7.1476 3e-6,-9.8762 -2.7289,-2.7293 -7.148802,-2.7293 -9.878901,0 -2.051625,2.05318 -2.559006,5.0676 -1.519901,7.5954 l -9.421498,9.42181 -8e-4,-24.7929 c 0.6652,-0.3293 1.293,-0.7688 1.8473,-1.3207 2.7277,-2.7274 2.7277,-7.1465 0,-9.878208 -2.7285,-2.7273 -7.1504,-2.7273 -9.8762,0 -2.728134,2.731668 -2.7281,7.150808 0,9.878208 0.6742,0.673 1.4543,1.1824 2.286701,1.5238 l 0,25.023 c -0.8324,0.3403 -1.6113,0.8461 -2.2867,1.5239 -2.066378,2.06482 -2.5641,5.0976 -1.504301,7.6351 l -10.332409,10.33439 -25.380776,-13.63548 c -2.29258,-2.2937 -4.19697,-19.65863 -1.90439,-21.95083 l 39.793346,-39.791087 c 2.291029,-2.291747 6.006629,-2.291747 8.300829,4.9e-5 l 39.607409,39.606658 c 2.291786,2.29299 2.291791,6.0109 1e-6,8.3031"
       sodipodi:nodetypes="ccccccccccccccccccccccccccccc" /><g
       id="g3360"
       transform="matrix(0.49056107,0.28322557,-0.28322557,0.49056107,-139.15504,-17.160072)"
       style="fill:#1a1a1a"><path
         d="m 169.59559,81.113484 c -4.788,0 -8.354,-2.3511 -8.354,-8.0093 0,-4.2633 2.35,-7.2227 8.096,-7.2227 4.87,0 8.178,2.8695 8.178,7.3988 0,5.1328 -2.96,7.8332 -7.92,7.8332 z m -9.573,-39.9519 c -1.133,-1.3906 -2.262,-2.868 -2.262,-4.6117 0,-3.4786 4.436,-4.5254 10.53,-4.5254 5.048,0 11.924,0.3535 11.924,5.0468 0,2.7895 -3.308,2.9622 -7.488,3.2243 l -12.704,0.866 z m 25.761,39.689 c 1.564,-2.0023 3.22,-4.7878 3.22,-8.791 0,-9.6601 -7.572,-15.3164 -18.535,-15.3164 -2.788,0 -5.312,0.3473 -6.877,0.7817 l -2.873,-4.6118 8.528,-0.521 c 15.058,-0.9594 23.932,-1.3954 23.932,-12.9661 0,-10.0109 -8.788,-15.6652 -23.932,-15.6652 -15.752,0 -21.757,4.00391 -21.757,10.8781 0,3.918 1.741,6.002 4.787,8.8782 -2.873,1.2144 -3.829,3.389 -3.829,5.7398 0,1.916 0.956,3.6562 2.525,5.3109 1.566,1.652 3.306,3.3078 5.395,5.2219 -4.264,2.0883 -7.485,6.6141 -7.485,13.0555 0,10.0074 6.615,16.8804 19.928,16.8804 3.743,0 6.007,-0.3445 8.009,-0.8699 l 16.972,0 0,-7.3957 -8.008,-0.6094"
         style="fill:#1a1a1a;fill-opacity:1;fill-rule:nonzero;stroke:none"
         id="path14"
         inkscape:connector-curvature="0" /><path
         d="m 209.10259,96.665084 c -4.962,0 -7.833,2.8746 -7.833,7.837096 0,4.9563 2.871,7.6563 7.833,7.6563 5.048,0 7.92,-2.7 7.92,-7.6563 0,-4.962496 -2.872,-7.837096 -7.92,-7.837096 z m -11.229,-52.3012 0,6.8719 4.44,0.6074 c 1.219,0.1766 1.392,0.4356 1.392,1.7442 l 0,25.5867 c 0,0.9555 -0.26,1.5672 -1.133,1.8262 l -4.699,1.655 0.957,7.0469 18.017,0 0,-36.1148 c 0,-1.395 0.084,-1.5676 1.393,-1.7442 l 4.439,-0.6074 0,-6.8719 -24.806,0"
         style="fill:#1a1a1a;fill-opacity:1;fill-rule:nonzero;stroke:none"
         id="path16"
         inkscape:connector-curvature="0" /><path
         d="m 257.09559,47.737784 c -3.744,-1.8254 -9.226,-3.4793 -14.189,-3.4793 -10.356,0 -14.271,4.1734 -14.271,14.0121 l 0,22.8004 c 0,0.5211 0,0.8707 -0.699,0.8707 l -6.091,0 0,7.7453 c 7.661,0.8726 10.705,4.7027 11.662,14.188596 l 8.269,0 0,-12.362496 c 0,-0.607 0,-0.8699 0.697,-0.8699 l 12.27,0 0,-8.7015 -12.967,0 0,-20.7989 c 0,-5.1355 1.22,-7.1355 5.917,-7.1355 2.44,0 4.961,0.6074 7.05,1.3914 l 2.352,-7.6609"
         style="fill:#1a1a1a;fill-opacity:1;fill-rule:nonzero;stroke:none"
         id="path18"
         inkscape:connector-curvature="0" /></g><rect
       style="fill:#ffffff;fill-opacity:1"
       id="rect5304"
       width="7.3974466"
       height="36.022171"
       x="45.766994"
       y="-198.01125"
       transform="matrix(0.73143403,0.68191221,0.71798464,-0.69605895,0,0)" /><path
       transform="matrix(0.68826875,0,0,-0.69077083,-160.07882,185.82848)"
       inkscape:transform-center-y="-1.5566024"
       inkscape:transform-center-x="0.34789098"
       d="m 211.60827,74.824 -0.0332,103.56153 -89.70351,51.75202 -89.670315,-51.80951 0.03319,-103.561527 89.703505,-51.752019 z"
       inkscape:randomized="0"
       inkscape:rounded="0"
       inkscape:flatsided="true"
       sodipodi:arg2="0.0003204856"
       sodipodi:arg1="-0.52327829"
       sodipodi:r2="103.56153"
       sodipodi:r1="103.56153"
       sodipodi:cy="126.57602"
       sodipodi:cx="121.90476"
       sodipodi:sides="6"
       id="path7936"
       style="color:#000000;display:inline;overflow:visible;visibility:visible;fill:none;fill-opacity:1;fill-rule:nonzero;stroke:#0093d9;stroke-width:1.16022968;stroke-linecap:round;stroke-linejoin:miter;stroke-miterlimit:4;stroke-dasharray:2.32045933, 4.64091866;stroke-dashoffset:7.51718092;stroke-opacity:1;marker:none;enable-background:accumulate"
       sodipodi:type="star" /></g></svg>