<?xml version="1.0" encoding="UTF-8" standalone="no"?>
<!-- Generator: Adobe Illustrator 18.1.0, SVG Export Plug-In . SVG Version: 6.00 Build 0)  -->

<svg
   xmlns:dc="http://purl.org/dc/elements/1.1/"
   xmlns:cc="http://creativecommons.org/ns#"
   xmlns:rdf="http://www.w3.org/1999/02/22-rdf-syntax-ns#"
   xmlns:svg="http://www.w3.org/2000/svg"
   xmlns="http://www.w3.org/2000/svg"
   xmlns:sodipodi="http://sodipodi.sourceforge.net/DTD/sodipodi-0.dtd"
   xmlns:inkscape="http://www.inkscape.org/namespaces/inkscape"
   version="1.1"
   id="Layer_1"
   x="0px"
   y="0px"
   viewBox="0 0 180.72263 209.35547"
   enable-background="new 0 0 320 240"
   xml:space="preserve"
   inkscape:version="0.91 r13725"
   sodipodi:docname="mongodb.svg"
   width="180.72263"
   height="209.35547"
   inkscape:export-filename="/home/mc/Papers/Projects/Forks/hexbin/hexagons/mongodb.png"
   inkscape:export-xdpi="90"
   inkscape:export-ydpi="90"><metadata
     id="metadata65"><rdf:RDF><cc:Work
         rdf:about=""><dc:format>image/svg+xml</dc:format><dc:type
           rdf:resource="http://purl.org/dc/dcmitype/StillImage" /><dc:title></dc:title></cc:Work></rdf:RDF></metadata><defs
     id="defs63"><clipPath
       clipPathUnits="userSpaceOnUse"
       id="clipPath6071"><path
         style="color:#000000;display:inline;overflow:visible;visibility:visible;fill:none;fill-opacity:1;fill-rule:nonzero;stroke:#0093d9;stroke-width:0.62998819;stroke-linecap:round;stroke-linejoin:miter;stroke-miterlimit:4;stroke-dasharray:1.2599763, 2.5199526;stroke-dashoffset:7.51718092;stroke-opacity:1;marker:none;enable-background:accumulate"
         d="m 154.54925,54.851332 c -18.22775,10.556084 -36.45744,21.109308 -54.685934,31.66429 -0.0054,21.977398 -0.01343,43.954798 -0.02092,65.932208 18.968674,10.99875 37.936274,21.99934 56.905654,32.99686 18.97578,-10.98663 37.95098,-21.97424 56.92657,-32.96118 0.006,-21.97699 0.0134,-43.95398 0.0209,-65.930975 C 194.72661,75.5527 175.7574,64.553356 156.78866,53.553212 c -0.74647,0.432706 -1.49294,0.865413 -2.23941,1.29812 z"
         id="path6073"
         inkscape:connector-curvature="0" /></clipPath></defs><sodipodi:namedview
     pagecolor="#ffffff"
     bordercolor="#666666"
     borderopacity="1"
     objecttolerance="10"
     gridtolerance="10"
     guidetolerance="10"
     inkscape:pageopacity="0"
     inkscape:pageshadow="2"
     inkscape:window-width="1366"
     inkscape:window-height="704"
     id="namedview61"
     showgrid="false"
     fit-margin-top="0"
     fit-margin-left="0"
     fit-margin-right="0"
     fit-margin-bottom="0"
     inkscape:zoom="2.0263158"
     inkscape:cx="88.586586"
     inkscape:cy="66.539739"
     inkscape:window-x="0"
     inkscape:window-y="27"
     inkscape:window-maximized="1"
     inkscape:current-layer="Layer_1" /><polygon
     points="251,67.2 251,171.7 160.5,224 70,171.7 70,67.2 160.5,15 "
     id="polygon3"
     style="fill:#442d22;fill-opacity:1"
     transform="matrix(1.5873313,0,0,1.5873313,-158.48296,-85.00669)"
     clip-path="url(#clipPath6071)" /><polygon
     points="251,67.2 251,171.7 160.5,224 70,171.7 70,67.2 160.5,15 "
     id="polygon3-3"
     style="fill:#8e714e;fill-opacity:1"
     transform="matrix(0.74985469,0,0,0.74985469,-29.990041,15.071766)" /><g
     transform="matrix(0.84570829,0,0,0.84570829,63.452413,44.414271)"
     style="fill:none;fill-rule:evenodd;stroke:none;stroke-width:1"
     id="g4229"><path
       d="m 35.053436,142.317 -3.783447,-1.29251 c 0,0 0.461923,-19.28678 -6.459143,-20.67082 -4.614044,-5.35225 0.738212,-227.01285 17.348425,-0.73821 0,0 -5.720931,2.86047 -6.736297,7.75166 -1.10775,4.79882 -0.369538,14.94988 -0.369538,14.94988 l 0,0 0,0 z"
       id="path4231"
       inkscape:connector-curvature="0"
       style="fill:#ffffff" /><path
       d="m 35.053436,142.317 -3.783447,-1.29251 c 0,0 0.461923,-19.28678 -6.459143,-20.67082 -4.614044,-5.35225 0.738212,-227.01285 17.348425,-0.73821 0,0 -5.720931,2.86047 -6.736297,7.75166 -1.10775,4.79882 -0.369538,14.94988 -0.369538,14.94988 l 0,0 0,0 z"
       id="path4233"
       inkscape:connector-curvature="0"
       style="fill:#a6a385" /><path
       d="m 37.084168,123.67606 c 0,0 33.128904,-21.77856 25.377241,-67.089267 C 54.9869,23.642658 37.360458,12.845761 35.422974,8.6927757 33.300721,5.7399258 31.269989,0.57243845 31.269989,0.57243845 L 32.654893,92.207487 c 0,0.09238 -2.861329,28.053803 4.429275,31.468573"
       id="path4235"
       inkscape:connector-curvature="0"
       style="fill:#ffffff" /><path
       d="m 37.084168,123.67606 c 0,0 33.128904,-21.77856 25.377241,-67.089267 C 54.9869,23.642658 37.360458,12.845761 35.422974,8.6927757 33.300721,5.7399258 31.269989,0.57243845 31.269989,0.57243845 L 32.654893,92.207487 c 0,0.09238 -2.861329,28.053803 4.429275,31.468573"
       id="path4237"
       inkscape:connector-curvature="0"
       style="fill:#499d4a" /><path
       d="m 29.332506,124.87533 c 0,0 -31.0990355,-21.22512 -29.25307261,-58.598527 C 1.8321484,28.90253 23.795481,10.538739 28.039987,7.2163508 c 2.768944,-2.95285 2.861328,-4.0606004 3.046097,-7.01345029 1.937484,4.15298479 1.56881,62.10568649 1.8451,68.93436749 0.830597,26.300223 -1.476425,50.755342 -3.598678,55.738062 l 0,0 0,0 z"
       id="path4239"
       inkscape:connector-curvature="0"
       style="fill:#ffffff" /><path
       d="m 29.332506,124.87533 c 0,0 -31.0990355,-21.22512 -29.25307261,-58.598527 C 1.8321484,28.90253 23.795481,10.538739 28.039987,7.2163508 c 2.768944,-2.95285 2.861328,-4.0606004 3.046097,-7.01345029 1.937484,4.15298479 1.56881,62.10568649 1.8451,68.93436749 0.830597,26.300223 -1.476425,50.755342 -3.598678,55.738062 l 0,0 0,0 z"
       id="path4241"
       inkscape:connector-curvature="0"
       style="fill:#58aa50" /></g><path
     transform="matrix(0.86033583,0,0,0.86346349,-14.517398,-4.6143696)"
     inkscape:transform-center-y="-1.5566024"
     inkscape:transform-center-x="0.34789098"
     d="m 211.60827,74.824 -0.0332,103.56153 -89.70351,51.75202 -89.670315,-51.80951 0.03319,-103.561527 89.703505,-51.752019 z"
     inkscape:randomized="0"
     inkscape:rounded="0"
     inkscape:flatsided="true"
     sodipodi:arg2="0.0003204856"
     sodipodi:arg1="-0.52327829"
     sodipodi:r2="103.56153"
     sodipodi:r1="103.56153"
     sodipodi:cy="126.57602"
     sodipodi:cx="121.90476"
     sodipodi:sides="6"
     id="path7936"
     style="color:#000000;display:inline;overflow:visible;visibility:visible;fill:none;fill-opacity:1;fill-rule:nonzero;stroke:#0093d9;stroke-width:1.16022968;stroke-linecap:round;stroke-linejoin:miter;stroke-miterlimit:4;stroke-dasharray:2.32045933, 4.64091866;stroke-dashoffset:7.51718092;stroke-opacity:1;marker:none;enable-background:accumulate"
     sodipodi:type="star" /></svg>