<?xml version="1.0" encoding="UTF-8" standalone="no"?>
<svg
   xmlns:dc="http://purl.org/dc/elements/1.1/"
   xmlns:cc="http://creativecommons.org/ns#"
   xmlns:rdf="http://www.w3.org/1999/02/22-rdf-syntax-ns#"
   xmlns:svg="http://www.w3.org/2000/svg"
   xmlns="http://www.w3.org/2000/svg"
   xmlns:sodipodi="http://sodipodi.sourceforge.net/DTD/sodipodi-0.dtd"
   xmlns:inkscape="http://www.inkscape.org/namespaces/inkscape"
   width="180.7207"
   height="209.35742"
   viewBox="0 0 180.72071 209.35742"
   version="1.1"
   preserveAspectRatio="xMidYMid"
   id="svg3979"
   inkscape:version="0.91 r13725"
   sodipodi:docname="erlang_complete.svg">
  <metadata
     id="metadata4011">
    <rdf:RDF>
      <cc:Work
         rdf:about="">
        <dc:format>image/svg+xml</dc:format>
        <dc:type
           rdf:resource="http://purl.org/dc/dcmitype/StillImage" />
        <dc:title></dc:title>
      </cc:Work>
    </rdf:RDF>
  </metadata>
  <defs
     id="defs4009">
    <clipPath
       clipPathUnits="userSpaceOnUse"
       id="clipPath4885">
      <path
         transform="matrix(1.866435,0,0,1.8732201,-99.34972,-122.45811)"
         inkscape:transform-center-y="-3.376921"
         inkscape:transform-center-x="0.75472217"
         d="m 211.60827,74.824 -0.0332,103.56153 -89.70351,51.75202 -89.670315,-51.80951 0.03319,-103.561527 89.703505,-51.752019 z"
         inkscape:randomized="0"
         inkscape:rounded="0"
         inkscape:flatsided="true"
         sodipodi:arg2="0.0003204856"
         sodipodi:arg1="-0.52327829"
         sodipodi:r2="103.56153"
         sodipodi:r1="103.56153"
         sodipodi:cy="126.57602"
         sodipodi:cx="121.90476"
         sodipodi:sides="6"
         id="path4887"
         style="color:#000000;display:inline;overflow:visible;visibility:visible;fill:none;fill-opacity:1;fill-rule:nonzero;stroke:#0093d9;stroke-width:1.16022968;stroke-linecap:round;stroke-linejoin:miter;stroke-miterlimit:4;stroke-dasharray:2.32045933, 4.64091866;stroke-dashoffset:7.51718092;stroke-opacity:1;marker:none;enable-background:accumulate"
         sodipodi:type="star" />
    </clipPath>
    <clipPath
       clipPathUnits="userSpaceOnUse"
       id="clipPath5008">
      <path
         sodipodi:type="star"
         style="color:#000000;display:inline;overflow:visible;visibility:visible;fill:none;fill-opacity:1;fill-rule:nonzero;stroke:#0093d9;stroke-width:1.16022968;stroke-linecap:round;stroke-linejoin:miter;stroke-miterlimit:4;stroke-dasharray:2.32045933, 4.64091866;stroke-dashoffset:7.51718092;stroke-opacity:1;marker:none;enable-background:accumulate"
         id="path5010"
         sodipodi:sides="6"
         sodipodi:cx="121.90476"
         sodipodi:cy="126.57602"
         sodipodi:r1="103.56153"
         sodipodi:r2="103.56153"
         sodipodi:arg1="-0.52327829"
         sodipodi:arg2="0.0003204856"
         inkscape:flatsided="true"
         inkscape:rounded="0"
         inkscape:randomized="0"
         d="m 211.60827,74.824 -0.0332,103.56153 -89.70351,51.75202 -89.670315,-51.80951 0.03319,-103.561527 89.703505,-51.752019 z"
         inkscape:transform-center-x="0.34789098"
         inkscape:transform-center-y="-1.5566024"
         transform="matrix(0.86033594,0,0,0.86346354,-26.396393,-19.615548)" />
    </clipPath>
    <clipPath
       clipPathUnits="userSpaceOnUse"
       id="clipPath4161">
      <path
         style="color:#000000;display:inline;overflow:visible;visibility:visible;fill:none;fill-opacity:1;fill-rule:nonzero;stroke:#0093d9;stroke-width:1;stroke-linecap:round;stroke-linejoin:miter;stroke-miterlimit:4;stroke-dasharray:2, 4;stroke-dashoffset:7.51718092;stroke-opacity:1;marker:none;enable-background:accumulate"
         d="M 74.175781,-12.607422 C 45.239772,4.1481115 16.303452,20.903109 -12.632812,37.658203 c -0.0086,34.885417 -0.02132,69.770837 -0.0332,104.656247 30.110166,17.45875 60.218786,34.92016 90.330078,52.37696 30.120234,-17.43933 60.239424,-34.88047 90.359374,-52.32032 0.009,-34.88541 0.0213,-69.77083 0.0332,-104.656246 -30.10937,-17.460299 -60.21904,-34.9200708 -90.32812,-52.38086 -1.184245,0.686198 -2.36849,1.372396 -3.552735,2.058594 z"
         id="path4163"
         inkscape:connector-curvature="0" />
    </clipPath>
    <clipPath
       clipPathUnits="userSpaceOnUse"
       id="clipPath11376">
      <path
         style="color:#000000;display:inline;overflow:visible;visibility:visible;fill:none;fill-opacity:1;fill-rule:nonzero;stroke:#0093d9;stroke-width:1;stroke-linecap:round;stroke-linejoin:miter;stroke-miterlimit:4;stroke-dasharray:2, 4;stroke-dashoffset:7.51718092;stroke-opacity:1;marker:none;enable-background:accumulate"
         d="M 85.546875,-1.0683594 C 56.61396,15.689585 27.676779,32.440236 -1.2578125,49.195312 -1.2659832,84.080729 -1.2776374,118.96615 -1.2890625,153.85156 28.8205,171.31022 58.928372,188.7718 89.039062,206.22852 119.1593,188.78919 149.27849,171.34805 179.39844,153.9082 c 0.009,-34.88541 0.0213,-69.770831 0.0332,-104.656247 -30.11018,-17.46002 -60.21936,-34.921762 -90.330078,-52.3808592 -1.184895,0.6868489 -2.369791,1.3736979 -3.554687,2.0605468 z"
         id="path11378"
         inkscape:connector-curvature="0" />
    </clipPath>
  </defs>
  <sodipodi:namedview
     pagecolor="#ffffff"
     bordercolor="#666666"
     borderopacity="1"
     objecttolerance="10"
     gridtolerance="10"
     guidetolerance="10"
     inkscape:pageopacity="0"
     inkscape:pageshadow="2"
     inkscape:window-width="1366"
     inkscape:window-height="704"
     id="namedview4007"
     showgrid="false"
     showguides="true"
     inkscape:guide-bbox="true"
     fit-margin-top="0"
     fit-margin-left="0"
     fit-margin-right="0"
     fit-margin-bottom="0"
     inkscape:zoom="2.3631709"
     inkscape:cx="74.49953"
     inkscape:cy="124.25663"
     inkscape:window-x="0"
     inkscape:window-y="27"
     inkscape:window-maximized="1"
     inkscape:current-layer="svg3979">
    <sodipodi:guide
       position="302.14495,161.97421"
       orientation="1,0"
       id="guide4846" />
  </sodipodi:namedview>
  <rect
     style="opacity:1;fill:#a90533;fill-opacity:1;stroke:#1a1a1a;stroke-width:1.86045003;stroke-opacity:1"
     id="rect11368"
     width="307.74759"
     height="256.94919"
     x="-53.973362"
     y="-13.342006"
     clip-path="url(#clipPath11376)"
     transform="translate(1.2890625,3.1289062)" />
  <rect
     style="opacity:1;fill:#ffffff;fill-opacity:1;stroke:#1a1a1a;stroke-width:0.90984726;stroke-opacity:1"
     id="rect11366"
     width="118.40337"
     height="101.68236"
     x="31.575125"
     y="54.239464" />
  <rect
     style="fill:#ffffff;fill-opacity:1"
     id="rect5705"
     width="109.50596"
     height="71.050301"
     x="35.987667"
     y="57.386539" />
  <path
     style="fill:#a90533;fill-opacity:1"
     d="m -40.642578,-10.154297 0,209.749997 209.748048,0 0,-209.749997 z m 34.8886718,4.779297 165.5839862,0 0,189.50977 -165.5839862,0 z m 124.9531262,44.259766 -0.0273,0.02148 0.043,0 c -0.005,-0.0071 -0.0104,-0.01435 -0.0156,-0.02148 z m 0.0156,0.02148 c 5.56215,7.562499 8.61953,17.269477 8.18946,28.816406 0.088,1.055725 0.088,2.076256 0,4.269532 l -65.957034,0 c -0.03824,19.427 6.896024,34.520196 24.546875,34.580086 12.127941,-0.0599 20.899219,-9.0352 26.896479,-18.785165 l 17.07618,8.539063 c -3.07612,5.465222 -6.47141,10.242632 -10.25977,14.300782 l 14.31445,0 0,-71.720704 z m 0.49219,71.720704 -0.0352,0 0.0312,0.006 0,-0.002 z m -83.591796,-71.726563 -0.01172,0.0059 -15.425782,0 0,71.720703 17.761719,0 0.01172,-0.002 C 29.65376,101.30284 24.506489,88.424565 24.519531,73.058594 24.507377,59.469359 28.774966,47.788521 36.115234,38.900391 Z m 42.195313,1.71289 c -8.13095,0.01779 -15.066673,5.932883 -15.796875,14.728516 l 30.097656,0 C 92.410918,46.546164 86.496937,40.631069 78.310547,40.613281 Z"
     id="rect4896"
     clip-path="url(#clipPath5008)"
     inkscape:connector-curvature="0"
     transform="translate(13.16829,18.131239)"
     sodipodi:nodetypes="ccccccccccccccccccccccccccccccccccccccccccccc" />
  <g
     style="fill:#000000"
     id="g3993"
     transform="matrix(0.46786464,0,0,0.46786464,34.929093,135.02965)">
    <path
       inkscape:connector-curvature="0"
       id="path3995"
       d="m 20.08903,7.608396 0,-6.386693 -19.61821812,0 0,37.867723 19.61821812,0 0,-6.387961 -12.3184161,0 0,-10.036594 11.8615441,0 0,-6.387326 -11.8615441,0 0,-8.669149 12.3184161,0 0,0 z" />
    <path
       inkscape:connector-curvature="0"
       id="path3997"
       d="M 53.394376,23.120475 C 58.28499,22.394297 60.970455,17.54804 61.150416,12.62701 60.970455,4.5763168 55.751604,1.2451485 48.375762,1.2210693 l -10.037227,0 0,37.8677227 7.299802,0 0,-15.055842 9.124752,15.055842 9.124753,0 -10.493466,-15.968317 0,0 z m -7.756673,-15.9676829 0.912475,0 c 3.982574,0.1495445 6.971565,1.0582178 6.843565,5.9310889 0.128,4.464792 -2.759604,5.676357 -6.843565,5.474852 l -0.912475,0 0,-11.4059409 0,0 z" />
    <path
       inkscape:connector-curvature="0"
       id="path3999"
       d="m 86.699089,1.221703 -7.299168,0 0,37.867723 17.792633,0 0,-6.387961 -10.493465,0 0,-31.479762 0,0 z" />
    <path
       inkscape:connector-curvature="0"
       id="path4001"
       d="m 134.60404,31.332753 3.19366,7.756039 7.75604,0 -14.14336,-38.78019794 -5.93109,0 -15.05584,38.78019794 7.7554,0 3.1943,-7.756039 13.23089,0 0,0 z m -1.82495,-5.930456 -9.12475,0 4.10614,-14.143366 5.01861,14.143366 0,0 z" />
    <path
       inkscape:connector-curvature="0"
       id="path4003"
       d="m 159.2415,39.089426 7.75541,0 0,-25.549307 20.07509,26.461148 5.47422,0 0,-38.779564 -7.75541,0 0,25.549307 -20.07509,-26.46241594 -5.47422,0 0,38.78083194 0,0 z" />
    <path
       inkscape:connector-curvature="0"
       id="path4005"
       d="m 224.48348,19.014337 0,5.931089 8.21228,0 c -0.17109,4.766416 -4.07192,8.804752 -8.66851,8.668515 -7.25925,0.136237 -10.85656,-6.87905 -10.94971,-13.230892 0.0932,-6.26693 3.63977,-13.5857421 10.94971,-13.6871282 3.8362,0.1007525 7.07928,2.7253861 8.66851,5.9310892 l 6.38733,-3.1936635 C 236.27406,3.516198 230.5996,0.23508911 224.02725,0.30859406 212.71445,0.23572277 205.46978,9.5733861 205.3215,20.383049 c 0.14828,10.540357 7.19082,19.928713 18.24951,20.074456 11.94329,-0.145743 17.46566,-9.685545 17.33703,-20.530693 l 0,-0.912475 -16.42456,0 0,0 0,0 z" />
  </g>
  <path
     transform="matrix(0.86033594,0,0,0.86346354,-14.518849,-4.6129016)"
     inkscape:transform-center-y="-1.5566024"
     inkscape:transform-center-x="0.34789098"
     d="m 211.60827,74.824 -0.0332,103.56153 -89.70351,51.75202 -89.670315,-51.80951 0.03319,-103.561527 89.703505,-51.752019 z"
     inkscape:randomized="0"
     inkscape:rounded="0"
     inkscape:flatsided="true"
     sodipodi:arg2="0.0003204856"
     sodipodi:arg1="-0.52327829"
     sodipodi:r2="103.56153"
     sodipodi:r1="103.56153"
     sodipodi:cy="126.57602"
     sodipodi:cx="121.90476"
     sodipodi:sides="6"
     id="path7936"
     style="color:#000000;display:inline;overflow:visible;visibility:visible;fill:none;fill-opacity:1;fill-rule:nonzero;stroke:#0093d9;stroke-width:1.16022968;stroke-linecap:round;stroke-linejoin:miter;stroke-miterlimit:4;stroke-dasharray:2.32045933, 4.64091866;stroke-dashoffset:7.51718092;stroke-opacity:1;marker:none;enable-background:accumulate"
     sodipodi:type="star" />
</svg>
